<svg width="520" height="464" viewBox="0 0 520 464" fill="none" xmlns="http://www.w3.org/2000/svg">
<path d="M392.197 222.275L383.784 227.133C377.024 231.039 366.908 230.639 361.199 226.232C355.49 221.825 345.374 221.424 338.613 225.33L323.652 233.969" stroke="black" stroke-width="0.5" stroke-linejoin="round"/>
<path opacity="0.05" d="M457.112 215.812C457.157 200.191 435.333 187.465 408.368 187.389C381.403 187.312 359.507 199.914 359.463 215.535C359.419 231.157 381.242 243.882 408.207 243.959C435.173 244.035 457.068 231.433 457.112 215.812Z" fill="black"/>
<path d="M466.301 187.324L466.302 202.518C466.302 209.754 461.561 217.049 452.193 222.549C433.286 233.723 402.499 233.723 383.421 222.549C373.768 216.991 369.027 209.581 369.027 202.228L368.582 187.313C368.582 194.665 373.825 201.74 383.421 207.356C402.499 218.53 433.286 218.53 452.193 207.356C461.561 201.798 466.301 194.561 466.301 187.324Z" fill="#E8E8E8" stroke="black" stroke-width="0.5" stroke-linejoin="round"/>
<path d="M466.226 187.671C466.27 172.05 444.446 159.324 417.481 159.248C390.516 159.172 368.621 171.773 368.576 187.395C368.532 203.016 390.356 215.742 417.321 215.818C444.286 215.895 466.181 203.293 466.226 187.671Z" fill="white" stroke="black" stroke-width="0.5" stroke-linejoin="round"/>
<path opacity="0.05" d="M519.001 325.609L300.677 452.514L14.5625 289.144L232.886 162.621L519.001 325.609Z" fill="black"/>
<path d="M392.88 56.5305L442.444 85.149L442.446 167.055" stroke="black" stroke-width="0.5"/>
<path d="M365.678 40.5368L365.678 124.736L442.766 169.386M365.678 40.8139L392.21 56.1316" stroke="black" stroke-width="0.5"/>
<path d="M175.724 360.089L165.576 365.948C157.421 370.66 145.219 370.177 138.333 364.861C131.447 359.546 119.246 359.062 111.091 363.774L75 384.613" stroke="black" stroke-width="0.5" stroke-linejoin="round"/>
<path d="M31.88 263.608L315.942 428.708L508.809 317.358L224.7 152.258L31.88 263.608Z" fill="#F1FFF7" stroke="black" stroke-width="0.5" stroke-linejoin="round"/>
<path d="M31.8835 263.613V278.93L315.992 444.03L315.945 428.713L31.8835 263.613Z" fill="#CCF2DD" stroke="black" stroke-width="0.5" stroke-linejoin="round"/>
<path d="M173.61 361.195L173.61 345.98L186.33 338.474C190.946 335.75 190.913 329.06 186.27 326.382L138.816 299.009C134.278 296.392 134.118 289.9 138.521 287.062L145.496 282.566" stroke="black" stroke-width="0.5"/>
<path d="M315.942 428.714L315.989 444.031L508.855 332.68L508.808 317.363L315.942 428.714Z" fill="#F1FFF7" stroke="black" stroke-width="0.5" stroke-linejoin="round"/>
<path d="M341.19 219.75L327.739 227.516C316.93 233.761 300.756 233.121 291.628 226.075C282.501 219.029 266.327 218.388 255.518 224.634L231.598 238.445" stroke="black" stroke-width="0.5" stroke-linejoin="round"/>
<path opacity="0.05" d="M109.795 402.537L55.0893 434.401L0 402.537L54.7054 370.77L109.795 402.537Z" fill="black"/>
<path d="M128.881 381.381L74.1752 413.244L19.0859 381.381L73.7913 349.613L128.881 381.381Z" fill="#B5F4FD" stroke="black" stroke-width="0.5" stroke-linejoin="round"/>
<path d="M128.876 381.391L128.876 397.173L74.0742 429.036L74.1702 413.254L128.876 381.391Z" fill="#B5F4FD" stroke="black" stroke-width="0.5" stroke-linejoin="round"/>
<path d="M74.1736 413.254L74.0776 429.032L18.9883 397.168L19.0843 381.391L74.1736 413.254Z" fill="#00BEDA" stroke="black" stroke-width="0.5" stroke-linejoin="round"/>
<path fill-rule="evenodd" clip-rule="evenodd" d="M54.4869 401.864L34.8587 390.511C31.386 384.343 33.899 377.311 42.3977 372.504C54.3655 365.735 73.6907 365.833 85.4623 372.798C97.2339 379.763 97.1358 390.946 85.168 397.715C76.8311 402.43 64.9238 403.813 54.4869 401.864Z" fill="#00BEDA"/>
<path d="M97.0767 383.591C97.0767 387.22 94.6295 390.848 89.8193 393.549C80.2833 398.95 64.8402 398.865 55.473 393.296C50.8316 390.511 48.4688 386.966 48.4688 383.338V376.84C48.4688 380.384 50.7473 384.013 55.473 386.798C64.9246 392.367 80.2833 392.452 89.8193 387.051C94.6295 384.35 97.0767 380.722 97.0767 377.093V383.591Z" fill="#E8E8E8" stroke="black" stroke-width="0.5" stroke-linejoin="round"/>
<path d="M55.4751 386.803C46.0235 381.233 46.1923 372.288 55.7282 366.887C65.2642 361.486 80.7073 361.57 90.0745 367.14C99.5261 372.71 99.3573 381.655 89.8213 387.056C80.2854 392.457 64.8422 392.372 55.4751 386.803Z" fill="white" stroke="black" stroke-width="0.5" stroke-linejoin="round"/>
<path d="M55.6418 386.882C55.5574 386.882 55.473 386.798 55.473 386.798C50.8316 384.013 48.4688 380.469 48.4688 376.84V383.338C48.4688 386.882 50.7472 390.511 55.473 393.296C55.5574 393.296 55.6418 393.38 55.6418 393.38V386.882Z" fill="black" stroke="black" stroke-width="0.5" stroke-linejoin="round"/>
<path d="M58.2539 394.903V388.32V394.903Z" fill="black"/>
<path d="M58.2539 394.903V388.32" stroke="black" stroke-width="0.5" stroke-linejoin="round"/>
<path d="M61.0391 395.996V389.414V395.996Z" fill="black"/>
<path d="M61.0391 395.996V389.414" stroke="black" stroke-width="0.5" stroke-linejoin="round"/>
<path opacity="0.5" fill-rule="evenodd" clip-rule="evenodd" d="M48.5793 375.607C47.9471 379.591 50.23 383.718 55.4712 386.806C60.4944 389.793 67.2649 391.203 73.9347 391.035C75.0081 387.012 72.902 382.713 67.59 379.559C62.4265 376.519 55.3756 375.201 48.5793 375.607Z" fill="#D1D1D1"/>
<path d="M55.4751 386.803C46.0235 381.233 46.1923 372.288 55.7282 366.887C65.2642 361.486 80.7073 361.57 90.0745 367.14C99.5261 372.71 99.3573 381.655 89.8213 387.056C80.2854 392.457 64.8422 392.372 55.4751 386.803Z" stroke="black" stroke-width="0.5" stroke-linejoin="round"/>
<path d="M86.6763 372.414V375.598C86.6763 377.639 85.3209 379.697 82.6429 381.248C77.2378 384.4 68.4363 384.4 62.9822 381.248C60.2225 379.68 58.8672 377.59 58.8672 375.516L58.8835 372.332C58.8835 374.406 60.2389 376.48 62.9822 378.064C68.4363 381.215 77.2378 381.215 82.6429 378.064C85.3209 376.496 86.6763 374.455 86.6763 372.414Z" fill="#E8E8E8" stroke="black" stroke-width="0.5" stroke-linejoin="round"/>
<path d="M86.6671 372.407C86.6797 367.961 80.4683 364.339 72.7936 364.317C65.1188 364.296 58.887 367.882 58.8744 372.328C58.8618 376.775 65.0732 380.397 72.7479 380.418C80.4227 380.44 86.6545 376.853 86.6671 372.407Z" fill="white" stroke="black" stroke-width="0.5" stroke-linejoin="round"/>
<path d="M83.1633 366.418L83.1466 369.676C83.1466 371.212 82.1443 372.732 80.1232 373.902C76.0809 376.257 69.4997 376.257 65.4407 373.902C63.3861 372.716 62.3672 371.162 62.3672 369.625L62.3839 366.352C62.3839 367.905 63.4028 369.458 65.4574 370.628C69.5331 372.983 76.0976 372.983 80.1399 370.628C82.1443 369.475 83.1466 367.938 83.1633 366.418Z" fill="#E8E8E8" stroke="black" stroke-width="0.5" stroke-linejoin="round"/>
<path d="M80.0924 362.13C84.1681 364.485 84.1848 368.293 80.1425 370.632C76.1002 372.97 69.519 372.987 65.46 370.632C61.3843 368.293 61.3676 364.485 65.4099 362.13C69.4522 359.774 76.0334 359.774 80.0924 362.13Z" fill="white" stroke="black" stroke-width="0.5" stroke-linejoin="round"/>
<path d="M69.2344 367.409C67.2934 366.227 67.2934 364.371 69.3188 363.273C71.3441 362.176 74.4665 362.176 76.4918 363.358C78.4328 364.539 78.4328 366.396 76.4074 367.493C74.3821 368.59 71.2597 368.59 69.2344 367.409Z" fill="black" stroke="black" stroke-width="0.5" stroke-linejoin="round"/>
<path d="M72.8607 293.73C70.9198 293.73 69.3164 295.334 69.3164 297.275V363.182C69.3164 363.267 69.3164 363.267 69.3164 363.267V367.486C71.2573 368.583 74.3797 368.583 76.4051 367.486V297.19C76.4051 295.334 74.8017 293.73 72.8607 293.73Z" fill="white" stroke="black" stroke-width="0.5" stroke-linejoin="round"/>
<path opacity="0.2" d="M72.8607 314.051C70.9198 314.051 69.3164 315.654 69.3164 317.595V330.675C70.4135 330.844 71.5949 331.013 72.7764 331.013C74.0422 331.013 75.2236 330.844 76.4051 330.675V317.595C76.4051 315.654 74.8017 314.051 72.8607 314.051Z" fill="black"/>
<path d="M72.1091 323.085C80.9169 323.448 88.3514 316.602 88.7146 307.794C89.0778 298.987 82.2321 291.552 73.4244 291.189C64.6166 290.826 57.1821 297.671 56.8189 306.479C56.4558 315.287 63.3014 322.721 72.1091 323.085Z" fill="#25E896" stroke="black" stroke-width="0.5" stroke-linejoin="round"/>
<path d="M73.1992 296.684C78.9563 296.921 83.4609 301.813 83.2235 307.57" stroke="white" stroke-width="4" stroke-miterlimit="10" stroke-linecap="round"/>
<path d="M72.1091 323.085C80.9169 323.448 88.3514 316.602 88.7146 307.794C89.0778 298.987 82.2321 291.552 73.4244 291.189C64.6166 290.826 57.1821 297.671 56.8189 306.479C56.4558 315.287 63.3014 322.721 72.1091 323.085Z" stroke="black" stroke-width="0.5" stroke-linejoin="round"/>
<path opacity="0.2" d="M76.1512 316.757C67.3501 316.394 60.498 308.952 60.861 300.151C60.9264 298.563 61.2539 297.052 61.711 295.613C58.8805 298.346 56.999 302.179 56.8244 306.414C56.4615 315.216 63.3135 322.657 72.1146 323.02C78.8643 323.298 84.7933 319.367 87.3549 313.507C86.7485 313.747 86.1447 313.921 85.541 314.095C82.8811 315.907 79.5922 316.899 76.1512 316.757Z" fill="black"/>
<path opacity="0.2" fill-rule="evenodd" clip-rule="evenodd" d="M213.016 199.406L331.683 267.917L304.152 283.812L423.019 352.253L352.921 392.727L234.051 324.284L213.016 336.428L94.2812 267.917L213.016 199.406Z" fill="#38C076"/>
<path d="M212.002 179.54L107.613 119.271L212.638 58.6146L212.002 179.54Z" fill="white" stroke="black" stroke-width="0.826667"/>
<path fill-rule="evenodd" clip-rule="evenodd" d="M212.986 51.0586L95.6289 118.841L212.986 186.558V51.0586Z" fill="white" stroke="black" stroke-width="0.5" stroke-linejoin="round"/>
<path fill-rule="evenodd" clip-rule="evenodd" d="M330.277 118.841L212.986 51.0586L95.6289 118.841L212.986 186.558L330.277 118.841Z" stroke="black" stroke-width="0.5" stroke-linejoin="round"/>
<path fill-rule="evenodd" clip-rule="evenodd" d="M212.92 186.552L95.6289 118.836V254.335L212.986 322.118V186.619L212.92 186.552Z" stroke="black" stroke-width="0.5" stroke-linejoin="round"/>
<path fill-rule="evenodd" clip-rule="evenodd" d="M330.279 118.848L212.988 186.564V186.63V224.31V322.13L330.346 254.347V157.59V118.848H330.279Z" fill="white"/>
<path fill-rule="evenodd" clip-rule="evenodd" d="M330.279 118.848L212.988 186.564V186.63V224.31V322.13L330.346 254.347V157.59V118.848H330.279Z" stroke="black" stroke-width="0.5" stroke-linejoin="round"/>
<path d="M241.641 320.913L352.296 385.245L428.607 341.184L317.952 276.852L241.641 320.913Z" fill="#009BBD" stroke="black" stroke-width="0.5" stroke-miterlimit="10"/>
<path d="M241.641 314.788L352.296 379.12L428.607 335.059L317.952 270.727L241.641 314.788Z" fill="#009BBD" stroke="black" stroke-width="0.5" stroke-miterlimit="10"/>
<path d="M241.641 308.924L352.296 373.257L428.607 329.196L317.952 264.863L241.641 308.924Z" fill="#009BBD" stroke="black" stroke-width="0.5" stroke-miterlimit="10"/>
<path d="M241.645 303.065L352.3 367.397L428.611 323.253L317.956 259.004L241.645 303.065Z" fill="white" stroke="black" stroke-width="0.5" stroke-linejoin="round"/>
<path opacity="0.5" fill-rule="evenodd" clip-rule="evenodd" d="M328.013 267.491L316.012 260.523L264.902 290.034L276.943 297.034L328.013 267.491Z" fill="#CCCCCC"/>
<path d="M358.433 314.566L316.324 338.892L352.301 359.81L394.41 335.485L358.433 314.566Z" fill="white" stroke="black" stroke-width="0.5" stroke-linejoin="round"/>
<path fill-rule="evenodd" clip-rule="evenodd" d="M376.381 298.914L416.93 322.491L400.076 332.227L359.527 308.65L376.381 298.914Z" fill="white"/>
<path d="M376.381 298.914L376.507 298.698C376.429 298.653 376.334 298.653 376.256 298.698L376.381 298.914ZM416.93 322.491L417.055 322.707C417.133 322.663 417.18 322.58 417.18 322.491C417.18 322.402 417.133 322.32 417.056 322.275L416.93 322.491ZM400.076 332.227L399.951 332.443C400.028 332.488 400.124 332.488 400.201 332.443L400.076 332.227ZM359.527 308.65L359.402 308.434C359.325 308.478 359.277 308.561 359.277 308.65C359.277 308.739 359.325 308.821 359.402 308.866L359.527 308.65ZM376.256 299.13L416.805 322.707L417.056 322.275L376.507 298.698L376.256 299.13ZM400.201 332.443L417.055 322.707L416.805 322.274L399.951 332.01L400.201 332.443ZM359.402 308.866L399.951 332.443L400.202 332.011L359.653 308.434L359.402 308.866ZM376.256 298.698L359.402 308.434L359.652 308.867L376.506 299.131L376.256 298.698Z" fill="black"/>
<path d="M343.749 299.031L296.465 326.346" stroke="black" stroke-width="0.5" stroke-linejoin="round"/>
<path d="M338.818 347.273C332.89 343.798 332.958 338.143 338.954 334.736C345.018 331.329 354.694 331.397 360.622 334.872C366.55 338.347 366.482 344.003 360.486 347.409C354.489 350.884 344.814 350.816 338.818 347.273Z" fill="#F4FC83" stroke="black" stroke-width="0.5" stroke-miterlimit="10"/>
<path d="M348.699 335.9C345.769 334.196 345.837 331.471 348.767 329.767C351.697 328.064 356.467 328.132 359.328 329.836C362.258 331.539 362.19 334.265 359.26 335.968C356.33 337.671 351.629 337.603 348.699 335.9Z" fill="#009BBD" stroke="black" stroke-width="0.5" stroke-linejoin="round"/>
<path d="M354.49 326.772L352.719 322.956L359.532 319.004" stroke="black" stroke-width="0.5" stroke-linejoin="round"/>
<path d="M374.449 343.047L386.918 335.824" stroke="black" stroke-width="0.5" stroke-linejoin="round"/>
<path d="M374.316 338.956L383.311 333.777" stroke="black" stroke-width="0.5" stroke-linejoin="round"/>
<path d="M355.372 304.145V304.148L307.773 331.644" stroke="black" stroke-width="0.5" stroke-linejoin="round"/>
<path d="M330.221 118.893L212.989 51.1445L95.6914 118.893L212.989 186.575L330.221 118.893Z" fill="white" stroke="black" stroke-width="0.5" stroke-linejoin="round"/>
<path d="M107.005 119.193L213.274 57.8182L318.898 118.801L212.63 180.175L107.005 119.193Z" fill="#F5F5F5"/>
<path d="M107.013 119.204L213.282 57.83L212.638 180.187L107.013 119.204Z" fill="white"/>
<path d="M106.564 119.223L213.258 57.637L319.277 118.785L212.583 180.371L106.564 119.223Z" stroke="black" stroke-width="0.5" stroke-linejoin="round"/>
<path opacity="0.1" fill-rule="evenodd" clip-rule="evenodd" d="M268.288 99.7629L254.517 94.9664L258.906 97.5454L257.383 101.728L268.288 99.7629ZM232.845 106.161L232.833 106.155L236.4 96.3622L219.402 86.6812L226.796 69.142L231.527 70.5712L213.364 60.0849L125.723 110.692C140.062 115.467 154.711 131.052 154.711 131.052L199.582 149.632L195.375 153.137L209.047 166.459L199.582 172.769C199.582 172.769 89.804 146.049 103.771 118.883C108.382 109.914 115.5 108.193 122.968 109.913L213.312 57.7344L239.955 73.1177L248.175 75.6013L262.254 83.7341L275.914 93.8803L280.206 96.3582L284.341 95.0912L294.243 99.4106L292.773 103.614L319.225 118.887L316.677 120.194L316.545 120.115L279.521 141.498L279.262 142.24L266.265 149.63L232.845 106.161ZM212.949 187.033L254.259 162.316L233.368 140.151L212.949 104.774L212.949 187.033Z" fill="black"/>
<path opacity="0.2" d="M301.752 337.687L332.972 300.99L301.752 268.457L242.191 303.061L301.752 337.687Z" fill="#38C076"/>
<mask id="path-67-outside-1" maskUnits="userSpaceOnUse" x="154.715" y="130.598" width="54" height="40" fill="black">
<rect fill="white" x="154.715" y="130.598" width="54" height="40"/>
<path fill-rule="evenodd" clip-rule="evenodd" d="M194.782 169.842L155.715 147.286C160.147 140.164 166.848 134.601 174.9 131.598C180.391 136.614 185.875 141.626 191.359 146.639C196.843 151.652 202.328 156.665 207.819 161.682C202.897 163.518 198.483 166.317 194.782 169.842Z"/>
</mask>
<path fill-rule="evenodd" clip-rule="evenodd" d="M194.782 169.842L155.715 147.286C160.147 140.164 166.848 134.601 174.9 131.598C180.391 136.614 185.875 141.626 191.359 146.639C196.843 151.652 202.328 156.665 207.819 161.682C202.897 163.518 198.483 166.317 194.782 169.842Z" fill="#9DE9D7"/>
<path d="M194.782 169.842L194.532 170.275C194.724 170.385 194.966 170.357 195.127 170.204L194.782 169.842ZM155.715 147.286L155.29 147.022C155.219 147.137 155.197 147.276 155.23 147.408C155.263 147.539 155.348 147.651 155.465 147.719L155.715 147.286ZM174.9 131.598L175.237 131.229C175.099 131.102 174.901 131.064 174.725 131.129L174.9 131.598ZM191.359 146.639L191.021 147.008L191.359 146.639ZM207.819 161.682L207.993 162.15C208.157 162.089 208.276 161.948 208.31 161.777C208.343 161.606 208.284 161.43 208.156 161.313L207.819 161.682ZM195.032 169.409L155.965 146.853L155.465 147.719L194.532 170.275L195.032 169.409ZM174.725 131.129C166.569 134.172 159.781 139.807 155.29 147.022L156.139 147.55C160.514 140.521 167.128 135.031 175.075 132.066L174.725 131.129ZM191.696 146.27C186.212 141.257 180.728 136.245 175.237 131.229L174.563 131.967C180.053 136.983 185.537 141.995 191.021 147.008L191.696 146.27ZM208.156 161.313C202.665 156.296 197.18 151.283 191.696 146.27L191.021 147.008C196.506 152.021 201.99 157.034 207.481 162.051L208.156 161.313ZM195.127 170.204C198.78 166.725 203.136 163.962 207.993 162.15L207.644 161.213C202.658 163.073 198.186 165.909 194.437 169.479L195.127 170.204Z" fill="black" mask="url(#path-67-outside-1)"/>
<path opacity="0.5" fill-rule="evenodd" clip-rule="evenodd" d="M317.954 205.979C317.902 205.696 317.851 205.412 317.8 205.128L312.696 176.305L229.418 224.14L234.62 250.688C237.063 263.156 241.147 275.117 246.684 286.298L317.954 245.134V205.979Z" fill="#CCCCCC"/>
<path fill-rule="evenodd" clip-rule="evenodd" d="M322.418 170.183L322.516 165.473L229.547 219.048L229.445 223.907L322.418 170.183Z" fill="black"/>
<path d="M322.516 165.473L322.766 165.478C322.768 165.388 322.721 165.303 322.644 165.258C322.566 165.212 322.47 165.211 322.392 165.256L322.516 165.473ZM322.418 170.183L322.543 170.399C322.619 170.355 322.666 170.275 322.668 170.188L322.418 170.183ZM229.547 219.048L229.422 218.832C229.346 218.876 229.298 218.956 229.297 219.043L229.547 219.048ZM229.445 223.907L229.195 223.901C229.193 223.992 229.24 224.076 229.318 224.122C229.396 224.168 229.492 224.168 229.57 224.123L229.445 223.907ZM322.266 165.467L322.168 170.178L322.668 170.188L322.766 165.478L322.266 165.467ZM229.671 219.265L322.641 165.689L322.392 165.256L229.422 218.832L229.671 219.265ZM229.297 219.043L229.195 223.901L229.695 223.912L229.796 219.054L229.297 219.043ZM322.293 169.966L229.32 223.69L229.57 224.123L322.543 170.399L322.293 169.966Z" fill="black"/>
<path d="M316.857 170.707L334.234 226.737C342.255 252.597 357.264 275.74 377.604 293.61L302.031 337.908C280.534 321.859 264.106 299.968 254.705 274.843L233.852 219.11L316.857 170.707Z" fill="white"/>
<path d="M316.857 170.707L317.096 170.633C317.073 170.56 317.019 170.502 316.948 170.474C316.876 170.446 316.797 170.453 316.731 170.491L316.857 170.707ZM233.852 219.11L233.726 218.894C233.62 218.955 233.575 219.083 233.617 219.197L233.852 219.11ZM377.478 293.394L301.904 337.692L302.157 338.123L377.731 293.826L377.478 293.394ZM233.977 219.326L316.983 170.923L316.731 170.491L233.726 218.894L233.977 219.326ZM316.618 170.781L333.996 226.811L334.473 226.663L317.096 170.633L316.618 170.781ZM254.939 274.755L234.086 219.022L233.617 219.197L254.471 274.93L254.939 274.755ZM302.18 337.707C280.722 321.688 264.323 299.835 254.939 274.755L254.471 274.93C263.889 300.1 280.346 322.031 301.881 338.108L302.18 337.707ZM333.996 226.811C342.03 252.715 357.064 275.897 377.439 293.798L377.769 293.422C357.463 275.582 342.48 252.479 334.473 226.663L333.996 226.811Z" fill="black"/>
<path opacity="0.1" d="M319.1 177.701L316.343 170.664L233.93 218.207L236.791 225.906L319.1 177.701Z" fill="black"/>
<path d="M293.657 215.004L278.06 224.052L256 236.805" fill="#B5F4FD"/>
<path d="M293.657 215.004L278.06 224.052L256 236.805" stroke="black" stroke-width="0.5" stroke-linejoin="round"/>
<path d="M317.289 156.004L224.039 209.991" stroke="black" stroke-width="0.5" stroke-linejoin="round"/>
<path d="M312.299 221.215L291.704 233.106L262.578 249.91" fill="#B5F4FD"/>
<path d="M312.299 221.215L291.704 233.106L262.578 249.91" stroke="black" stroke-width="0.5" stroke-linejoin="round"/>
<path fill-rule="evenodd" clip-rule="evenodd" d="M266.773 273.632L328.125 238.141L328.253 238.553C334.367 258.331 345.834 276.032 361.386 289.695L301.65 324.835C286.411 311.67 274.726 294.886 267.669 276.025L266.773 273.632Z" fill="#B5F4FD"/>
<path d="M266.773 273.632L266.648 273.415C266.543 273.476 266.497 273.605 266.539 273.719L266.773 273.632ZM328.125 238.141L328.364 238.067C328.341 237.994 328.287 237.936 328.216 237.908C328.145 237.88 328.066 237.886 328 237.924L328.125 238.141ZM328.253 238.553L328.014 238.627V238.627L328.253 238.553ZM361.386 289.695L361.513 289.91C361.582 289.869 361.627 289.798 361.635 289.718C361.643 289.638 361.611 289.56 361.551 289.507L361.386 289.695ZM301.65 324.835L301.487 325.024C301.568 325.095 301.684 325.105 301.777 325.051L301.65 324.835ZM267.669 276.025L267.903 275.937L267.669 276.025ZM266.899 273.848L328.25 238.357L328 237.924L266.648 273.415L266.899 273.848ZM327.886 238.214L328.014 238.627L328.491 238.48L328.364 238.067L327.886 238.214ZM328.014 238.627C334.141 258.449 345.635 276.189 361.221 289.882L361.551 289.507C346.034 275.874 334.592 258.213 328.491 238.48L328.014 238.627ZM361.259 289.479L301.523 324.62L301.777 325.051L361.513 289.91L361.259 289.479ZM301.814 324.646C286.606 311.508 274.945 294.759 267.903 275.937L267.435 276.112C274.507 295.013 286.216 311.832 301.487 325.024L301.814 324.646ZM267.903 275.937L267.008 273.544L266.539 273.719L267.435 276.112L267.903 275.937Z" fill="black"/>
<path d="M307.383 250.138L307.258 249.922C307.152 249.983 307.106 250.113 307.149 250.227L307.383 250.138ZM341.592 301.309L341.421 301.491C341.502 301.567 341.623 301.581 341.719 301.525L341.592 301.309ZM361.388 289.706L361.514 289.922C361.583 289.881 361.629 289.81 361.636 289.73C361.644 289.65 361.613 289.572 361.553 289.519L361.388 289.706ZM328.254 238.565L328.015 238.639L328.015 238.639L328.254 238.565ZM328.123 238.141L328.362 238.067C328.339 237.994 328.285 237.936 328.214 237.908C328.143 237.88 328.064 237.886 327.998 237.924L328.123 238.141ZM307.149 250.227C314.543 269.692 326.264 287.222 341.421 301.491L341.764 301.127C326.662 286.91 314.984 269.443 307.617 250.05L307.149 250.227ZM361.261 289.491L341.466 301.094L341.719 301.525L361.514 289.922L361.261 289.491ZM328.015 238.639C334.143 258.461 345.636 276.201 361.223 289.894L361.553 289.519C346.035 275.886 334.593 258.225 328.493 238.491L328.015 238.639ZM327.884 238.214L328.015 238.639L328.493 238.491L328.362 238.067L327.884 238.214ZM307.508 250.355L328.248 238.357L327.998 237.924L307.258 249.922L307.508 250.355Z" fill="black"/>
<path d="M301.768 324.569L295.805 279.413L328.18 287.081V239.086" stroke="black" stroke-width="0.5" stroke-linejoin="round"/>
<path d="M287.289 261.758C294.023 281.105 306.291 299.204 321.168 313.628" stroke="black" stroke-width="0.5" stroke-linejoin="round"/>
<path d="M287.445 310.142L347.636 275.258" stroke="black" stroke-width="0.5" stroke-linejoin="round"/>
<path d="M274.828 291.707L335.127 256.824" stroke="black" stroke-width="0.5" stroke-linejoin="round"/>
<path d="M302.012 324.481L306.764 298.052L315.511 268.582L327.977 238.461" stroke="black" stroke-width="0.5" stroke-linejoin="round"/>
<path d="M305.502 300.596C303.917 299.646 303.46 297.781 304.345 296.424C305.303 295.026 307.364 294.75 308.909 295.627C310.495 296.577 310.951 298.442 310.067 299.799C309.149 301.271 307.088 301.547 305.502 300.596Z" fill="black" stroke="black" stroke-width="0.5" stroke-linejoin="round"/>
<path d="M312.452 269.237C311.848 267.49 312.698 265.768 314.248 265.297C315.88 264.842 317.637 265.956 318.256 267.621C318.86 269.368 318.011 271.09 316.461 271.561C314.812 272.098 313.056 270.984 312.452 269.237Z" fill="black" stroke="black" stroke-width="0.5" stroke-linejoin="round"/>
<path d="M293.002 280.17C292.523 278.384 293.492 276.726 295.071 276.366C296.731 276.028 298.405 277.262 298.906 278.966C299.385 280.752 298.417 282.41 296.837 282.77C295.155 283.19 293.482 281.955 293.002 280.17Z" fill="#B5F4FD" stroke="black" stroke-width="0.5" stroke-linejoin="round"/>
<path d="M326.362 289.01C324.776 288.06 324.32 286.195 325.204 284.838C326.163 283.441 328.224 283.164 329.769 284.041C331.355 284.991 331.811 286.856 330.926 288.213C330.009 289.685 327.947 289.961 326.362 289.01Z" fill="#B5F4FD" stroke="black" stroke-width="0.5" stroke-linejoin="round"/>
<path d="M229.417 219.06V223.896L224.383 210.316L229.417 219.06Z" fill="black" stroke="black" stroke-width="0.5" stroke-linejoin="round"/>
<path d="M224.223 210.014L229.468 219.075L322.481 164.962L317.3 155.965" stroke="black" stroke-width="0.5" stroke-linejoin="round"/>
<path fill-rule="evenodd" clip-rule="evenodd" d="M259.016 159.826L219.59 182.597L224.696 129.754L259.992 149.732L259.016 159.826Z" fill="#F4FC83"/>
<path d="M259.016 159.826L259.142 160.043C259.211 160.002 259.258 159.931 259.265 159.85L259.016 159.826ZM219.59 182.597L219.341 182.573C219.332 182.666 219.376 182.756 219.455 182.807C219.533 182.858 219.634 182.86 219.715 182.813L219.59 182.597ZM224.696 129.754L224.819 129.536C224.746 129.495 224.656 129.493 224.581 129.532C224.506 129.571 224.455 129.646 224.447 129.73L224.696 129.754ZM259.992 149.732L260.241 149.756C260.25 149.657 260.201 149.563 260.115 149.514L259.992 149.732ZM258.891 159.61L219.465 182.38L219.715 182.813L259.142 160.043L258.891 159.61ZM224.447 129.73L219.341 182.573L219.839 182.621L224.945 129.778L224.447 129.73ZM260.115 149.514L224.819 129.536L224.573 129.971L259.869 149.949L260.115 149.514ZM259.265 159.85L260.241 149.756L259.743 149.708L258.768 159.802L259.265 159.85Z" fill="black"/>
<path fill-rule="evenodd" clip-rule="evenodd" d="M212.985 51.1406L330.217 118.889L212.985 186.571L95.6875 118.889L212.985 51.1406ZM213.273 57.826L107.005 119.2L212.63 180.183L318.898 118.809L213.273 57.826Z" fill="white"/>
<path d="M330.217 118.889L330.342 119.106C330.419 119.061 330.467 118.978 330.467 118.889C330.467 118.8 330.419 118.717 330.342 118.673L330.217 118.889ZM212.985 51.1406L213.11 50.9242C213.033 50.8795 212.938 50.8794 212.86 50.9241L212.985 51.1406ZM212.985 186.571L212.86 186.788C212.938 186.832 213.033 186.832 213.11 186.788L212.985 186.571ZM95.6875 118.889L95.5625 118.673C95.4851 118.717 95.4375 118.8 95.4375 118.889C95.4375 118.979 95.4852 119.061 95.5626 119.106L95.6875 118.889ZM107.005 119.2L106.88 118.984C106.803 119.029 106.755 119.111 106.755 119.2C106.755 119.29 106.803 119.372 106.88 119.417L107.005 119.2ZM213.273 57.826L213.398 57.6095C213.321 57.5648 213.226 57.5648 213.148 57.6095L213.273 57.826ZM212.63 180.183L212.505 180.4C212.582 180.444 212.678 180.444 212.755 180.4L212.63 180.183ZM318.898 118.809L319.023 119.025C319.101 118.98 319.148 118.898 319.148 118.809C319.148 118.719 319.101 118.637 319.023 118.592L318.898 118.809ZM330.342 118.673L213.11 50.9242L212.86 51.3571L330.092 119.106L330.342 118.673ZM213.11 186.788L330.342 119.106L330.092 118.673L212.86 186.355L213.11 186.788ZM95.5626 119.106L212.86 186.788L213.11 186.355L95.8124 118.673L95.5626 119.106ZM212.86 50.9241L95.5625 118.673L95.8125 119.106L213.11 51.3571L212.86 50.9241ZM107.13 119.417L213.399 58.0425L213.148 57.6095L106.88 118.984L107.13 119.417ZM212.755 179.967L107.13 118.984L106.88 119.417L212.505 180.4L212.755 179.967ZM318.773 118.592L212.505 179.967L212.755 180.4L319.023 119.025L318.773 118.592ZM213.148 58.0425L318.773 119.025L319.023 118.592L213.398 57.6095L213.148 58.0425Z" fill="black"/>
<path d="M105.001 87.8963C104.589 81.0563 104.138 73.5692 88.2318 73.5692C88.2318 73.5692 78.581 73.7531 73.0202 66.9055C66.9999 59.5985 65.897 48.9825 65.897 48.9825L67.7812 50.4072L69.6654 46.8226L71.5496 48.2472L73.4338 44.6626L75.318 46.0873L77.2023 42.5027L79.0865 43.9273L80.9707 40.3427L82.8549 41.7674L84.7391 38.1828L86.6233 39.6074L88.5075 36.0228L90.3917 37.4475L92.276 33.8629L94.1602 35.2875L96.0444 31.7029L97.9286 33.1276L99.8128 29.543C99.8128 29.543 102.938 52.0157 120.539 52.6591C132.914 53.1184 133.645 60.4563 134.322 67.2569C134.796 72.0231 135.245 76.5255 139.657 78.2108C154.637 83.9024 155.989 97.1204 155.971 97.1299L155.989 97.1204L157.246 148.195L126.257 130.236C126.207 129.889 126.162 113.248 126.117 112.878C125.551 108.297 124.79 102.137 110.934 98.4776C105.554 97.0667 105.287 92.6369 105.001 87.8963Z" fill="white" stroke="black" stroke-width="0.5" stroke-linejoin="round"/>
<path opacity="0.1" fill-rule="evenodd" clip-rule="evenodd" d="M148.479 142.817L157.008 147.772L156.711 138.316L148.479 142.817Z" fill="black"/>
<mask id="mask0" mask-type="alpha" maskUnits="userSpaceOnUse" x="67" y="31" width="86" height="115">
<path d="M112.945 81.6955C112.532 74.8555 112.081 67.3684 96.175 67.3684C96.175 67.3684 86.5242 67.5522 80.9635 60.7047C74.9432 53.3976 74.0952 43.1384 74.0952 43.1384L67.7742 50.4074L69.6585 46.8228L71.5427 48.2474L73.4269 44.6628L75.3111 46.0875L77.1954 42.5029L79.0792 43.9275L80.9635 40.3429L82.8477 41.7676L84.7319 38.183L86.6161 39.6076L88.5003 36.023L90.3845 37.4477L92.2687 33.8631L94.153 35.2877L96.0372 31.7031L97.9214 33.1278L96.4304 33.8631C96.4304 33.8631 98.6133 55.9681 116.215 56.6115C128.59 57.0708 129.32 64.4087 129.997 71.2093C130.472 75.9756 130.92 80.4779 135.333 82.1633C150.313 87.8549 151.664 100.13 151.664 101.073L152.922 145.473L134.25 134.737C134.2 134.39 134.106 107.047 134.06 106.677C133.494 102.096 132.733 95.9359 118.878 92.2767C113.497 90.8658 113.23 86.436 112.945 81.6955Z" fill="#FF7E7E"/>
</mask>
<g mask="url(#mask0)">
<path d="M88 53.3971L100.96 45.9062" stroke="black" stroke-width="0.5" stroke-linejoin="round"/>
<path d="M78.2188 59.049L83.8254 55.832" stroke="black" stroke-width="0.5" stroke-linejoin="round"/>
<path d="M86.0781 66.7265L108.781 53.6289" stroke="black" stroke-width="0.5" stroke-linejoin="round"/>
<path d="M116.543 59.0481L120.863 56.5664" stroke="black" stroke-width="0.5" stroke-linejoin="round"/>
<path d="M98.1211 69.712L112.919 61.1641" stroke="black" stroke-width="0.5" stroke-linejoin="round"/>
<path d="M115.992 70.3094L129.182 62.7266" stroke="black" stroke-width="0.5" stroke-linejoin="round"/>
<path d="M106.438 75.8773L110.941 73.2578" stroke="black" stroke-width="0.5" stroke-linejoin="round"/>
<path d="M109.84 84.2842L132.588 71.1406" stroke="black" stroke-width="0.5" stroke-linejoin="round"/>
<path d="M132.449 82.1687L136.172 80.0547" stroke="black" stroke-width="0.5" stroke-linejoin="round"/>
<path d="M113.426 93.1943L127.994 84.7383" stroke="black" stroke-width="0.5" stroke-linejoin="round"/>
<path d="M120.77 99.3987L153.874 80.3164" stroke="black" stroke-width="0.5" stroke-linejoin="round"/>
<path d="M121.785 98.8049L126.151 96.2773" stroke="black" stroke-width="0.5" stroke-linejoin="round"/>
<path d="M129.18 106.246L151.928 93.1484" stroke="black" stroke-width="0.5" stroke-linejoin="round"/>
<path d="M130.539 117.345L142.051 110.718M153.562 104.09L147.806 107.404" stroke="black" stroke-width="0.5" stroke-linejoin="round"/>
<path d="M132.203 126.452L137.544 123.377M153.565 114.152L140.214 121.839" stroke="black" stroke-width="0.5" stroke-linejoin="round"/>
<path d="M135.398 135.525L154.005 124.812" stroke="black" stroke-width="0.5" stroke-linejoin="round"/>
<path d="M144.277 140.703L154.006 135.102" stroke="black" stroke-width="0.5" stroke-linejoin="round"/>
</g>
<path d="M225.923 39.2461L263.056 60.3942L248.946 97.9434L211.812 76.7945L225.923 39.2461Z" fill="white" stroke="black" stroke-width="0.5" stroke-linejoin="round"/>
<path d="M153.008 44.5175L172.349 88.7064L177.568 89.2747L158.227 45.0858L153.008 44.5175Z" fill="#25E896" stroke="black" stroke-width="0.5" stroke-linejoin="round"/>
<path d="M177.564 89.2758L180.626 85.0569L161.305 40.8594L158.223 45.0868L177.564 89.2758Z" fill="#38C076" stroke="black" stroke-width="0.5" stroke-linejoin="round"/>
<path d="M158.228 45.0866L161.309 40.8592L156.09 40.2909L153.009 44.5183L158.228 45.0866Z" fill="#25E896" stroke="black" stroke-width="0.5" stroke-linejoin="round"/>
<path d="M165.164 54.1651L180.665 89.6438L185.875 90.1925L170.364 54.742L165.164 54.1651Z" fill="#38C076" stroke="black" stroke-width="0.5" stroke-linejoin="round"/>
<path d="M185.872 90.1858L188.962 85.9779L173.441 50.5078L170.36 54.7352L185.872 90.1858Z" fill="#2DAC67" stroke="black" stroke-width="0.5" stroke-linejoin="round"/>
<path d="M170.364 54.7351L173.446 50.5076L168.227 49.9393L165.165 54.1581L170.364 54.7351Z" fill="#38C076" stroke="black" stroke-width="0.5" stroke-linejoin="round"/>
<path d="M176.754 62.5565L188.997 90.5381L194.207 91.0868L181.973 63.1248L176.754 62.5565Z" fill="#B4F7E7" stroke="black" stroke-width="0.5" stroke-linejoin="round"/>
<path d="M194.211 91.091L197.281 86.8917L185.039 58.9102L181.977 63.129L194.211 91.091Z" fill="#9DE9D7" stroke="black" stroke-width="0.5" stroke-linejoin="round"/>
<path d="M181.969 63.1327L185.031 58.9139L179.84 58.3565L176.75 62.5644L181.969 63.1327Z" fill="#B4F7E7" stroke="black" stroke-width="0.5" stroke-linejoin="round"/>
<path d="M188.258 70.7011L197.326 91.4284L202.545 91.9967L193.477 71.2694L188.258 70.7011Z" fill="#F1FFFC" stroke="black" stroke-width="0.5" stroke-linejoin="round"/>
<path d="M202.537 92.0009L205.599 87.7821L196.531 67.0547L193.469 71.2735L202.537 92.0009Z" fill="#D0EEE8" stroke="black" stroke-width="0.5" stroke-linejoin="round"/>
<path d="M193.474 71.2772L196.536 67.0584L191.317 66.4901L188.255 70.7089L193.474 71.2772Z" fill="#F1FFFC" stroke="black" stroke-width="0.5" stroke-linejoin="round"/>
<path d="M237.255 77.6055L258.364 90.0087L250.343 112.031L229.234 99.6273L237.255 77.6055Z" fill="#F4FC83" stroke="black" stroke-width="0.5" stroke-linejoin="round"/>
<path fill-rule="evenodd" clip-rule="evenodd" d="M229.824 99.7022L250.212 111.682L257.412 91.9141L246.619 95.3637L248.367 104.702L229.824 99.7022Z" fill="#909C00"/>
<path d="M255.848 93.9372L271.436 133.964L322.867 105.955L307.213 65.8233L255.848 93.9372Z" fill="#F4FC83" stroke="black" stroke-width="0.5" stroke-linejoin="round"/>
<path d="M306.887 73.5677L275.041 91.2763L272.375 87.062L257.619 95.1385L258.58 100.43L277.656 130.363L322.649 105.86L306.887 73.5677Z" fill="#909C00"/>
<path fill-rule="evenodd" clip-rule="evenodd" d="M301.986 73.1752L322.873 105.958L271.442 133.966L249.591 99.6784L246.859 95.3924L246.867 95.3969L262.892 86.6256L266.601 92.4454L301.986 73.1752Z" fill="#F4FC83"/>
<path d="M322.873 105.958L323.084 105.823C323.121 105.882 323.132 105.953 323.115 106.02C323.098 106.087 323.053 106.144 322.992 106.177L322.873 105.958ZM301.986 73.1752L301.867 72.9557C301.982 72.8928 302.126 72.9301 302.197 73.0409L301.986 73.1752ZM271.442 133.966L271.562 134.186C271.446 134.249 271.302 134.211 271.231 134.101L271.442 133.966ZM249.591 99.6784L249.801 99.5441L249.801 99.5441L249.591 99.6784ZM246.859 95.3924L246.648 95.5268C246.587 95.4299 246.599 95.3035 246.678 95.2202C246.757 95.1369 246.883 95.1183 246.983 95.175L246.859 95.3924ZM246.867 95.3969L246.987 95.6162C246.911 95.6578 246.819 95.6571 246.744 95.6143L246.867 95.3969ZM262.892 86.6256L262.772 86.4063C262.888 86.3431 263.032 86.3803 263.103 86.4913L262.892 86.6256ZM266.601 92.4454L266.721 92.665C266.605 92.7278 266.461 92.6906 266.39 92.5798L266.601 92.4454ZM322.662 106.092L301.775 73.3096L302.197 73.0409L323.084 105.823L322.662 106.092ZM271.322 133.747L322.753 105.738L322.992 106.177L271.562 134.186L271.322 133.747ZM249.801 99.5441L271.653 133.832L271.231 134.101L249.38 99.8128L249.801 99.5441ZM247.07 95.2581L249.801 99.5441L249.38 99.8128L246.648 95.5268L247.07 95.2581ZM246.744 95.6143L246.736 95.6098L246.983 95.175L246.99 95.1795L246.744 95.6143ZM263.012 86.8449L246.987 95.6162L246.747 95.1776L262.772 86.4063L263.012 86.8449ZM263.103 86.4913L266.812 92.3111L266.39 92.5798L262.682 86.76L263.103 86.4913ZM266.482 92.2259L301.867 72.9557L302.106 73.3948L266.721 92.665L266.482 92.2259Z" fill="black"/>
<path d="M285.392 117.151L287.483 120.433L273.487 128.056L271.395 124.774L285.392 117.151Z" stroke="black" stroke-width="0.5" stroke-linejoin="round"/>
<path d="M303.765 87.5603L279.494 100.778M300.139 81.8689L281.935 91.7823" stroke="black" stroke-width="0.5" stroke-linejoin="round"/>
<path d="M189.476 104.842L189.476 104.842L189.472 104.845C186.415 107.738 185.084 112.827 186.292 119.249C187.499 125.668 190.999 132.253 195.679 137.693C200.36 143.133 206.202 147.407 212.076 149.227L212.079 149.228C217.884 151.084 222.666 150.185 225.722 147.293L225.722 147.293L228.56 144.612C225.511 146.084 221.573 146.239 217.106 144.81C211.088 142.886 205.154 138.512 200.422 133.004C195.69 127.496 192.142 120.833 190.915 114.31C190.001 109.453 190.506 105.279 192.156 102.205L189.476 104.842Z" fill="white" stroke="black" stroke-width="0.5" stroke-linejoin="round"/>
<path d="M203.48 112.077L198.3 116.971C199.737 115.559 202.064 115.133 204.847 116.023C210.413 117.802 215.947 124.133 217.034 130.329L222.213 125.435C221.093 119.346 215.592 112.909 210.027 111.129C207.244 110.24 204.917 110.665 203.48 112.077Z" fill="#D1D1D1" stroke="black" stroke-width="0.5" stroke-linejoin="round"/>
<path d="M215.512 137.212L220.692 132.319C222.129 130.907 222.81 128.435 222.233 125.443L217.053 130.337C217.63 133.328 216.949 135.8 215.512 137.212Z" fill="black" stroke="black" stroke-width="0.5" stroke-linejoin="round"/>
<path d="M221.346 121.638L216.167 126.532" stroke="black" stroke-width="0.5" stroke-linejoin="round"/>
<path d="M219.393 118.728L214.213 123.622" stroke="black" stroke-width="0.5" stroke-linejoin="round"/>
<path d="M190.617 115.339C193.051 128.281 204.712 141.833 216.638 145.647C228.565 149.46 236.219 141.966 233.784 129.024C231.25 116.05 219.59 102.497 207.763 98.7159C195.836 94.9027 188.082 102.365 190.617 115.339ZM222.355 125.37C223.475 131.459 219.932 135.004 214.267 133.193C208.701 131.413 203.167 125.082 202.08 118.887C200.826 112.872 204.469 109.359 210.035 111.138C215.7 112.949 221.135 119.249 222.355 125.37Z" fill="#F4FC83" stroke="black" stroke-width="0.5" stroke-linejoin="round"/>
<path d="M214.223 133.231L216.582 145.619C228.346 149.381 236.093 141.852 233.637 129.084C231.215 116.211 219.65 102.624 207.886 98.8626C195.89 95.1435 188.276 102.598 190.732 115.366C190.859 115.988 190.953 116.717 191.18 117.371L191.212 117.613C191.438 118.268 191.566 118.89 191.759 119.65L202.515 121.111C202.289 120.457 202.062 119.803 201.968 119.075C200.887 112.912 204.511 109.417 210.047 111.188C215.583 112.958 221.088 119.255 222.169 125.418C223.416 131.401 219.793 134.895 214.223 133.231Z" fill="#38C076" stroke="black" stroke-width="0.5" stroke-linejoin="round"/>
<path fill-rule="evenodd" clip-rule="evenodd" d="M212.924 186.544L95.6328 118.828V188.139V254.327L212.99 322.11V186.611L212.924 186.544Z" fill="#E8E8E8" stroke="black" stroke-width="0.5" stroke-linejoin="round"/>
<path d="M202.086 301.891L107.113 247.077V138.094L202.086 192.908V301.891Z" fill="#25E896"/>
<path d="M202.086 301.897L107.113 247.083L202.086 192.914V301.897Z" fill="#38C076"/>
<path d="M107.113 247.083L202.086 192.914" stroke="black" stroke-width="0.5"/>
<path d="M126.12 249.839L110.566 240.891L172.912 175.918L189.546 185.526L126.12 249.839Z" fill="url(#paint0_linear)"/>
<path d="M110.566 223.641L161.33 169.321L153.764 164.938L110.566 208.327V223.641Z" fill="url(#paint1_linear)"/>
<path d="M202.26 302.172L106.957 247.167V137.805L202.26 192.81V302.172Z" stroke="black" stroke-width="0.5" stroke-linejoin="round"/>
<path opacity="0.1" d="M108.921 245.979V139.127L107.113 138.094V247.077L202.086 301.891V299.76L108.921 245.979Z" fill="black"/>
<path fill-rule="evenodd" clip-rule="evenodd" d="M125.98 184.926V222.684L154.661 220.027L125.98 184.926Z" fill="white" fill-opacity="0.8"/>
<path fill-rule="evenodd" clip-rule="evenodd" d="M154.617 219.987L183.25 217.015L154.617 182.121V219.987Z" fill="white" fill-opacity="0.4"/>
<path fill-rule="evenodd" clip-rule="evenodd" d="M154.613 182.101L125.98 184.925L154.613 219.967V182.101Z" fill="white" fill-opacity="0.6"/>
<path fill-rule="evenodd" clip-rule="evenodd" d="M161.246 219.332L183.243 246.095V216.991L161.246 219.332Z" fill="white" fill-opacity="0.2"/>
<path fill-rule="evenodd" clip-rule="evenodd" d="M125.98 222.68L154.661 257.917V220.023L125.98 222.68Z" fill="white"/>
<path d="M431.336 170.226L433.092 169.191L444.006 169.474L442.25 170.477L431.336 170.226Z" fill="black" stroke="black" stroke-width="0.5" stroke-linejoin="round"/>
<path d="M431.364 154.668L445.664 171.352V173.391L431.301 173.485L431.332 170.223L442.246 170.474V170.286L431.364 157.961V154.668Z" fill="black" stroke="black" stroke-width="0.5" stroke-linejoin="round"/>
<path d="M431.363 154.676L433.12 153.641L447.452 170.325L445.664 171.36L431.363 154.676Z" fill="black" stroke="black" stroke-width="0.5" stroke-linejoin="round"/>
<path d="M445.668 171.363L447.456 170.328L447.424 172.367L445.668 173.402V171.363Z" fill="black" stroke="black" stroke-width="0.5" stroke-linejoin="round"/>
<path d="M417.648 170.393L425.113 143.297L427.496 144.677L420.063 171.805L417.648 170.393Z" fill="black" stroke="black" stroke-width="0.5" stroke-linejoin="round"/>
<path d="M425.113 143.285L426.87 142.25L429.284 143.63L427.497 144.665L425.113 143.285Z" fill="black" stroke="black" stroke-width="0.5" stroke-linejoin="round"/>
<path d="M427.495 144.668L429.283 143.633L421.819 170.761L420.062 171.796L427.495 144.668Z" fill="black" stroke="black" stroke-width="0.5" stroke-linejoin="round"/>
<path d="M402.91 147.582L404.698 146.547V146.766L402.91 147.801V147.582Z" fill="black" stroke="black" stroke-width="0.5" stroke-linejoin="round"/>
<path d="M402.91 147.797L404.698 146.762L415.58 159.087L413.824 160.122L402.91 147.797Z" fill="black" stroke="black" stroke-width="0.5" stroke-linejoin="round"/>
<path d="M413.82 160.129L415.577 159.094V162.387L413.789 163.39L413.82 160.129Z" fill="black" stroke="black" stroke-width="0.5" stroke-linejoin="round"/>
<path d="M399.484 146.742V144.704L413.848 144.578V147.84L402.903 147.589V147.808L413.817 160.133L413.785 163.395L399.484 146.742Z" fill="black" stroke="black" stroke-width="0.5" stroke-linejoin="round"/>
<path d="M399.484 144.692L401.272 143.657L415.604 143.531L413.848 144.566L399.484 144.692Z" fill="black" stroke="black" stroke-width="0.5" stroke-linejoin="round"/>
<path d="M413.859 144.57L415.616 143.535V146.828L413.859 147.832V144.57Z" fill="black" stroke="black" stroke-width="0.5" stroke-linejoin="round"/>
<path d="M469.581 141.392L469.398 210.123L389.423 164.371L389.622 95.0039L469.581 141.392Z" fill="white" fill-opacity="0.8"/>
<path d="M389.423 164.371L469.398 210.123L469.581 141.392L389.622 95.0039L389.423 164.371ZM389.423 164.371L384.836 166.45" stroke="black" stroke-width="0.5" stroke-linejoin="round"/>
<path d="M464.982 144.131L464.799 212.862L384.824 166.457L385.024 97.7422L464.982 144.131Z" fill="white" fill-opacity="0.8" stroke="black" stroke-width="0.5" stroke-linejoin="round"/>
<path d="M464.986 144.131L464.966 152.008L385.004 105.959L385.028 97.7422L464.986 144.131Z" fill="#25E896" stroke="black" stroke-width="0.5" stroke-linejoin="round"/>
<path d="M464.98 144.133L469.665 141.395L469.466 210.126L464.797 212.864L464.98 144.133Z" fill="#DEDEDE" fill-opacity="0.8" stroke="black" stroke-width="0.5" stroke-linejoin="round"/>
<path d="M469.672 141.395L464.986 144.133L464.965 152L469.648 149.073L469.672 141.395Z" fill="#38C076" stroke="black" stroke-width="0.5" stroke-linejoin="round"/>
<path d="M385.023 97.7425L389.709 95.0039L469.668 141.392L464.982 144.131L385.023 97.7425Z" fill="#5BFFBA" stroke="black" stroke-width="0.5" stroke-linejoin="round"/>
<path d="M396.492 109.816C397.365 109.816 398.073 109.108 398.073 108.234C398.073 107.36 397.365 106.652 396.492 106.652C395.618 106.652 394.91 107.36 394.91 108.234C394.91 109.108 395.618 109.816 396.492 109.816Z" fill="white" stroke="black" stroke-width="0.5" stroke-linejoin="round"/>
<path d="M395.736 108.741C396.563 108.741 397.246 108.058 397.246 107.231C397.246 107.088 397.21 106.944 397.174 106.836C397.713 107.088 398.073 107.627 398.073 108.238C398.073 109.101 397.354 109.82 396.491 109.82C395.7 109.82 395.053 109.244 394.945 108.525C395.161 108.669 395.449 108.741 395.736 108.741Z" fill="#D1D1D1"/>
<path d="M392.609 107.683C393.483 107.683 394.191 106.975 394.191 106.101C394.191 105.228 393.483 104.52 392.609 104.52C391.735 104.52 391.027 105.228 391.027 106.101C391.027 106.975 391.735 107.683 392.609 107.683Z" fill="white" stroke="black" stroke-width="0.5" stroke-linejoin="round"/>
<path d="M391.818 106.608C392.645 106.608 393.328 105.925 393.328 105.099C393.328 104.955 393.292 104.811 393.256 104.703C393.795 104.955 394.155 105.494 394.155 106.105C394.155 106.968 393.436 107.687 392.573 107.687C391.782 107.687 391.135 107.112 391.027 106.393C391.279 106.536 391.531 106.608 391.818 106.608Z" fill="#D1D1D1"/>
<path d="M388.73 105.57C389.604 105.57 390.312 104.861 390.312 103.988C390.312 103.114 389.604 102.406 388.73 102.406C387.857 102.406 387.148 103.114 387.148 103.988C387.148 104.861 387.857 105.57 388.73 105.57Z" fill="white" stroke="black" stroke-width="0.5" stroke-linejoin="round"/>
<path d="M387.939 104.495C388.766 104.495 389.449 103.812 389.449 102.985C389.449 102.841 389.413 102.698 389.377 102.59C389.916 102.841 390.276 103.381 390.276 103.992C390.276 104.854 389.557 105.573 388.694 105.573C387.903 105.573 387.256 104.998 387.148 104.279C387.4 104.387 387.652 104.495 387.939 104.495Z" fill="#D1D1D1"/>
<path d="M396.488 109.812C397.361 109.812 398.07 109.104 398.07 108.23C398.07 107.357 397.361 106.648 396.488 106.648C395.614 106.648 394.906 107.357 394.906 108.23C394.906 109.104 395.614 109.812 396.488 109.812Z" stroke="black" stroke-width="0.5" stroke-linejoin="round"/>
<path d="M392.617 107.687C393.49 107.687 394.198 106.979 394.198 106.105C394.198 105.232 393.49 104.523 392.617 104.523C391.743 104.523 391.035 105.232 391.035 106.105C391.035 106.979 391.743 107.687 392.617 107.687Z" stroke="black" stroke-width="0.5" stroke-linejoin="round"/>
<path d="M388.73 105.57C389.604 105.57 390.312 104.861 390.312 103.988C390.312 103.114 389.604 102.406 388.73 102.406C387.857 102.406 387.148 103.114 387.148 103.988C387.148 104.861 387.857 105.57 388.73 105.57Z" stroke="black" stroke-width="0.5" stroke-linejoin="round"/>
<path d="M429.531 171.258L431.288 170.223L442.201 170.505L440.445 171.508L429.531 171.258Z" fill="#009BBD" stroke="black" stroke-width="0.5" stroke-linejoin="round"/>
<path d="M429.559 155.711L443.86 172.395V174.434L429.496 174.528L429.527 171.266L440.441 171.517V171.329L429.559 159.004V155.711Z" fill="#B5F4FD" stroke="black" stroke-width="0.5" stroke-linejoin="round"/>
<path d="M429.559 155.707L431.315 154.672L445.647 171.356L443.859 172.391L429.559 155.707Z" fill="#DCFBFF" stroke="black" stroke-width="0.5" stroke-linejoin="round"/>
<path d="M443.867 172.386L445.655 171.352L445.623 173.39L443.867 174.425V172.386Z" fill="#009BBD" stroke="black" stroke-width="0.5" stroke-linejoin="round"/>
<path d="M415.859 171.421L423.323 144.324L425.707 145.704L418.274 172.832L415.859 171.421Z" fill="#B5F4FD" stroke="black" stroke-width="0.5" stroke-linejoin="round"/>
<path d="M423.32 144.312L425.077 143.277L427.491 144.657L425.704 145.692L423.32 144.312Z" fill="#DCFBFF" stroke="black" stroke-width="0.5" stroke-linejoin="round"/>
<path d="M425.702 145.695L427.49 144.66L420.026 171.788L418.27 172.823L425.702 145.695Z" fill="#009BBD" stroke="black" stroke-width="0.5" stroke-linejoin="round"/>
<path d="M401.113 148.621L402.901 147.586V147.805L401.113 148.84V148.621Z" fill="#B5F4FD" stroke="black" stroke-width="0.5" stroke-linejoin="round"/>
<path d="M401.113 148.844L402.901 147.809L413.783 160.134L412.027 161.169L401.113 148.844Z" fill="#009BBD" stroke="black" stroke-width="0.5" stroke-linejoin="round"/>
<path d="M412.027 161.168L413.784 160.133V163.426L411.996 164.429L412.027 161.168Z" fill="#009BBD" stroke="black" stroke-width="0.5" stroke-linejoin="round"/>
<path d="M397.703 147.773V145.735L412.067 145.609V148.871L401.122 148.62V148.84L412.035 161.165L412.004 164.426L397.703 147.773Z" fill="#B5F4FD" stroke="black" stroke-width="0.5" stroke-linejoin="round"/>
<path d="M397.703 145.735L399.491 144.7L413.823 144.574L412.067 145.609L397.703 145.735Z" fill="#DCFBFF" stroke="black" stroke-width="0.5" stroke-linejoin="round"/>
<path d="M412.074 145.609L413.83 144.574V147.867L412.074 148.871V145.609Z" fill="#009BBD" stroke="black" stroke-width="0.5" stroke-linejoin="round"/>
<rect width="69.0979" height="50.2622" transform="matrix(0.866007 0.500033 -3.77902e-05 -1 375.242 70.9531)" fill="black"/>
<mask id="mask1" mask-type="alpha" maskUnits="userSpaceOnUse" x="379" y="27" width="52" height="72">
<rect width="58.0866" height="42.2525" transform="matrix(0.866007 0.500033 -3.77902e-05 -1 379.984 69.7109)" fill="black"/>
</mask>
<g mask="url(#mask1)">
<rect width="14.477" height="2.06676" transform="matrix(0.866007 0.500033 -3.77651e-05 -1 378.711 74.9297)" fill="#B5F4FD"/>
<rect width="36.1978" height="2.06676" transform="matrix(0.866007 0.500033 -3.77422e-05 -1 378.707 66.293)" fill="#B5F4FD"/>
<rect width="20.6076" height="2.06676" transform="matrix(0.866007 0.500033 -3.77422e-05 -1 378.707 57.6562)" fill="white"/>
<rect width="35.4933" height="2.06676" transform="matrix(0.866007 0.500033 -3.77422e-05 -1 378.707 49.0195)" fill="#B5F4FD"/>
<rect width="27.9791" height="2.06676" transform="matrix(0.866007 0.500033 3.77422e-05 1 378.707 38.3086)" fill="white"/>
<rect width="37.7241" height="2.06676" transform="matrix(0.866007 0.500033 3.77422e-05 1 378.707 29.6719)" fill="#009BBD"/>
<rect width="27.3565" height="2.06676" transform="matrix(0.866007 0.500033 -3.77422e-05 -1 411.379 85.1523)" fill="#009BBD"/>
<rect width="19.9597" height="2.06676" transform="matrix(0.866007 0.500033 -3.77422e-05 -1 398.066 68.8281)" fill="#38C076"/>
<rect width="21.8509" height="2.06676" transform="matrix(0.866007 0.500033 -3.77422e-05 -1 411.379 67.8789)" fill="#F4FC83"/>
<rect width="17.9637" height="2.06676" transform="matrix(0.866007 0.500033 3.77422e-05 1 404.77 53.3594)" fill="#009BBD"/>
<rect width="15.3807" height="2.06676" transform="matrix(0.866007 0.500033 3.77422e-05 1 412.695 49.2969)" fill="#F4FC83"/>
<rect width="32.9793" height="2.06676" transform="matrix(0.866007 0.500033 -3.77422e-05 -1 416.699 79.5898)" fill="#B5F4FD"/>
<rect width="27.0295" height="2.06676" transform="matrix(0.866007 0.500033 3.77422e-05 1 421.848 63.2227)" fill="#38C076"/>
<rect width="20.6076" height="2.06676" transform="matrix(0.866007 0.500033 3.77422e-05 1 427.414 57.7969)" fill="white"/>
</g>
<path d="M141.166 123.447C160.118 130.83 179.029 138.208 197.981 145.591C192.138 150.776 187.621 157.12 184.62 164.101L132.077 133.971C134.598 130.12 137.642 126.575 141.166 123.447Z" fill="white" stroke="black" stroke-width="0.413333" stroke-linejoin="round"/>
<defs>
<linearGradient id="paint0_linear" x1="232.434" y1="76.6764" x2="124.598" y2="234.836" gradientUnits="userSpaceOnUse">
<stop stop-color="white" stop-opacity="0.5"/>
<stop offset="1" stop-color="white" stop-opacity="0"/>
</linearGradient>
<linearGradient id="paint1_linear" x1="164.062" y1="148.068" x2="123.723" y2="195.995" gradientUnits="userSpaceOnUse">
<stop stop-color="white" stop-opacity="0.5"/>
<stop offset="1" stop-color="white" stop-opacity="0"/>
</linearGradient>
</defs>
</svg>
