<svg width="584" height="520" viewBox="0 0 584 520" fill="none" xmlns="http://www.w3.org/2000/svg">
<path d="M314 398.628L267.028 426L88 323.289L134.972 296L314 398.628Z" fill="#F9F9F9"/>
<path d="M571.311 300.966C571.346 288.527 553.968 278.394 532.495 278.333C511.023 278.272 493.587 288.307 493.552 300.746C493.517 313.185 510.895 323.319 532.368 323.38C553.84 323.441 571.275 313.406 571.311 300.966Z" fill="#F9F9F9"/>
<path d="M468.894 218.121C468.927 206.257 452.354 196.593 431.876 196.535C411.398 196.477 394.77 206.047 394.737 217.91C394.703 229.774 411.276 239.438 431.754 239.496C452.232 239.554 468.86 229.984 468.894 218.121Z" fill="#F9F9F9"/>
<path d="M478.288 236.682C478.313 227.912 466.061 220.768 450.923 220.725C435.784 220.682 423.492 227.757 423.467 236.527C423.442 245.297 435.694 252.441 450.832 252.484C465.971 252.527 478.263 245.452 478.288 236.682Z" fill="#F9F9F9"/>
<path d="M184.15 415.116C184.186 402.401 166.422 392.043 144.473 391.981C122.525 391.919 104.703 402.176 104.667 414.891C104.631 427.606 122.394 437.964 144.343 438.027C166.292 438.089 184.114 427.832 184.15 415.116Z" fill="#F9F9F9"/>
<path d="M87.9679 278.445L45.6208 303.086L3 278.445L45.3471 253.805L87.9679 278.445Z" fill="#F9F9F9"/>
<path d="M352.744 375.683L361.774 380.897C369.031 385.09 379.89 384.66 386.018 379.929C392.146 375.199 403.004 374.769 410.261 378.962L426.32 388.234" stroke="black" stroke-width="0.5" stroke-linejoin="round"/>
<path d="M250.559 308.89L142.449 244.51C135.182 240.182 130.729 232.348 130.729 223.889V131.148" stroke="black" stroke-width="0.5"/>
<path d="M540.307 269.497V297.907C540.307 307.295 532.696 314.907 523.307 314.907H74C65.7157 314.907 59 308.191 59 299.907V267.684" stroke="black" stroke-width="0.5"/>
<path d="M320.055 301.796L434.024 233.927C437.658 231.763 439.884 227.846 439.884 223.616V124.055" stroke="black" stroke-width="0.5"/>
<path d="M419.395 242.664L436.07 251.009C439.887 252.92 444.431 252.659 448.004 250.324L454.294 246.215C457.686 243.999 459.73 240.221 459.73 236.169V207.59" stroke="black" stroke-width="0.5"/>
<path d="M293.759 315.131L293.837 315.131L365.399 356.413L293.946 315.068L405.027 315.024L293.946 314.979L293.837 314.915L293.759 315.131ZM293.759 315.131L293.682 315.131L278.446 333.176L293.572 315.068L194.145 315.024L293.572 314.979L293.682 314.915L293.759 315.131Z" stroke="black" stroke-width="0.5"/>
<path d="M233.76 375.429L226.541 379.597C220.74 382.949 212.06 382.605 207.161 378.823C202.262 375.042 193.582 374.698 187.781 378.05L162.105 392.875" stroke="black" stroke-width="0.5" stroke-linejoin="round"/>
<path d="M194.147 398.962V408.151C194.147 414.042 190.288 419.979 182.663 424.456C167.274 433.551 142.214 433.551 126.685 424.456C118.828 419.932 114.969 413.9 114.969 407.916L115.015 398.727C115.015 404.711 118.874 410.696 126.685 415.267C142.214 424.362 167.274 424.362 182.663 415.267C190.288 410.743 194.147 404.853 194.147 398.962Z" fill="#D4F3E1" stroke="black" stroke-width="0.5" stroke-linejoin="round"/>
<path d="M194.079 399.245C194.115 386.53 176.352 376.172 154.403 376.11C132.455 376.048 114.633 386.305 114.597 399.02C114.56 411.735 132.324 422.093 154.273 422.156C176.221 422.218 194.043 411.961 194.079 399.245Z" fill="#F1FFF7" stroke="black" stroke-width="0.5" stroke-linejoin="round"/>
<path d="M470.733 305.891L293.905 408.775L115.934 305.891L292.762 203.008L470.733 305.891Z" fill="#F1FFF7" stroke="black" stroke-width="0.5" stroke-linejoin="round"/>
<path fill-rule="evenodd" clip-rule="evenodd" d="M175.022 388.448L167.591 384.152L129.562 406.278L136.994 410.574L175.022 388.448Z" fill="#D4F3E1"/>
<path d="M470.734 305.828L470.591 315.017L293.758 417.179V407.991L470.734 305.828Z" fill="#F1FFF7" stroke="black" stroke-width="0.5" stroke-linejoin="round"/>
<path d="M293.757 407.991V417.179L115.934 315.017V305.828L293.757 407.991Z" fill="#D4F3E1" stroke="black" stroke-width="0.5" stroke-linejoin="round"/>
<path d="M177.529 316.367L177.729 391.696L170.63 395.796L170.43 320.467L177.529 316.367Z" fill="#38C076" stroke="black" stroke-width="0.5" stroke-linejoin="round"/>
<path d="M170.626 395.796L163.593 391.696L163.359 316.367L170.426 320.467L170.626 395.796Z" fill="#18A659" stroke="black" stroke-width="0.5" stroke-linejoin="round"/>
<path d="M170.426 320.473L163.359 316.373L170.459 312.273L177.525 316.373L170.426 320.473Z" fill="#38C076" stroke="black" stroke-width="0.5" stroke-linejoin="round"/>
<path d="M166.226 337.797L166.426 398.26L159.327 402.327L159.16 341.897L166.226 337.797Z" fill="#25E896" stroke="black" stroke-width="0.5" stroke-linejoin="round"/>
<path d="M159.327 402.327L152.26 398.26L152.094 337.797L159.16 341.897L159.327 402.327Z" fill="#1DBD7A" stroke="black" stroke-width="0.5" stroke-linejoin="round"/>
<path d="M159.16 341.903L152.094 337.803L159.193 333.703L166.226 337.803L159.16 341.903Z" fill="#25E896" stroke="black" stroke-width="0.5" stroke-linejoin="round"/>
<path d="M154.963 357.102L155.096 404.799L147.997 408.865L147.863 361.201L154.963 357.102Z" fill="#B4F7E7" stroke="black" stroke-width="0.5" stroke-linejoin="round"/>
<path d="M147.998 408.865L140.965 404.799L140.832 357.102L147.865 361.201L147.998 408.865Z" fill="#7EDBC5" stroke="black" stroke-width="0.5" stroke-linejoin="round"/>
<path d="M147.865 361.201L140.832 357.102L147.898 353.035L154.965 357.102L147.865 361.201Z" fill="#B4F7E7" stroke="black" stroke-width="0.5" stroke-linejoin="round"/>
<path d="M143.654 375.996L143.754 411.328L136.655 415.427L136.555 380.096L143.654 375.996Z" fill="#F4FC83" stroke="black" stroke-width="0.5" stroke-linejoin="round"/>
<path d="M136.656 415.427L129.623 411.328L129.523 375.996L136.556 380.096L136.656 415.427Z" fill="#CAD35D" stroke="black" stroke-width="0.5" stroke-linejoin="round"/>
<path d="M136.556 380.094L129.523 375.994L136.623 371.895L143.656 375.994L136.556 380.094Z" fill="#F4FC83" stroke="black" stroke-width="0.5" stroke-linejoin="round"/>
<path d="M381.965 306.499L292.652 358.401L202.699 306.499L292.061 254.598L381.965 306.499Z" fill="#D4F3E1"/>
<path fill-rule="evenodd" clip-rule="evenodd" d="M200.406 198.652V305.055L292.542 251.896L200.406 198.652Z" fill="#25E896"/>
<path fill-rule="evenodd" clip-rule="evenodd" d="M292.543 251.814L384.679 198.655L292.543 145.496V251.814Z" fill="#B4F7E7"/>
<path fill-rule="evenodd" clip-rule="evenodd" d="M292.542 145.496L200.406 198.655L292.542 251.814V145.496Z" fill="#25E896"/>
<path fill-rule="evenodd" clip-rule="evenodd" d="M314.113 239.413L384.68 280.174V198.652L314.113 239.413Z" fill="#38C076"/>
<path fill-rule="evenodd" clip-rule="evenodd" d="M200.406 305.056L292.542 358.215V251.812L200.406 305.056Z" fill="#003032"/>
<path fill-rule="evenodd" clip-rule="evenodd" d="M384.594 198.655L292.542 145.496L200.406 198.655L292.542 251.814L384.594 198.655Z" stroke="black" stroke-width="0.5" stroke-linejoin="round"/>
<path fill-rule="evenodd" clip-rule="evenodd" d="M384.595 198.656L314.113 239.417L384.68 280.178V198.656H384.595Z" stroke="black" stroke-width="0.5" stroke-linejoin="round"/>
<path fill-rule="evenodd" clip-rule="evenodd" d="M292.457 251.815L200.406 198.656V305.059L292.542 358.217V251.815H292.457Z" stroke="black" stroke-width="0.5" stroke-linejoin="round"/>
<path d="M485.93 396.767L441.238 422.771L396.258 396.767L440.949 370.762L485.93 396.767Z" fill="#F1FFF7" stroke="black" stroke-width="0.5" stroke-linejoin="round"/>
<path d="M471.641 418.036L426.949 444.041L381.969 418.036L426.66 392.031L471.641 418.036Z" fill="#F9F9F9"/>
<path d="M451.071 418.352L414.42 397.391C413.008 396.59 413.01 395.286 414.416 394.474L437.705 381.028C439.111 380.216 441.374 380.212 442.786 381.013L479.438 401.975C480.85 402.776 480.848 404.08 479.441 404.892L456.153 418.337C454.746 419.149 452.465 419.164 451.071 418.352Z" fill="#D4F3E1"/>
<path d="M447.843 401.074L416.867 418.685C416.239 419.047 415.37 418.991 414.416 418.426C412.509 417.296 410.968 414.629 410.943 412.412C410.93 411.304 411.316 410.523 411.944 410.16L442.92 392.55C442.292 392.913 441.906 393.693 441.919 394.802C441.944 397.019 443.484 399.686 445.392 400.816C446.346 401.381 447.215 401.437 447.843 401.074Z" fill="#D4F3E1"/>
<path d="M485.922 396.766L485.886 409.74L441.086 435.325L441.086 422.351L485.922 396.766Z" fill="#F1FFF7" stroke="black" stroke-width="0.5" stroke-linejoin="round"/>
<path d="M396.25 396.766L396.286 409.74L441.086 435.325L441.086 422.351L396.25 396.766Z" fill="#D4F3E1" stroke="black" stroke-width="0.5" stroke-linejoin="round"/>
<path d="M106.124 119.372C106.185 137.633 119.071 145.022 135.011 135.862C150.951 126.701 163.776 104.409 163.715 86.1489C163.654 67.8883 150.767 60.4985 134.827 69.6594C118.949 78.8813 106.062 101.112 106.124 119.372Z" fill="#B5F4FD" stroke="black" stroke-width="0.5" stroke-linejoin="round"/>
<path d="M145.88 62.1464C140.628 59.0927 133.421 59.5203 125.421 64.1617C109.542 73.3226 96.7169 95.6139 96.7169 113.875C96.7169 122.974 99.9537 129.326 105.145 132.318L114.55 137.815C109.359 134.822 106.183 128.41 106.122 119.31C106.061 101.049 118.886 78.758 134.826 69.5972C142.826 64.9557 150.094 64.5282 155.285 67.5818L145.88 62.1464Z" fill="#009BBD" stroke="black" stroke-width="0.5" stroke-linejoin="round"/>
<path fill-rule="evenodd" clip-rule="evenodd" d="M135.795 95.9146C137.47 96.1713 138.569 97.4417 138.994 99.5165C139.203 100.709 138.445 102.295 137.036 103.143C137.036 103.143 127.35 108.737 126.758 109.079C126.76 109.133 126.765 109.189 126.771 109.247C126.823 109.546 126.896 109.823 126.991 110.075C127.536 111.408 129.069 112.832 131.933 111.215C132.808 110.704 133.631 109.974 134.353 109.112C134.921 108.418 135.395 107.672 135.777 106.965C135.903 106.717 136.018 106.476 136.122 106.246C136.602 105.259 137.212 105.037 137.576 105.149C138.007 105.281 138.079 106.038 137.687 106.826C137.68 106.839 137.674 106.851 137.667 106.864C137.662 106.872 137.658 106.881 137.653 106.89C137.088 108.035 136.504 109.055 135.806 109.977C135.133 110.863 134.402 111.639 133.648 112.286C132.769 113.056 131.921 113.604 131.05 113.986C128.113 115.266 125.65 114.184 124.922 111.296C124.777 110.715 124.707 110.079 124.707 109.41C124.707 106.74 125.82 103.505 127.749 100.807C130.114 97.4994 133.347 95.5334 135.795 95.9146ZM126.846 106.676C126.845 106.7 126.843 106.724 126.843 106.747L136.977 100.895C136.435 98.5511 134.37 97.7652 131.903 99.1896C129.465 100.597 127.419 103.71 126.847 106.649C126.847 106.658 126.846 106.667 126.846 106.676Z" fill="black"/>
<path d="M151.697 93.7686C151.697 94.9079 152.499 95.3715 153.487 94.8011C154.472 94.232 155.275 92.8418 155.275 91.7025C155.275 90.5629 154.472 90.0996 153.487 90.6687C152.499 91.2391 151.697 92.629 151.697 93.7686Z" fill="black"/>
<path fill-rule="evenodd" clip-rule="evenodd" d="M153.483 101.075C149.502 103.374 146.263 101.504 146.263 96.9076C146.263 92.3104 149.502 86.6994 153.484 84.4006C157.465 82.1019 160.706 83.9714 160.705 88.5686C160.705 93.1652 157.464 98.7761 153.483 101.075ZM153.484 86.7547C150.626 88.4046 148.302 92.4313 148.302 95.7306C148.301 99.0292 150.626 100.37 153.483 98.7205C156.339 97.0713 158.664 93.0456 158.665 89.747C158.665 86.4476 156.34 85.1055 153.484 86.7547Z" fill="black"/>
<path d="M119.025 112.636L124.52 103.101C124.703 102.782 124.804 102.439 124.804 102.138C124.804 101.511 124.363 101.256 123.819 101.57C123.554 101.723 123.306 101.986 123.119 102.312C123.119 102.314 117.628 111.82 117.628 111.82L112.113 108.658C111.927 108.553 111.68 108.579 111.418 108.73C110.875 109.043 110.434 109.808 110.434 110.435C110.434 110.741 110.539 110.966 110.729 111.073L116.224 114.244L110.731 123.769C110.538 124.1 110.433 124.448 110.433 124.756C110.433 125.383 110.875 125.637 111.418 125.323C111.68 125.172 111.927 124.912 112.113 124.59L117.62 115.06L123.105 118.22C123.3 118.34 123.551 118.319 123.819 118.164C124.361 117.85 124.803 117.086 124.803 116.458C124.803 116.156 124.702 115.93 124.517 115.822L119.025 112.636Z" fill="black"/>
<path d="M145.751 89.0085L145.449 89.1824C144.539 89.7075 143.662 90.5452 142.929 91.6201C142.833 91.1657 142.438 91.0099 141.968 91.2815C141.426 91.594 140.993 92.3453 140.991 92.9724L140.994 107.013C140.995 107.637 141.437 107.891 141.979 107.578C142.52 107.265 142.962 106.502 142.963 105.875L142.964 97.24C142.964 94.3622 143.192 93.0683 145.327 91.5276C145.52 91.3884 145.73 91.271 145.739 91.2656C146.323 90.9051 146.739 90.2017 146.739 89.5753C146.739 88.9484 146.296 88.6942 145.751 89.0085Z" fill="black"/>
<path d="M478.236 151.732V160.305C478.236 165.801 474.636 171.341 467.522 175.517C453.163 184.003 429.783 184.003 415.295 175.517C407.964 171.297 404.363 165.669 404.363 160.085L404.407 151.512C404.407 157.095 408.007 162.679 415.295 166.944C429.783 175.429 453.163 175.429 467.522 166.944C474.636 162.723 478.236 157.227 478.236 151.732Z" fill="#D4F3E1" stroke="black" stroke-width="0.5" stroke-linejoin="round"/>
<path d="M478.179 151.992C478.213 140.128 461.639 130.464 441.161 130.406C420.683 130.348 404.055 139.918 404.022 151.781C403.988 163.645 420.562 173.309 441.039 173.367C461.517 173.425 478.145 163.855 478.179 151.992Z" fill="#F1FFF7" stroke="black" stroke-width="0.5" stroke-linejoin="round"/>
<path d="M485.787 208.557V214.895C485.787 218.958 483.125 223.053 477.866 226.141C467.252 232.414 449.967 232.414 439.257 226.141C433.837 223.021 431.176 218.86 431.176 214.733L431.208 208.395C431.208 212.522 433.869 216.65 439.257 219.803C449.967 226.076 467.252 226.076 477.866 219.803C483.125 216.683 485.787 212.62 485.787 208.557Z" fill="#D4F3E1" stroke="black" stroke-width="0.5" stroke-linejoin="round"/>
<path d="M485.745 208.749C485.77 199.979 473.518 192.834 458.38 192.791C443.241 192.748 430.949 199.823 430.924 208.593C430.899 217.363 443.151 224.507 458.29 224.55C473.428 224.593 485.72 217.519 485.745 208.749Z" fill="#F1FFF7" stroke="black" stroke-width="0.5" stroke-linejoin="round"/>
<path fill-rule="evenodd" clip-rule="evenodd" d="M460.312 193.06C463.395 195.639 465.199 198.769 465.189 202.139C465.164 210.909 452.872 217.983 437.733 217.941C437.289 217.939 436.847 217.932 436.408 217.919C433.076 215.31 431.111 212.091 431.121 208.614C431.146 199.959 443.392 192.977 458.474 193.02C459.092 193.021 459.705 193.035 460.312 193.06Z" fill="#D4F3E1"/>
<path d="M475.854 205.9V208.228C475.854 210.771 474.171 213.278 470.876 215.212C464.214 219.081 453.326 219.081 446.629 215.212C443.226 213.243 441.543 210.7 441.543 208.121V205.793C441.543 208.336 443.226 210.915 446.593 212.884C453.326 216.753 464.178 216.753 470.84 212.884C474.171 210.95 475.854 208.408 475.854 205.9Z" fill="#D2DF39" stroke="black" stroke-width="0.5" stroke-linejoin="round"/>
<path d="M470.803 198.807C477.537 202.675 477.573 208.979 470.875 212.847C464.213 216.715 453.325 216.715 446.628 212.847C439.894 208.979 439.859 202.711 446.52 198.807C453.218 194.939 464.07 194.939 470.803 198.807Z" fill="#D2DF39" stroke="black" stroke-width="0.5" stroke-linejoin="round"/>
<path d="M478.097 202.385V204.713C478.097 207.256 476.413 209.763 473.118 211.697C466.456 215.565 455.569 215.565 448.871 211.697C445.468 209.727 443.785 207.184 443.785 204.605V202.277C443.785 204.82 445.468 207.399 448.835 209.369C455.569 213.237 466.421 213.237 473.082 209.369C476.413 207.435 478.097 204.892 478.097 202.385Z" fill="#D2DF39" stroke="black" stroke-width="0.5" stroke-linejoin="round"/>
<path d="M473.046 195.296C479.779 199.164 479.815 205.467 473.117 209.335C466.455 213.203 455.568 213.203 448.87 209.335C442.137 205.467 442.101 199.2 448.763 195.296C455.46 191.428 466.312 191.428 473.046 195.296Z" fill="#F4FC83" stroke="black" stroke-width="0.5" stroke-linejoin="round"/>
<path d="M473.163 198.326V200.654C473.163 203.197 471.48 205.704 468.185 207.638C461.523 211.506 450.635 211.506 443.937 207.638C440.535 205.668 438.852 203.125 438.852 200.547V198.219C438.852 200.762 440.535 203.34 443.902 205.31C450.635 209.178 461.487 209.178 468.149 205.31C471.48 203.376 473.163 200.833 473.163 198.326Z" fill="#D2DF39" stroke="black" stroke-width="0.5" stroke-linejoin="round"/>
<path d="M468.12 191.233C474.853 195.101 474.889 201.405 468.191 205.273C461.53 209.141 450.642 209.141 443.944 205.273C437.211 201.405 437.175 195.137 443.837 191.233C450.534 187.365 461.386 187.365 468.12 191.233Z" fill="#F4FC83" stroke="black" stroke-width="0.5" stroke-linejoin="round"/>
<path d="M464.636 193.251C469.435 196.009 469.461 200.502 464.687 203.259C459.939 206.016 452.178 206.016 447.404 203.259C442.605 200.502 442.579 196.034 447.327 193.251C452.101 190.494 459.836 190.494 464.636 193.251Z" fill="#F4FC83" stroke="black" stroke-width="0.5" stroke-linejoin="round"/>
<path d="M468.234 198.651C468.411 196.709 467.21 194.73 464.636 193.251C459.836 190.494 452.101 190.494 447.327 193.251C444.802 194.731 443.627 196.687 443.802 198.609C443.954 196.936 445.129 195.287 447.327 193.999C452.101 191.242 459.836 191.242 464.636 193.999C466.88 195.288 468.081 196.957 468.234 198.651Z" fill="#D2DF39" stroke="black" stroke-width="0.5" stroke-linejoin="round"/>
<path d="M438.853 195.846V198.174C438.853 200.717 440.536 203.224 443.831 205.158C450.493 209.026 461.381 209.026 468.078 205.158C471.481 203.188 473.164 200.645 473.164 198.066V195.738C473.164 198.281 471.481 200.86 468.114 202.83C461.381 206.698 450.529 206.698 443.867 202.83C440.536 200.896 438.853 198.353 438.853 195.846Z" fill="#D2DF39" stroke="black" stroke-width="0.5" stroke-linejoin="round"/>
<path d="M468.078 205.158C468.09 205.151 468.102 205.144 468.114 205.137M468.114 205.137C471.493 203.17 473.164 200.636 473.164 198.066V195.738C473.164 198.281 471.481 200.86 468.114 202.83V205.137Z" stroke="black" stroke-width="0.5" stroke-linejoin="round"/>
<path d="M467.035 203.355V205.699" stroke="black" stroke-width="0.5"/>
<path d="M464.477 204.367V206.71" stroke="black" stroke-width="0.5"/>
<path d="M463.18 204.871V207.214" stroke="black" stroke-width="0.5"/>
<path d="M465.766 203.965V206.203" stroke="black" stroke-width="0.5"/>
<path d="M443.896 188.757C437.163 192.625 437.127 198.928 443.824 202.796C450.486 206.664 461.374 206.664 468.071 202.796C474.805 198.928 474.841 192.66 468.179 188.757C461.481 184.888 450.629 184.888 443.896 188.757Z" fill="#F4FC83" stroke="black" stroke-width="0.5" stroke-linejoin="round"/>
<path d="M447.38 190.775C442.58 193.532 442.555 198.025 447.329 200.782C452.077 203.539 459.838 203.539 464.612 200.782C469.411 198.025 469.437 193.557 464.688 190.775C459.914 188.018 452.179 188.018 447.38 190.775Z" fill="#F4FC83" stroke="black" stroke-width="0.5" stroke-linejoin="round"/>
<path d="M443.781 196.174C443.605 194.232 444.805 192.254 447.38 190.775C452.179 188.018 459.914 188.018 464.688 190.775C467.213 192.255 468.388 194.211 468.213 196.133C468.061 194.459 466.886 192.81 464.688 191.522C459.914 188.765 452.179 188.765 447.38 191.522C445.136 192.812 443.935 194.481 443.781 196.174Z" fill="#D2DF39" stroke="black" stroke-width="0.5" stroke-linejoin="round"/>
<path d="M207.621 92.2695V152.524C207.621 155.395 206.084 158.045 203.592 159.469L130.731 201.127" stroke="black" stroke-width="0.5"/>
<path d="M189.056 109.194C189.105 123.855 199.452 129.789 212.25 122.433C225.048 115.078 235.346 97.1801 235.297 82.5184C235.248 67.8568 224.901 61.9235 212.103 69.2788C199.354 76.6832 189.007 94.5321 189.056 109.194Z" fill="white" stroke="black" stroke-width="0.5" stroke-linejoin="round"/>
<path d="M220.98 63.2384C216.763 60.7866 210.976 61.1299 204.553 64.8566C191.804 72.2119 181.506 90.1099 181.506 104.772C181.506 112.078 184.105 117.178 188.273 119.58L195.824 123.994C191.656 121.591 189.107 116.442 189.058 109.136C189.008 94.4741 199.306 76.5761 212.104 69.2207C218.528 65.494 224.367 65.2376 228.535 67.6894L220.98 63.2384Z" fill="black" stroke="black" stroke-width="0.5" stroke-linejoin="round"/>
<path d="M212.172 120.999C224.205 114.051 233.96 97.1549 233.961 83.2601C233.961 69.3652 224.207 63.7337 212.174 70.6816C200.141 77.6295 190.386 94.5255 190.386 108.42C190.385 122.315 200.139 127.947 212.172 120.999Z" fill="white"/>
<path d="M196.437 104.933C196.437 110.336 200.23 112.526 204.909 109.824L206.12 109.125L206.12 105.491L204.91 106.19C201.973 107.886 199.584 106.507 199.584 103.115C199.584 99.7247 201.973 95.5863 204.91 93.8905L207.818 92.2111L207.818 111.22C207.818 112.184 208.149 112.916 208.739 113.257C209.33 113.598 210.13 113.519 210.965 113.037L210.966 86.76L204.91 90.2564C200.231 92.9584 196.437 99.5297 196.437 104.933ZM219.44 81.8685L218.23 82.5674L218.229 86.2015L219.44 85.5026C222.376 83.8073 224.766 85.1865 224.766 88.5773C224.765 91.9681 222.375 96.1071 219.439 97.8023L216.53 99.4825L216.53 80.4737C216.53 79.5099 216.199 78.7771 215.609 78.4364C215.018 78.0956 214.218 78.1749 213.383 78.6569L213.382 104.934L219.439 101.436C224.118 98.7347 227.912 92.1637 227.913 86.7602C227.913 81.3567 224.119 79.1669 219.44 81.8685Z" fill="black"/>
<path d="M428.705 131.333C429.824 131.972 431.569 131.964 432.667 131.33C433.765 130.696 433.745 129.672 432.653 129.018C431.534 128.378 429.789 128.386 428.691 129.02C427.566 129.669 427.586 130.693 428.705 131.333Z" fill="#25E896" stroke="black" stroke-width="0.5" stroke-linejoin="round"/>
<path d="M451.442 144.491C452.561 145.13 454.306 145.122 455.404 144.488C456.502 143.855 456.482 142.831 455.39 142.176C454.271 141.536 452.526 141.544 451.428 142.178C450.345 142.839 450.35 143.836 451.442 144.491Z" fill="#25E896" stroke="black" stroke-width="0.5" stroke-linejoin="round"/>
<path d="M398.304 129.143L455.35 162.085L485.833 144.379L428.787 111.437L398.304 129.143Z" fill="#43E68D" stroke="black" stroke-width="0.5" stroke-linejoin="round"/>
<path d="M452.081 156.796C453.742 155.838 456.457 155.841 458.122 156.808L476.757 145.978C475.107 145.038 475.069 143.488 476.688 142.518L432.012 116.716C430.336 117.648 427.69 117.641 426.024 116.674L407.39 127.504C409.055 128.471 409.066 130.036 407.405 130.994L452.081 156.796ZM450.367 131.935C454.186 134.157 453.563 138.088 448.999 140.758C444.393 143.418 437.587 143.812 433.768 141.59C429.949 139.367 430.572 135.436 435.136 132.766C439.7 130.095 446.522 129.727 450.367 131.935ZM432.669 129.049C433.788 129.688 433.781 130.727 432.683 131.361C431.585 131.995 429.798 131.992 428.721 131.364C427.602 130.724 427.609 129.685 428.707 129.051C429.763 128.406 431.55 128.409 432.669 129.049ZM455.43 142.187C456.549 142.827 456.542 143.866 455.444 144.5C454.346 145.134 452.559 145.13 451.482 144.502C450.363 143.863 450.37 142.824 451.468 142.19C452.523 141.544 454.311 141.548 455.43 142.187Z" fill="#DBFFF0" stroke="white" stroke-width="0.5" stroke-linejoin="round"/>
<path d="M452.081 156.796C453.742 155.838 456.457 155.841 458.122 156.808L476.757 145.978C475.107 145.038 475.069 143.488 476.688 142.518L432.012 116.716C430.336 117.648 427.69 117.641 426.024 116.674L407.39 127.504C409.055 128.471 409.066 130.036 407.405 130.994L452.081 156.796ZM450.367 131.935C454.186 134.157 453.563 138.088 448.999 140.758C444.393 143.418 437.587 143.812 433.768 141.59C429.949 139.367 430.572 135.436 435.136 132.766C439.7 130.095 446.522 129.727 450.367 131.935ZM432.669 129.049C433.788 129.688 433.781 130.727 432.683 131.361C431.585 131.995 429.798 131.992 428.721 131.364C427.602 130.724 427.609 129.685 428.707 129.051C429.763 128.406 431.55 128.409 432.669 129.049ZM455.43 142.187C456.549 142.827 456.542 143.866 455.444 144.5C454.346 145.134 452.559 145.13 451.482 144.502C450.363 143.863 450.37 142.824 451.468 142.19C452.523 141.544 454.311 141.548 455.43 142.187Z" stroke="black" stroke-width="0.5" stroke-linejoin="round"/>
<path d="M433.738 141.604C437.557 143.827 444.405 143.444 448.969 140.773C453.575 138.114 454.183 134.157 450.337 131.949C446.519 129.727 439.697 130.094 435.106 132.781C430.527 135.424 429.92 139.382 433.738 141.604Z" fill="#42E68D" stroke="black" stroke-width="0.5" stroke-linejoin="round"/>
<path d="M455.349 162.086L455.301 174.682L485.783 156.976L485.789 144.369L455.349 162.086Z" fill="#38C076" stroke="black" stroke-width="0.5" stroke-linejoin="round"/>
<path d="M398.302 129.139L398.27 141.762L455.301 174.677L455.349 162.081L398.302 129.139Z" fill="#18A659" stroke="black" stroke-width="0.5" stroke-linejoin="round"/>
<mask id="mask0" mask-type="alpha" maskUnits="userSpaceOnUse" x="398" y="129" width="88" height="46">
<path d="M398.271 141.771L398.303 129.148L455.349 162.091L455.301 174.687L398.271 141.771Z" fill="#38C076"/>
<path d="M485.784 156.98L455.301 174.687L455.349 162.091L485.789 144.373L485.784 156.98Z" fill="#38C076"/>
</mask>
<g mask="url(#mask0)">
<path d="M398.328 133.727L455.374 166.669L485.857 148.963" stroke="black" stroke-width="0.5" stroke-linecap="round" stroke-linejoin="round"/>
<path d="M398.336 138.008L455.382 170.95L485.865 153.244" stroke="black" stroke-width="0.5" stroke-linecap="round" stroke-linejoin="round"/>
</g>
<path d="M479.081 100.469L485.938 117.919L484.577 118.824L482.924 117.919L483.021 134.07L481.355 134.999L474.188 130.876L474.186 112.876L470.865 110.958L477.623 101.343L479.081 100.469Z" fill="#DAE172" stroke="black" stroke-width="0.5" stroke-linejoin="round"/>
<path fill-rule="evenodd" clip-rule="evenodd" d="M484.476 118.759L477.717 101.339L470.959 110.954L474.28 112.872L474.282 130.871L481.255 134.897L481.253 116.898L484.476 118.759Z" fill="#F4FC83" stroke="black" stroke-width="0.5" stroke-linejoin="round"/>
<path d="M472.898 368.673L437.825 348.232C436.479 347.442 435.394 348.07 435.394 349.632L435.394 375.487C435.394 377.048 436.479 378.934 437.825 379.725L472.898 400.166C474.243 400.957 475.328 400.328 475.328 398.766L475.328 372.911C475.328 371.35 474.243 369.444 472.898 368.673Z" fill="#B5F4FD" stroke="black" stroke-width="0.5" stroke-linejoin="round"/>
<path d="M475.328 378.811L435.374 355.531L435.374 362.548L475.328 385.848L475.328 378.811Z" fill="black"/>
<path d="M467.393 393.153C466.335 391.326 466.323 389.345 467.367 388.729C468.411 388.112 470.115 389.094 471.174 390.922C472.232 392.749 472.244 394.73 471.2 395.346C470.156 395.962 468.451 394.98 467.393 393.153Z" stroke="black" stroke-width="0.5" stroke-linejoin="round"/>
<path d="M464.221 391.297C463.163 389.47 463.152 387.489 464.195 386.873C465.239 386.257 466.944 387.239 468.002 389.066C469.06 390.894 469.072 392.874 468.028 393.491C466.984 394.107 465.28 393.125 464.221 391.297Z" stroke="black" stroke-width="0.5" stroke-linejoin="round"/>
<path d="M422.824 396.576L404.941 425.796C404.581 426.393 403.824 426.75 402.758 426.718C400.628 426.654 398.091 425.125 397.04 423.271C396.514 422.344 396.475 421.507 396.835 420.911L414.718 391.69C414.359 392.287 414.397 393.123 414.923 394.051C415.975 395.905 418.511 397.434 420.642 397.498C421.707 397.53 422.465 397.173 422.824 396.576Z" fill="#F4FC83" stroke="black" stroke-width="0.5" stroke-miterlimit="10"/>
<path fill-rule="evenodd" clip-rule="evenodd" d="M400.945 426.353C401.552 426.568 402.168 426.696 402.753 426.714C403.818 426.746 404.576 426.389 404.935 425.792L422.807 396.59C422.443 397.176 421.691 397.525 420.636 397.494C420.048 397.476 419.428 397.347 418.818 397.129L400.945 426.353Z" fill="#003032" fill-opacity="0.5"/>
<path d="M422.617 394.213C423.669 396.067 422.77 397.559 420.639 397.495C418.508 397.431 415.972 395.902 414.92 394.048C413.868 392.194 414.767 390.702 416.898 390.766C419.029 390.83 421.565 392.358 422.617 394.213Z" fill="#F4FC83" stroke="black" stroke-width="0.5" stroke-miterlimit="10"/>
<path d="M426.665 384.428L420.432 394.605C420.3 394.824 420.044 394.918 419.7 394.91C418.955 394.909 418.079 394.381 417.729 393.722C417.562 393.422 417.548 393.115 417.68 392.896L423.913 382.72C423.781 382.939 423.817 383.209 423.962 383.546C424.312 384.204 425.188 384.732 425.933 384.734C426.255 384.778 426.533 384.647 426.665 384.428Z" fill="black" stroke="black" stroke-width="0.5" stroke-miterlimit="10"/>
<path d="M426.596 383.639C426.946 384.297 426.66 384.772 425.914 384.77C425.169 384.769 424.293 384.241 423.943 383.582C423.594 382.924 423.88 382.449 424.625 382.451C425.371 382.452 426.247 382.98 426.596 383.639Z" fill="black" stroke="black" stroke-width="0.5" stroke-miterlimit="10"/>
<mask id="mask1" mask-type="alpha" maskUnits="userSpaceOnUse" x="415" y="330" width="34" height="60">
<path d="M444.396 339.672C437.967 328.087 427.262 327.79 420.398 339.071C413.58 350.382 413.239 368.9 419.591 380.503C426.02 392.088 436.725 392.385 443.59 381.103C450.454 369.821 450.825 351.256 444.396 339.672Z" fill="#F0FAFC"/>
</mask>
<g mask="url(#mask1)">
<path d="M479.663 367.24L432.913 339.995C431.119 338.941 429.674 339.778 429.674 341.86L429.673 376.322C429.673 378.404 431.119 380.917 432.913 381.971L479.663 409.217C481.456 410.271 482.902 409.433 482.902 407.352L482.902 372.89C482.902 370.808 481.456 368.268 479.663 367.24Z" fill="#B5F4FD" stroke="black" stroke-width="0.5" stroke-linejoin="round"/>
<path d="M482.902 380.753L429.647 349.723L429.647 359.075L482.902 390.132L482.902 380.753Z" fill="black"/>
<path d="M468.719 385.055L431.812 363.551M431.812 370.032L441.681 375.787" stroke="black" stroke-width="0.5"/>
</g>
<path opacity="0.2" d="M444.396 339.672C437.967 328.087 427.262 327.79 420.398 339.071C413.58 350.382 413.239 368.9 419.591 380.503C426.02 392.088 436.725 392.385 443.59 381.103C450.454 369.821 450.825 351.256 444.396 339.672Z" fill="#25E896"/>
<path d="M431.617 389.568C427.192 389.492 422.849 386.486 419.578 380.627C413.159 368.919 413.463 350.249 420.385 338.872C423.794 333.216 428.196 330.427 432.544 330.522L439.805 330.622C435.456 330.528 431.054 333.317 427.646 338.972C420.724 350.349 420.42 369.019 426.838 380.727C430.081 386.633 434.453 389.592 438.877 389.668C436.689 389.644 433.806 389.591 431.617 389.568Z" fill="#B5F4FD" stroke="black" stroke-width="0.5" stroke-miterlimit="10"/>
<path d="M432.552 330.522L439.813 330.623C444.237 330.698 448.58 333.704 451.852 339.563L444.591 339.463C441.32 333.604 436.977 330.598 432.552 330.522Z" fill="white" stroke="black" stroke-width="0.5" stroke-miterlimit="10"/>
<path d="M438.856 389.709L431.624 389.562C435.972 389.656 440.374 386.867 443.783 381.212C450.705 369.835 451.009 351.165 444.59 339.457L451.851 339.557C458.298 351.218 457.966 369.935 451.044 381.312C447.587 386.939 443.185 389.728 438.856 389.709Z" fill="white" stroke="black" stroke-width="0.5" stroke-miterlimit="10"/>
<path d="M581.003 264.535V273.525C581.003 279.288 577.228 285.097 569.769 289.476C554.713 298.374 530.197 298.374 515.005 289.476C507.318 285.05 503.543 279.149 503.543 273.295L503.588 264.305C503.588 270.16 507.364 276.015 515.005 280.486C530.197 289.384 554.713 289.384 569.769 280.486C577.228 276.061 581.003 270.298 581.003 264.535Z" fill="#D4F3E1" stroke="black" stroke-width="0.5" stroke-linejoin="round"/>
<path d="M580.94 264.81C580.975 252.371 563.597 242.237 542.124 242.176C520.652 242.116 503.216 252.15 503.181 264.59C503.146 277.029 520.524 287.163 541.996 287.223C563.469 287.284 580.904 277.25 580.94 264.81Z" fill="#F1FFF7" stroke="black" stroke-width="0.5" stroke-linejoin="round"/>
<path d="M101.491 265.25L59.1442 289.891L16.5234 265.25L58.8706 240.609L101.491 265.25Z" fill="#F1FFF7" stroke="black" stroke-width="0.5" stroke-linejoin="round"/>
<path d="M31.9308 276.688C23.7637 271.811 23.9095 263.979 32.1495 259.25C40.3896 254.521 53.734 254.595 61.8282 259.472C69.9953 264.348 69.8495 272.181 61.6094 276.909C53.3694 281.638 40.025 281.564 31.9308 276.688Z" fill="#D4F3E1"/>
<path d="M101.492 265.254L101.457 277.547L59.0078 301.79L59.0078 289.497L101.492 265.254Z" fill="#F1FFF7" stroke="black" stroke-width="0.5" stroke-linejoin="round"/>
<path d="M16.5238 265.254L16.5582 277.547L59.0078 301.79L59.0078 289.497L16.5238 265.254Z" fill="#D4F3E1" stroke="black" stroke-width="0.5" stroke-linejoin="round"/>
<path d="M80.9215 265.748C80.9215 269.052 78.7395 272.355 74.4507 274.814C65.9483 279.731 52.179 279.654 43.8271 274.583C39.6888 272.048 37.582 268.821 37.582 265.517V259.602C37.582 262.828 39.6136 266.132 43.8271 268.667C52.2542 273.738 65.9483 273.815 74.4507 268.898C78.7395 266.439 80.9215 263.136 80.9215 259.832V265.748Z" fill="#E8E8E8" stroke="black" stroke-width="0.5" stroke-linejoin="round"/>
<path d="M43.821 268.96C35.3905 263.926 35.5411 255.842 44.0468 250.96C52.5525 246.079 66.3273 246.155 74.6825 251.189C83.113 256.223 82.9624 264.308 74.4567 269.189C65.951 274.071 52.1762 273.994 43.821 268.96Z" fill="white" stroke="black" stroke-width="0.5" stroke-linejoin="round"/>
<path d="M75.2621 254.993L75.2364 259.605C75.2364 261.78 73.881 263.932 70.7677 265.588C64.5411 268.922 54.4036 268.922 48.1513 265.588C44.9865 263.909 43.6055 261.709 43.6055 259.534L43.6312 254.898C43.6312 257.098 45.0123 259.297 48.177 260.953C54.4551 264.287 64.5669 264.287 70.7935 260.953C73.881 259.321 75.2364 257.145 75.2621 254.993Z" fill="#E8E8E8" stroke="black" stroke-width="0.5" stroke-linejoin="round"/>
<path d="M75.2387 255.3C75.253 250.243 68.1882 246.124 59.4591 246.099C50.7299 246.074 43.6418 250.154 43.6275 255.211C43.6132 260.268 50.678 264.387 59.4072 264.412C68.1363 264.437 75.2244 260.357 75.2387 255.3Z" fill="white" stroke="black" stroke-width="0.5" stroke-linejoin="round"/>
<path d="M69.6104 250.533L69.5937 253.498C69.5937 254.897 68.5948 256.28 66.5803 257.344C62.5513 259.488 55.9918 259.488 51.9462 257.344C49.8984 256.265 48.8828 254.851 48.8828 253.452L48.8995 250.473C48.8995 251.887 49.915 253.3 51.9628 254.365C56.0251 256.508 62.568 256.508 66.597 254.365C68.5948 253.316 69.5937 251.917 69.6104 250.533Z" fill="#E8E8E8" stroke="black" stroke-width="0.5" stroke-linejoin="round"/>
<path d="M66.5475 246.481C70.6146 248.694 70.6313 252.274 66.5975 254.472C62.5637 256.67 55.9962 256.686 51.9457 254.472C47.8786 252.274 47.8619 248.694 51.8957 246.481C55.9295 244.267 62.497 244.267 66.5475 246.481Z" fill="white" stroke="black" stroke-width="0.5" stroke-linejoin="round"/>
<path d="M56.301 251.791C54.5853 250.747 54.5853 249.106 56.3756 248.136C58.1659 247.166 60.926 247.166 62.7163 248.211C64.432 249.255 64.432 250.896 62.6417 251.866C60.8514 252.836 58.0913 252.836 56.301 251.791Z" fill="black" stroke="black" stroke-width="0.5" stroke-linejoin="round"/>
<path d="M59.2484 186.523C57.7005 186.523 56.4219 187.941 56.4219 189.658V247.941C56.4219 248.016 56.4219 248.016 56.4219 248.016V251.747C57.9697 252.717 60.4597 252.717 62.0748 251.747V189.583C62.0748 187.941 60.7962 186.523 59.2484 186.523Z" fill="white" stroke="black" stroke-width="0.5" stroke-linejoin="round"/>
<path opacity="0.2" d="M59.2521 208.328C57.7065 208.328 56.4297 209.84 56.4297 211.67V224.004C57.3033 224.163 58.2441 224.322 59.1849 224.322C60.1929 224.322 61.1337 224.163 62.0745 224.004V211.67C62.0745 209.84 60.7977 208.328 59.2521 208.328Z" fill="black"/>
<path d="M59.1238 217.243C67.8499 217.404 75.0543 210.46 75.2151 201.734C75.376 193.008 68.4325 185.804 59.7063 185.643C50.9802 185.482 43.7758 192.426 43.615 201.152C43.4541 209.878 50.3976 217.082 59.1238 217.243Z" fill="#F4FC83" stroke="black" stroke-width="0.5" stroke-linejoin="round"/>
<path d="M59.6055 191.086C65.3092 191.191 69.8782 195.932 69.7731 201.635" stroke="white" stroke-width="3" stroke-miterlimit="10" stroke-linecap="round"/>
<path d="M59.1238 217.243C67.8499 217.404 75.0543 210.46 75.2151 201.734C75.376 193.008 68.4325 185.804 59.7063 185.643C50.9802 185.482 43.7758 192.426 43.615 201.152C43.4541 209.878 50.3976 217.082 59.1238 217.243Z" stroke="black" stroke-width="0.5" stroke-linejoin="round"/>
<path opacity="0.2" d="M62.971 210.891C54.2514 210.73 47.3014 203.519 47.4621 194.8C47.4912 193.226 47.7812 191.723 48.2012 190.288C45.4612 193.058 43.6853 196.894 43.608 201.09C43.4472 209.81 50.3972 217.021 59.1168 217.181C65.8039 217.305 71.5838 213.28 73.9873 207.421C73.3924 207.673 72.7987 207.859 72.205 208.044C69.6131 209.899 66.3801 210.954 62.971 210.891Z" fill="black"/>
<path d="M545.5 252.004L546.985 251.129L556.21 251.368L554.726 252.216L545.5 252.004Z" fill="black" stroke="black" stroke-width="0.5" stroke-linejoin="round"/>
<path d="M545.522 238.852L557.611 252.955V254.678L545.469 254.758L545.495 252.001L554.721 252.213V252.054L545.522 241.635V238.852Z" fill="black" stroke="black" stroke-width="0.5" stroke-linejoin="round"/>
<path d="M545.527 238.851L547.012 237.977L559.127 252.08L557.616 252.955L545.527 238.851Z" fill="black" stroke="black" stroke-width="0.5" stroke-linejoin="round"/>
<path d="M557.609 252.953L559.12 252.078L559.094 253.801L557.609 254.676V252.953Z" fill="black" stroke="black" stroke-width="0.5" stroke-linejoin="round"/>
<path d="M533.945 252.128L540.255 229.223L542.27 230.389L535.987 253.321L533.945 252.128Z" fill="black" stroke="black" stroke-width="0.5" stroke-linejoin="round"/>
<path d="M540.25 229.219L541.735 228.344L543.776 229.51L542.265 230.385L540.25 229.219Z" fill="black" stroke="black" stroke-width="0.5" stroke-linejoin="round"/>
<path d="M542.264 230.387L543.775 229.512L537.465 252.444L535.98 253.318L542.264 230.387Z" fill="black" stroke="black" stroke-width="0.5" stroke-linejoin="round"/>
<path d="M521.484 232.859L522.995 231.984V232.17L521.484 233.045V232.859Z" fill="black" stroke="black" stroke-width="0.5" stroke-linejoin="round"/>
<path d="M521.484 233.043L522.995 232.168L532.195 242.587L530.71 243.462L521.484 233.043Z" fill="black" stroke="black" stroke-width="0.5" stroke-linejoin="round"/>
<path d="M530.71 243.465L532.195 242.59V245.373L530.684 246.222L530.71 243.465Z" fill="black" stroke="black" stroke-width="0.5" stroke-linejoin="round"/>
<path d="M518.586 232.138V230.415L530.728 230.309V233.066L521.476 232.854V233.039L530.701 243.458L530.675 246.215L518.586 232.138Z" fill="black" stroke="black" stroke-width="0.5" stroke-linejoin="round"/>
<path d="M518.586 230.422L520.097 229.547L532.212 229.441L530.728 230.316L518.586 230.422Z" fill="black" stroke="black" stroke-width="0.5" stroke-linejoin="round"/>
<path d="M530.727 230.316L532.211 229.441V232.225L530.727 233.073V230.316Z" fill="black" stroke="black" stroke-width="0.5" stroke-linejoin="round"/>
<path d="M577.844 227.627L577.689 285.727L510.084 246.5L510.253 188.414L577.844 227.627Z" fill="white"/>
<path d="M510.084 246.5L577.689 285.727L577.844 227.627L510.253 188.414L510.084 246.5ZM510.084 246.5L506.207 248.809" stroke="black" stroke-width="0.5" stroke-linejoin="round"/>
<path d="M573.959 229.944L573.804 288.044L506.199 248.816L506.368 190.73L573.959 229.944Z" fill="white" fill-opacity="0.8" stroke="black" stroke-width="0.5" stroke-linejoin="round"/>
<path d="M573.955 229.944L573.938 236.602L506.344 197.676L506.364 190.73L573.955 229.944Z" fill="#25E896" stroke="black" stroke-width="0.5" stroke-linejoin="round"/>
<path d="M573.959 229.944L577.92 227.629L577.752 285.729L573.805 288.044L573.959 229.944Z" fill="#DEDEDE" stroke="black" stroke-width="0.5" stroke-linejoin="round"/>
<path d="M577.916 227.629L573.955 229.944L573.938 236.594L577.896 234.12L577.916 227.629Z" fill="#38C076" stroke="black" stroke-width="0.5" stroke-linejoin="round"/>
<path d="M506.371 190.729L510.332 188.414L577.923 227.627L573.962 229.942L506.371 190.729Z" fill="#5BFFBA" stroke="black" stroke-width="0.5" stroke-linejoin="round"/>
<path d="M516.06 200.928C516.798 200.928 517.397 200.329 517.397 199.591C517.397 198.853 516.798 198.254 516.06 198.254C515.321 198.254 514.723 198.853 514.723 199.591C514.723 200.329 515.321 200.928 516.06 200.928Z" fill="white" stroke="black" stroke-width="0.5" stroke-linejoin="round"/>
<path d="M515.419 200.013C516.117 200.013 516.695 199.435 516.695 198.737C516.695 198.615 516.664 198.494 516.634 198.402C517.09 198.615 517.394 199.071 517.394 199.587C517.394 200.317 516.786 200.924 516.057 200.924C515.388 200.924 514.841 200.438 514.75 199.831C514.932 199.952 515.175 200.013 515.419 200.013Z" fill="#D1D1D1"/>
<path d="M512.786 199.135C513.525 199.135 514.123 198.536 514.123 197.798C514.123 197.06 513.525 196.461 512.786 196.461C512.048 196.461 511.449 197.06 511.449 197.798C511.449 198.536 512.048 199.135 512.786 199.135Z" fill="white" stroke="black" stroke-width="0.5" stroke-linejoin="round"/>
<path d="M512.114 198.224C512.813 198.224 513.39 197.646 513.39 196.948C513.39 196.826 513.36 196.704 513.329 196.613C513.785 196.826 514.089 197.282 514.089 197.798C514.089 198.528 513.481 199.135 512.752 199.135C512.083 199.135 511.536 198.649 511.445 198.041C511.658 198.163 511.871 198.224 512.114 198.224Z" fill="#D1D1D1"/>
<path d="M509.505 197.342C510.243 197.342 510.842 196.743 510.842 196.005C510.842 195.267 510.243 194.668 509.505 194.668C508.767 194.668 508.168 195.267 508.168 196.005C508.168 196.743 508.767 197.342 509.505 197.342Z" fill="white" stroke="black" stroke-width="0.5" stroke-linejoin="round"/>
<path d="M508.836 196.431C509.535 196.431 510.113 195.853 510.113 195.155C510.113 195.033 510.082 194.911 510.052 194.82C510.508 195.033 510.812 195.489 510.812 196.005C510.812 196.735 510.204 197.342 509.475 197.342C508.806 197.342 508.259 196.856 508.168 196.248C508.381 196.34 508.593 196.431 508.836 196.431Z" fill="#D1D1D1"/>
<path d="M516.071 200.928C516.81 200.928 517.408 200.329 517.408 199.591C517.408 198.853 516.81 198.254 516.071 198.254C515.333 198.254 514.734 198.853 514.734 199.591C514.734 200.329 515.333 200.928 516.071 200.928Z" stroke="black" stroke-width="0.5" stroke-linejoin="round"/>
<path d="M512.786 199.131C513.525 199.131 514.123 198.532 514.123 197.794C514.123 197.056 513.525 196.457 512.786 196.457C512.048 196.457 511.449 197.056 511.449 197.794C511.449 198.532 512.048 199.131 512.786 199.131Z" stroke="black" stroke-width="0.5" stroke-linejoin="round"/>
<path d="M509.505 197.342C510.243 197.342 510.842 196.743 510.842 196.005C510.842 195.267 510.243 194.668 509.505 194.668C508.767 194.668 508.168 195.267 508.168 196.005C508.168 196.743 508.767 197.342 509.505 197.342Z" stroke="black" stroke-width="0.5" stroke-linejoin="round"/>
<path d="M543.988 252.894L545.473 252.02L554.699 252.258L553.214 253.106L543.988 252.894Z" fill="#009BBD" stroke="black" stroke-width="0.5" stroke-linejoin="round"/>
<path d="M544.014 239.738L556.103 253.842V255.565L543.961 255.645L543.987 252.888L553.213 253.1V252.941L544.014 242.522V239.738Z" fill="#B5F4FD" stroke="black" stroke-width="0.5" stroke-linejoin="round"/>
<path d="M544.016 239.738L545.5 238.863L557.616 252.967L556.105 253.842L544.016 239.738Z" fill="#DCFBFF" stroke="black" stroke-width="0.5" stroke-linejoin="round"/>
<path d="M556.098 253.844L557.609 252.969L557.582 254.692L556.098 255.567V253.844Z" fill="#009BBD" stroke="black" stroke-width="0.5" stroke-linejoin="round"/>
<path d="M532.43 253.026L538.739 230.121L540.754 231.288L534.471 254.219L532.43 253.026Z" fill="#B5F4FD" stroke="black" stroke-width="0.5" stroke-linejoin="round"/>
<path d="M538.746 230.121L540.231 229.246L542.272 230.413L540.761 231.287L538.746 230.121Z" fill="#DCFBFF" stroke="black" stroke-width="0.5" stroke-linejoin="round"/>
<path d="M540.756 231.285L542.267 230.41L535.957 253.342L534.473 254.217L540.756 231.285Z" fill="#009BBD" stroke="black" stroke-width="0.5" stroke-linejoin="round"/>
<path d="M519.973 233.742L521.484 232.867V233.053L519.973 233.928V233.742Z" fill="#B5F4FD" stroke="black" stroke-width="0.5" stroke-linejoin="round"/>
<path d="M519.973 233.922L521.484 233.047L530.683 243.466L529.198 244.34L519.973 233.922Z" fill="#009BBD" stroke="black" stroke-width="0.5" stroke-linejoin="round"/>
<path d="M529.202 244.351L530.687 243.477V246.26L529.176 247.109L529.202 244.351Z" fill="#009BBD" stroke="black" stroke-width="0.5" stroke-linejoin="round"/>
<path d="M517.082 233.028V231.305L529.224 231.199V233.956L519.972 233.744V233.93L529.197 244.349L529.171 247.106L517.082 233.028Z" fill="#B5F4FD" stroke="black" stroke-width="0.5" stroke-linejoin="round"/>
<path d="M517.082 231.301L518.593 230.426L530.709 230.32L529.224 231.195L517.082 231.301Z" fill="#DCFBFF" stroke="black" stroke-width="0.5" stroke-linejoin="round"/>
<path d="M529.227 231.195L530.711 230.32V233.104L529.227 233.952V231.195Z" fill="#009BBD" stroke="black" stroke-width="0.5" stroke-linejoin="round"/>
</svg>
