<svg width="520" height="464" viewBox="0 0 520 464" fill="none" xmlns="http://www.w3.org/2000/svg">
<path opacity="0.05" d="M450.617 318.512L248.139 436.781L0 295.208L202.478 177.305L450.617 318.512Z" fill="black"/>
<path d="M513.998 279.149L268.999 421.524L22.2422 279.149L267.376 136.773L513.998 279.149Z" fill="#F1FFF7" stroke="black" stroke-width="0.5" stroke-linejoin="round"/>
<path d="M513.997 279.145V289.15L268.863 431.525L268.998 421.52L513.997 279.145Z" fill="#F1FFF7" stroke="black" stroke-width="0.5" stroke-linejoin="round"/>
<path d="M268.999 421.52L268.864 431.525L22.2422 289.15V279.145L268.999 421.52Z" fill="#CCF2DD" stroke="black" stroke-width="0.5" stroke-linejoin="round"/>
<path fill-rule="evenodd" clip-rule="evenodd" d="M99.0767 234.704L210.9 299.278L339.023 224.856L227.206 160.285L99.0767 234.704Z" fill="#D7D7D7"/>
<path fill-rule="evenodd" clip-rule="evenodd" d="M352.416 308.773L326.484 293.799L288.141 315.722L314.074 330.696L352.416 308.773Z" fill="#D7D7D7"/>
<path d="M305.484 196.365C308.906 198.32 314.243 198.296 317.601 196.358C320.959 194.419 320.898 191.287 317.558 189.285C314.135 187.329 308.798 187.353 305.441 189.292C302.001 191.278 302.062 194.409 305.484 196.365Z" fill="#25E896" stroke="black" stroke-width="0.5" stroke-linejoin="round"/>
<path d="M375.011 236.593C378.433 238.549 383.77 238.525 387.128 236.586C390.486 234.648 390.425 231.516 387.085 229.513C383.663 227.558 378.326 227.582 374.968 229.52C371.657 231.541 371.671 234.591 375.011 236.593Z" fill="#25E896" stroke="black" stroke-width="0.5" stroke-linejoin="round"/>
<path d="M212.509 189.66L386.97 290.405L480.193 236.255L305.732 135.51L212.509 189.66Z" fill="#25E896" stroke="black" stroke-width="0.5" stroke-linejoin="round"/>
<path d="M376.975 274.223C382.052 271.292 390.357 271.302 395.449 274.258L452.438 241.138C447.393 238.263 447.278 233.524 452.227 230.558L315.598 151.65C310.473 154.499 302.379 154.477 297.287 151.52L240.298 184.641C245.39 187.598 245.423 192.383 240.346 195.315L376.975 274.223ZM371.733 198.19C383.411 204.988 381.506 217.008 367.548 225.176C353.462 233.309 332.647 234.516 320.969 227.717C309.291 220.919 311.196 208.899 325.153 200.732C339.111 192.564 359.973 191.439 371.733 198.19ZM317.607 189.364C321.029 191.319 321.008 194.498 317.651 196.437C314.293 198.376 308.827 198.365 305.534 196.444C302.111 194.489 302.133 191.31 305.49 189.371C308.719 187.398 314.185 187.409 317.607 189.364ZM387.215 229.546C390.637 231.501 390.616 234.68 387.259 236.618C383.901 238.557 378.435 238.546 375.142 236.626C371.72 234.67 371.741 231.491 375.098 229.553C378.327 227.579 383.793 227.59 387.215 229.546Z" fill="#25E896" stroke="white" stroke-width="0.5" stroke-linejoin="round"/>
<path d="M376.975 274.223C382.052 271.292 390.357 271.302 395.449 274.258L452.438 241.138C447.393 238.263 447.278 233.524 452.227 230.558L315.598 151.65C310.473 154.499 302.379 154.477 297.287 151.52L240.298 184.641C245.39 187.598 245.423 192.383 240.346 195.315L376.975 274.223ZM371.733 198.19C383.411 204.988 381.506 217.008 367.548 225.176C353.462 233.309 332.647 234.516 320.969 227.717C309.291 220.919 311.196 208.899 325.153 200.732C339.111 192.564 359.973 191.439 371.733 198.19ZM317.607 189.364C321.029 191.319 321.008 194.498 317.651 196.437C314.293 198.376 308.827 198.365 305.534 196.444C302.111 194.489 302.133 191.31 305.49 189.371C308.719 187.398 314.185 187.409 317.607 189.364ZM387.215 229.546C390.637 231.501 390.616 234.68 387.259 236.618C383.901 238.557 378.435 238.546 375.142 236.626C371.72 234.67 371.741 231.491 375.098 229.553C378.327 227.579 383.793 227.59 387.215 229.546Z" fill="#7EFFC9" stroke="black" stroke-width="0.5" stroke-linejoin="round"/>
<path d="M212.417 189.628L261.328 217.873L354.5 163.752L305.589 135.508L212.417 189.628Z" fill="#009BBD" fill-opacity="0.5"/>
<path d="M320.887 227.766C332.565 234.564 353.509 233.392 367.467 225.224C381.553 217.092 383.411 204.99 371.651 198.239C359.973 191.441 339.111 192.566 325.072 200.78C311.067 208.866 309.209 220.968 320.887 227.766Z" fill="#25E896" stroke="black" stroke-width="0.5" stroke-linejoin="round"/>
<path d="M386.967 290.4L386.821 328.922L480.044 274.772L480.06 236.216L386.967 290.4Z" fill="#16C47B" stroke="black" stroke-width="0.5" stroke-linejoin="round"/>
<path d="M212.504 189.658L212.406 228.262L386.82 328.925L386.965 290.404L212.504 189.658Z" fill="#19AD6F" stroke="black" stroke-width="0.5" stroke-linejoin="round"/>
<path fill-rule="evenodd" clip-rule="evenodd" d="M352.222 308.669L326.29 293.695L334.424 260.292L355.561 272.558L352.222 308.669Z" fill="#009BBD" fill-opacity="0.5"/>
<mask id="mask0" mask-type="alpha" maskUnits="userSpaceOnUse" x="212" y="189" width="269" height="140">
<path d="M212.41 228.26L212.508 189.656L386.969 290.402L386.824 328.923L212.41 228.26Z" fill="#25E896"/>
<path d="M480.047 274.773L386.824 328.923L386.969 290.402L480.062 236.217L480.047 274.773Z" fill="#25E896"/>
</mask>
<g mask="url(#mask0)">
<path d="M212.578 195.395L387.04 296.14L480.262 241.99" stroke="black" stroke-width="0.5" stroke-linecap="round" stroke-linejoin="round"/>
<path d="M212.578 201.102L387.04 301.847L480.262 247.697" stroke="black" stroke-width="0.5" stroke-linecap="round" stroke-linejoin="round"/>
<path d="M212.578 206.797L387.039 307.542L479.921 253.591" stroke="black" stroke-width="0.5" stroke-linecap="round" stroke-linejoin="round"/>
<path d="M212.578 212.5L387.04 313.245L480.262 259.096" stroke="black" stroke-width="0.5" stroke-linecap="round" stroke-linejoin="round"/>
<path d="M212.578 218.207L387.04 318.952L480.262 264.803" stroke="black" stroke-width="0.5" stroke-linecap="round" stroke-linejoin="round"/>
<path d="M212.578 223.914L387.04 324.659L480.262 270.51" stroke="black" stroke-width="0.5" stroke-linecap="round" stroke-linejoin="round"/>
</g>
<path d="M376.975 274.223C382.052 271.292 390.357 271.302 395.449 274.258L452.438 241.138C447.393 238.263 447.278 233.524 452.227 230.558L315.598 151.65C310.473 154.499 302.379 154.477 297.287 151.52L240.298 184.641C245.39 187.598 245.423 192.383 240.346 195.315L376.975 274.223ZM371.733 198.19C383.411 204.988 381.506 217.008 367.548 225.176C353.462 233.309 332.647 234.516 320.969 227.717C309.291 220.919 311.196 208.899 325.153 200.732C339.111 192.564 359.973 191.439 371.733 198.19ZM317.607 189.364C321.029 191.319 321.008 194.498 317.651 196.437C314.293 198.376 308.827 198.365 305.534 196.444C302.111 194.489 302.133 191.31 305.49 189.371C308.719 187.398 314.185 187.409 317.607 189.364ZM387.215 229.546C390.637 231.501 390.616 234.68 387.259 236.618C383.901 238.557 378.435 238.546 375.142 236.626C371.72 234.67 371.741 231.491 375.098 229.553C378.327 227.579 383.793 227.59 387.215 229.546Z" stroke="black" stroke-width="0.5" stroke-linejoin="round"/>
<path d="M361.523 93.296L361.523 93.546L361.739 93.671L371.671 99.4054L371.671 104.468L361.739 98.7331L361.523 98.6081L361.523 98.8581L361.523 110.326L357.14 107.795L357.139 96.3269L357.139 96.0769L356.923 95.9519L346.991 90.2174L346.991 85.1553L356.922 90.8897L357.139 91.0147L357.139 90.7647L357.138 79.2968L361.522 81.8281L361.523 93.296Z" fill="white" stroke="black" stroke-width="0.5"/>
<path d="M403.953 162.18L403.953 162.181C403.961 164.262 403.383 165.837 402.288 166.592C401.196 167.345 399.574 167.292 397.461 166.072C395.34 164.847 393.727 163.033 392.64 161.022C391.55 159.006 390.976 156.764 390.968 154.682C390.968 154.682 390.968 154.682 390.968 154.682L390.968 152.751C390.968 152.751 390.968 152.751 390.968 152.751C390.976 150.679 391.565 149.11 392.662 148.355C393.757 147.603 395.371 147.653 397.46 148.859C399.606 150.098 401.227 151.908 402.311 153.912C403.397 155.922 403.961 158.155 403.953 160.247L403.953 160.248L403.953 162.18ZM387.823 131.898L387.823 131.899C387.831 133.998 387.253 135.564 386.16 136.306C385.07 137.047 383.453 136.979 381.346 135.763C379.216 134.533 377.599 132.725 376.511 130.722C375.42 128.714 374.846 126.482 374.838 124.4L374.838 122.469C374.845 120.38 375.442 118.815 376.545 118.068C377.646 117.323 379.263 117.384 381.346 118.586C383.483 119.82 385.1 121.628 386.182 123.631C387.267 125.639 387.83 127.873 387.823 129.965L387.823 129.966L387.823 131.898ZM394.579 154.833L394.579 154.835L394.579 156.768L394.579 156.77C394.587 157.741 394.762 158.841 395.211 159.865C395.669 160.908 396.399 161.843 397.461 162.457C398.522 163.069 399.253 162.983 399.707 162.467C400.153 161.961 400.319 161.057 400.311 160.076L400.311 158.146C400.319 157.178 400.169 156.083 399.732 155.057C399.285 154.009 398.552 153.069 397.46 152.438C396.412 151.833 395.683 151.932 395.223 152.45C394.77 152.959 394.587 153.861 394.579 154.833ZM378.48 124.569L378.48 124.569L378.48 124.571L378.48 126.503L378.48 126.506C378.488 127.485 378.658 128.582 379.104 129.602C379.558 130.642 380.285 131.57 381.346 132.183C382.407 132.796 383.135 132.707 383.585 132.189C384.027 131.68 384.189 130.774 384.181 129.794L384.181 127.864C384.189 126.897 384.043 125.805 383.61 124.781C383.167 123.734 382.438 122.796 381.346 122.165C380.289 121.555 379.563 121.661 379.109 122.186C378.663 122.701 378.488 123.607 378.48 124.569ZM401.309 131.132L379.792 154.85L376.429 152.908L397.945 129.19L401.309 131.132Z" fill="white" stroke="black" stroke-width="0.5"/>
<path d="M212.513 189.652L386.974 290.397L480.197 236.248L305.736 135.502L212.513 189.652Z" stroke="black" stroke-width="0.5" stroke-linejoin="round"/>
<path d="M280.259 94.8504L266.783 87.229L266.783 96.2028L280.319 103.858L280.259 94.8504Z" fill="#38A0B7" stroke="black" stroke-width="0.5" stroke-linejoin="round"/>
<path d="M180.058 72.6224C183.48 74.5778 188.817 74.554 192.175 72.6154C195.533 70.6767 195.472 67.5451 192.132 65.5424C188.71 63.5871 183.373 63.6108 180.015 65.5495C176.575 67.5354 176.636 70.667 180.058 72.6224Z" fill="#25E896" stroke="black" stroke-width="0.5" stroke-linejoin="round"/>
<path d="M249.581 112.851C253.003 114.806 258.34 114.783 261.698 112.844C265.056 110.905 264.995 107.774 261.655 105.771C258.233 103.816 252.896 103.839 249.538 105.778C246.228 107.799 246.241 110.848 249.581 112.851Z" fill="#25E896" stroke="black" stroke-width="0.5" stroke-linejoin="round"/>
<path d="M87.0754 99.6559L261.537 200.401L354.759 146.251L180.298 45.5062L87.0754 99.6559Z" fill="#25E896" stroke="black" stroke-width="0.5" stroke-linejoin="round"/>
<path d="M251.541 184.219C256.619 181.288 264.924 181.298 270.016 184.254L327.005 151.134C321.96 148.259 321.845 143.52 326.793 140.554L190.164 61.6457C185.039 64.4954 176.945 64.4728 171.853 61.5161L114.864 94.637C119.957 97.5937 119.99 102.379 114.912 105.311L251.541 184.219ZM246.299 108.186C257.978 114.984 256.072 127.004 242.115 135.172C228.028 143.305 207.213 144.512 195.535 137.714C183.857 130.915 185.762 118.895 199.72 110.728C213.677 102.56 234.54 101.435 246.299 108.186ZM192.174 99.36C195.596 101.315 195.575 104.494 192.217 106.433C188.859 108.372 183.393 108.361 180.1 106.44C176.678 104.485 176.699 101.306 180.057 99.3671C183.285 97.3938 188.752 97.4047 192.174 99.36ZM261.782 139.542C265.204 141.497 265.183 144.676 261.825 146.615C258.467 148.553 253.001 148.542 249.708 146.622C246.286 144.666 246.307 141.487 249.665 139.549C252.894 137.575 258.36 137.586 261.782 139.542Z" fill="#7EFFC9" stroke="black" stroke-width="0.5" stroke-linejoin="round"/>
<path d="M184.156 149.845L170.679 142.223L218.695 114.676L266.711 87.1281L280.248 94.7838L232.202 122.314L184.156 149.845Z" fill="white" stroke="black" stroke-width="0.5" stroke-linejoin="round"/>
<path d="M184.156 149.839L170.679 142.218L217.779 115.193L230.933 123.033L184.156 149.839Z" fill="#D7D7D7" stroke="black" stroke-width="0.5" stroke-linejoin="round"/>
<path d="M184.158 149.843L170.681 142.221L170.681 151.195L184.218 158.851L184.158 149.843Z" fill="white" stroke="black" stroke-width="0.5" stroke-linejoin="round"/>
<path d="M134.805 233.934C130.811 236.259 127.57 233.803 127.57 228.467V87.2021C127.57 81.8657 130.811 75.6782 134.805 73.3538C138.8 71.0294 142.041 73.4848 142.041 78.8211V220.086C142.073 225.422 138.832 231.643 134.805 233.934Z" fill="#D7D7D7" stroke="black" stroke-width="0.5" stroke-linejoin="round"/>
<path d="M230.723 121.885L230.723 53.4682C230.723 49.8005 228.495 45.5477 225.75 43.9501C224.016 42.9412 221.54 43.5749 220.676 44.7058C220.676 44.7058 218.998 46.3376 218.998 48.8578V117.274L228.944 123.035L230.723 121.885Z" fill="white" stroke="black" stroke-width="0.5" stroke-linejoin="round"/>
<path d="M228.953 54.6171V123.034L219.008 117.273L219.008 48.8568C219.008 45.1891 221.235 43.5015 223.98 45.099C226.725 46.6966 228.953 50.9494 228.953 54.6171Z" fill="white" stroke="black" stroke-width="0.5" stroke-linejoin="round"/>
<path d="M228.953 54.6236V123.04L223.98 120.16V45.1055C226.725 46.7031 228.953 50.9558 228.953 54.6236Z" fill="white" stroke="black" stroke-width="0.5" stroke-linejoin="round"/>
<path d="M157.285 91.0736L221.758 53.9969C222.222 53.729 222.881 53.7984 223.62 54.2915C225.118 55.2467 226.411 57.4858 226.498 59.2758C226.542 60.1709 226.281 60.7915 225.804 61.0674L161.331 98.144C161.795 97.8761 162.065 97.2707 162.026 96.3525C161.939 94.5624 160.655 92.3387 159.148 91.3682C158.395 90.8829 157.749 90.8056 157.285 91.0736Z" fill="white" stroke="black" stroke-width="0.5" stroke-linejoin="round"/>
<path fill-rule="evenodd" clip-rule="evenodd" d="M225.61 56.9757L161.222 94.004C161.581 94.7539 161.809 95.5434 161.844 96.2628C161.883 97.1799 161.614 97.7844 161.15 98.052L225.539 61.0236C226.016 60.7481 226.276 60.1282 226.233 59.2344C226.198 58.5165 225.969 57.7262 225.61 56.9757Z" fill="#D7D7D7"/>
<path d="M187.039 106.555L137.365 77.9585C136.942 77.7142 136.361 77.7437 135.726 78.1241C134.44 78.858 133.391 80.6748 133.391 82.1684C133.392 82.9152 133.649 83.4457 134.085 83.6971L183.759 112.293C183.335 112.049 183.07 111.531 183.065 110.765C183.064 109.271 184.106 107.467 185.4 106.72C186.047 106.347 186.616 106.31 187.039 106.555Z" fill="white" stroke="black" stroke-width="0.5" stroke-linejoin="round"/>
<path fill-rule="evenodd" clip-rule="evenodd" d="M134.09 80.6638L183.763 109.26C183.572 109.762 183.463 110.277 183.463 110.761C183.469 111.527 183.734 112.045 184.157 112.289L134.483 83.6932C134.048 83.4418 133.79 82.9113 133.79 82.1645C133.79 81.6822 133.899 81.1662 134.09 80.6638Z" fill="#D7D7D7"/>
<path d="M71.659 292.712L146.675 336.295L222.23 292.712L147.161 249.074L71.659 292.712Z" fill="#D7D7D7"/>
<path d="M207.602 266.482C203.004 263.794 199.184 265.987 199.184 271.293C199.184 276.598 202.933 283.106 207.531 285.794C212.129 288.482 215.949 286.289 215.949 280.984C215.949 275.608 212.2 269.17 207.602 266.482Z" fill="#009BBD" stroke="black" stroke-width="0.5" stroke-linejoin="round"/>
<path d="M201.612 265.931L206.542 263.016C208.099 262.167 210.221 262.308 212.484 263.581C217.082 266.269 220.902 272.848 220.902 278.153C220.832 280.771 219.912 282.681 218.427 283.53L213.475 286.359C215.031 285.44 215.951 283.6 215.951 280.983C215.951 275.607 212.131 269.099 207.533 266.411C205.251 265.097 203.155 265.079 201.612 265.931Z" fill="#009BBD" stroke="black" stroke-width="0.5" stroke-linejoin="round"/>
<path d="M201.095 274.641C198.336 273.085 196.144 274.358 196.144 277.47C196.144 280.583 198.336 284.403 201.095 286.03C203.854 287.586 206.047 286.313 206.047 283.2C206.047 280.088 203.783 276.197 201.095 274.641Z" fill="#009BBD" stroke="black" stroke-width="0.5" stroke-linejoin="round"/>
<path d="M199.606 274.003C198.333 274.357 197.555 275.56 197.555 277.399C197.555 280.511 199.748 284.331 202.507 285.958C203.002 286.241 203.497 286.453 203.992 286.524C203.143 286.736 202.153 286.595 201.092 285.958C198.333 284.402 196.14 280.582 196.14 277.399C196.14 274.923 197.626 273.579 199.606 274.003Z" fill="#009BBD" stroke="black" stroke-width="0.5" stroke-linejoin="round"/>
<path d="M152.626 237.287C147.731 234.425 143.665 236.76 143.665 242.408C143.665 248.056 147.656 254.983 152.551 257.845C157.445 260.707 161.512 258.372 161.512 252.724C161.512 247.001 157.521 240.149 152.626 237.287Z" fill="#009BBD" stroke="black" stroke-width="0.5" stroke-linejoin="round"/>
<path d="M146.246 236.704L151.494 233.601C153.151 232.697 155.41 232.848 157.82 234.203C162.715 237.065 166.781 244.068 166.781 249.716C166.706 252.502 165.727 254.535 164.146 255.439L158.874 258.451C160.531 257.472 161.51 255.514 161.51 252.728C161.51 247.005 157.443 240.077 152.549 237.215C150.12 235.817 147.888 235.797 146.246 236.704Z" fill="#009BBD" stroke="black" stroke-width="0.5" stroke-linejoin="round"/>
<path d="M152.623 241.516C149.686 239.859 147.352 241.214 147.352 244.528C147.352 247.841 149.686 251.908 152.623 253.64C155.56 255.296 157.895 253.941 157.895 250.627C157.895 247.314 155.485 243.172 152.623 241.516Z" fill="#009BBD" stroke="black" stroke-width="0.5" stroke-linejoin="round"/>
<path d="M151.042 240.829C149.687 241.205 148.858 242.485 148.858 244.443C148.858 247.757 151.193 251.823 154.13 253.555C154.657 253.856 155.184 254.082 155.711 254.157C154.807 254.383 153.753 254.233 152.623 253.555C149.687 251.898 147.352 247.832 147.352 244.443C147.352 241.808 148.934 240.377 151.042 240.829Z" fill="#009BBD" stroke="black" stroke-width="0.5" stroke-linejoin="round"/>
<path d="M71.659 273.399L146.675 316.983L222.23 273.399L147.161 229.762L71.659 273.399Z" fill="#009BBD" stroke="black" stroke-width="0.5" stroke-linejoin="round"/>
<path d="M222.328 285.593L146.772 329.23L71.7565 285.593L71.6484 273.391L146.664 316.974L222.22 273.391L222.328 285.593Z" fill="#009BBD"/>
<path d="M146.772 329.23L146.646 329.446C146.724 329.491 146.82 329.492 146.897 329.447L146.772 329.23ZM222.328 285.593L222.453 285.809C222.531 285.764 222.579 285.681 222.578 285.59L222.328 285.593ZM71.7565 285.593L71.5065 285.595C71.5072 285.683 71.5545 285.764 71.6308 285.809L71.7565 285.593ZM71.6484 273.391L71.774 273.174C71.6964 273.129 71.6004 273.129 71.5228 273.175C71.4451 273.22 71.3977 273.303 71.3984 273.393L71.6484 273.391ZM222.22 273.391L222.47 273.388C222.469 273.3 222.421 273.218 222.344 273.174C222.267 273.129 222.172 273.13 222.095 273.174L222.22 273.391ZM146.897 329.447L222.453 285.809L222.203 285.376L146.647 329.014L146.897 329.447ZM71.3984 273.393L71.5065 285.595L72.0064 285.59L71.8984 273.388L71.3984 273.393ZM146.79 316.758L71.774 273.174L71.5228 273.607L146.538 317.19L146.79 316.758ZM222.095 273.174L146.539 316.758L146.789 317.191L222.345 273.607L222.095 273.174ZM222.578 285.59L222.47 273.388L221.97 273.393L222.078 285.595L222.578 285.59ZM71.6308 285.809L146.646 329.446L146.898 329.014L71.8822 285.377L71.6308 285.809ZM146.414 316.976L146.522 329.232L147.022 329.228L146.914 316.972L146.414 316.976Z" fill="black"/>
<path d="M213.475 285.109C213.481 287.034 214.84 287.813 216.521 286.848C218.201 285.882 219.553 283.531 219.547 281.606C219.54 279.681 218.182 278.902 216.501 279.868C214.827 280.84 213.469 283.184 213.475 285.109Z" fill="white" stroke="black" stroke-width="0.5" stroke-linejoin="round"/>
<path d="M216.623 283.48C219.754 284.36 226.695 282.42 226.695 275.107C226.695 266.939 216.593 269.85 212.188 250.961" stroke="black" stroke-width="0.5" stroke-linecap="round"/>
<path d="M217.665 279.069C217.111 278.747 216.351 278.792 215.508 279.281C213.834 280.247 212.481 282.597 212.481 284.523C212.481 285.482 212.823 286.152 213.37 286.467L214.362 287.047C213.814 286.731 213.479 286.055 213.473 285.096C213.466 283.171 214.819 280.82 216.499 279.855C217.343 279.365 218.109 279.32 218.656 279.642L217.665 279.069Z" fill="#B5F4FD" stroke="black" stroke-width="0.5" stroke-linejoin="round"/>
<path d="M71.746 285.585L71.6378 273.453L146.653 317.037L146.762 329.223L71.746 285.585Z" fill="#37C6E6" stroke="black" stroke-width="0.5" stroke-linejoin="round"/>
<path d="M84.9366 276.547L142.019 309.209C139.84 307.919 138.442 305.222 138.46 301.39L81.3775 268.727C81.3603 272.56 82.7581 275.257 84.9366 276.547Z" fill="white" stroke="black" stroke-width="0.5" stroke-linejoin="round"/>
<path d="M202.779 215.839L172.064 226.087L115.102 193.355L145.817 183.108C148.243 182.344 150.228 182.472 151.892 183.423L208.871 216.191C207.088 215.31 205.205 215.075 202.779 215.839Z" fill="white" stroke="black" stroke-width="0.5" stroke-linejoin="round"/>
<path d="M184.325 221.994L202.777 215.838C205.203 215.074 206.319 214.956 208.102 215.838L151.869 183.678C150.723 183.023 148.913 182.411 146.111 183.257L127.562 189.469L184.325 221.994Z" fill="#D7D7D7"/>
<path d="M202.779 215.839L172.064 226.087L115.102 193.355L145.817 183.108C148.243 182.344 150.228 182.472 151.892 183.423L208.871 216.191C207.088 215.31 205.205 215.075 202.779 215.839Z" stroke="black" stroke-width="0.5" stroke-linejoin="round"/>
<path d="M172.061 226.092L115.098 193.361L81.3226 246.307L138.405 278.97L172.061 226.092Z" fill="white" stroke="black" stroke-width="0.5" stroke-linejoin="round"/>
<path d="M166.309 227.373L116.569 198.792L87.076 245.025L136.92 273.546L166.309 227.373Z" fill="#B4F7E7" stroke="black" stroke-width="0.5" stroke-linejoin="round"/>
<path d="M116.639 198.907L116.639 232.333M116.639 232.333L91.197 247.321L136.916 273.543M116.639 232.333L151.55 250.215" stroke="black" stroke-width="0.5" stroke-linejoin="round"/>
<path fill-rule="evenodd" clip-rule="evenodd" d="M151.815 250.138L116.844 231.824L90.9689 247.255L87.0721 245.025L116.565 198.792L166.305 227.373L151.815 250.138Z" fill="#009BBD" fill-opacity="0.5"/>
<path fill-rule="evenodd" clip-rule="evenodd" d="M143.125 231.79V251.367L126.169 241.577L143.123 231.789L143.125 231.79Z" fill="#38D88C" stroke="#009BBD" stroke-width="0.5" stroke-linejoin="round"/>
<path fill-rule="evenodd" clip-rule="evenodd" d="M126.168 241.577L109.214 231.788L126.168 222V241.577Z" fill="#B4F7E7" stroke="#009BBD" stroke-width="0.5" stroke-linejoin="round"/>
<path fill-rule="evenodd" clip-rule="evenodd" d="M126.169 222L143.125 231.79L126.171 241.578L126.169 241.577V222L126.169 222Z" fill="#69F2B1" stroke="#009BBD" stroke-width="0.5" stroke-linejoin="round"/>
<path d="M143.125 251.376L126.169 241.586L109.215 251.374L126.169 261.163L126.171 261.164L143.125 251.376Z" fill="#009BBD" fill-opacity="0.5"/>
<path fill-rule="evenodd" clip-rule="evenodd" d="M122.195 239.286V239.288L109.206 246.787V231.791L109.21 231.789L122.195 239.286Z" fill="#6DDDA8" stroke="#009BBD" stroke-width="0.5" stroke-linejoin="round"/>
<path fill-rule="evenodd" clip-rule="evenodd" d="M143.125 251.368V251.373L126.167 261.164L126.167 261.164V241.579L126.169 241.578L143.125 251.368Z" fill="#19564A" stroke="#009BBD" stroke-width="0.5" stroke-linejoin="round"/>
<path d="M141.44 213.079L129.005 205.934L124.354 266.359L136.814 273.49L141.44 213.079Z" fill="url(#paint0_linear)"/>
<path d="M123.46 202.883L118.259 199.895L113.476 259.984L118.688 262.966L123.46 202.883Z" fill="url(#paint1_linear)"/>
<path d="M166.309 227.373L116.569 198.792L87.076 245.025L136.92 273.546L166.309 227.373Z" stroke="black" stroke-width="0.5" stroke-linejoin="round"/>
<path d="M138.394 278.963L81.3123 246.301L81.3608 268.729L138.443 301.392L138.394 278.963Z" fill="white" stroke="black" stroke-width="0.5" stroke-linejoin="round"/>
<rect x="-0.216492" y="0.124992" width="28.546" height="3.08835" rx="1.54418" transform="matrix(-0.866007 -0.500033 3.76572e-05 1 133.053 279.353)" fill="white" stroke="black" stroke-width="0.5"/>
<rect x="-0.216492" y="0.124992" width="28.546" height="3.08835" rx="1.54418" transform="matrix(-0.866007 -0.500033 3.76796e-05 1 133.053 284.86)" fill="white" stroke="black" stroke-width="0.5"/>
<rect x="-0.216492" y="0.124992" width="28.546" height="3.08835" rx="1.54418" transform="matrix(-0.866007 -0.500033 3.76796e-05 1 133.053 290.376)" fill="white" stroke="black" stroke-width="0.5"/>
<path d="M133.241 281.13C133.241 280.277 132.642 279.24 131.903 278.814L114.057 268.509C113.319 268.083 112.72 268.429 112.72 269.281C112.72 270.134 113.319 271.171 114.057 271.598L131.903 281.902C132.642 282.329 133.241 281.983 133.241 281.13Z" fill="#009BBD" stroke="black" stroke-width="0.5"/>
<path d="M133.241 286.638C133.241 285.785 132.642 284.748 131.903 284.322L121.536 278.336C120.798 277.909 120.199 278.255 120.199 279.108C120.199 279.961 120.798 280.998 121.536 281.424L131.903 287.41C132.642 287.836 133.241 287.491 133.241 286.638Z" fill="#B4F7E7" stroke="black" stroke-width="0.5"/>
<path d="M133.241 292.154C133.241 291.301 132.642 290.264 131.903 289.837L112.085 278.394C111.346 277.967 110.747 278.313 110.747 279.166C110.747 280.019 111.346 281.056 112.085 281.482L131.903 292.926C132.642 293.352 133.241 293.006 133.241 292.154Z" fill="#009BBD" stroke="black" stroke-width="0.5"/>
<path d="M138.477 301.43C138.443 309.095 143.829 312.356 150.518 308.494L200.471 280.986C207.041 277.193 212.474 267.845 212.508 260.18L212.434 224.011C212.473 217.458 208.437 214.054 202.8 215.876L172.085 226.124L138.309 279.07L138.477 301.43Z" fill="white" stroke="black" stroke-width="0.5" stroke-linejoin="round"/>
<path d="M125.848 314.072C121.25 311.384 117.43 313.577 117.43 318.882C117.43 324.188 121.179 330.696 125.777 333.384C130.375 336.072 134.195 333.879 134.195 328.573C134.195 323.197 130.446 316.76 125.848 314.072Z" fill="#009BBD" stroke="black" stroke-width="0.5" stroke-linejoin="round"/>
<path d="M119.858 313.521L124.788 310.605C126.345 309.756 128.467 309.898 130.73 311.171C135.328 313.859 139.148 320.438 139.148 325.743C139.078 328.361 138.158 330.271 136.673 331.119L131.721 333.949C133.277 333.029 134.197 331.19 134.197 328.573C134.197 323.197 130.377 316.689 125.779 314.001C123.497 312.687 121.401 312.669 119.858 313.521Z" fill="#009BBD" stroke="black" stroke-width="0.5" stroke-linejoin="round"/>
<path d="M125.853 318.027C123.094 316.471 120.901 317.745 120.901 320.857C120.901 323.969 123.094 327.789 125.853 329.416C128.612 330.973 130.805 329.699 130.805 326.587C130.805 323.474 128.541 319.584 125.853 318.027Z" fill="#009BBD" stroke="black" stroke-width="0.5" stroke-linejoin="round"/>
<path d="M124.368 317.386C123.095 317.74 122.317 318.942 122.317 320.782C122.317 323.894 124.51 327.714 127.268 329.341C127.764 329.624 128.259 329.836 128.754 329.907C127.905 330.119 126.915 329.978 125.854 329.341C123.095 327.785 120.902 323.965 120.902 320.782C120.902 318.306 122.387 316.962 124.368 317.386Z" fill="#009BBD" stroke="black" stroke-width="0.5" stroke-linejoin="round"/>
<path d="M81.3873 288.088C76.7893 285.4 72.9694 287.593 72.9694 292.898C72.9694 298.203 76.7186 304.711 81.3165 307.399C85.9145 310.087 89.7344 307.894 89.7344 302.589C89.7344 297.213 85.9853 290.776 81.3873 288.088Z" fill="#009BBD" stroke="black" stroke-width="0.5" stroke-linejoin="round"/>
<path d="M75.3972 287.536L80.3276 284.621C81.8838 283.772 84.0059 283.914 86.2696 285.187C90.8675 287.875 94.6875 294.454 94.6875 299.759C94.6168 302.376 93.6972 304.286 92.2117 305.135L87.26 307.965C88.8162 307.045 89.7358 305.206 89.7358 302.588C89.7358 297.212 85.9159 290.704 81.3179 288.016C79.0362 286.703 76.94 286.684 75.3972 287.536Z" fill="#009BBD" stroke="black" stroke-width="0.5" stroke-linejoin="round"/>
<path d="M81.3843 292.055C78.6255 290.499 76.4326 291.772 76.4326 294.884C76.4326 297.997 78.6255 301.817 81.3843 303.444C84.1431 305 86.3359 303.727 86.3359 300.614C86.3359 297.502 84.0723 293.611 81.3843 292.055Z" fill="#009BBD" stroke="black" stroke-width="0.5" stroke-linejoin="round"/>
<path d="M79.9033 291.413C78.63 291.767 77.8519 292.97 77.8519 294.809C77.8519 297.921 80.0448 301.741 82.8036 303.368C83.2987 303.651 83.7939 303.863 84.2891 303.934C83.4402 304.146 82.4499 304.005 81.3888 303.368C78.63 301.812 76.4371 297.992 76.4371 294.809C76.4371 292.333 77.9226 290.989 79.9033 291.413Z" fill="#009BBD" stroke="black" stroke-width="0.5" stroke-linejoin="round"/>
<path d="M184.759 261.876C180.765 264.2 177.523 261.745 177.523 256.409V115.143C177.523 109.807 180.765 103.62 184.759 101.295C188.753 98.9708 191.994 101.426 191.994 106.762V248.028C192.026 253.364 188.785 259.584 184.759 261.876Z" fill="white" stroke="black" stroke-width="0.5" stroke-linejoin="round"/>
<path d="M178.699 260.652C178.718 266.603 182.917 269.011 188.112 266.026C193.306 263.041 197.485 255.777 197.465 249.827C197.445 243.876 193.246 241.468 188.052 244.453C182.878 247.458 178.679 254.702 178.699 260.652Z" fill="white" stroke="black" stroke-width="0.5" stroke-linejoin="round"/>
<path d="M191.658 242.007C189.947 241.012 187.598 241.151 184.991 242.664C179.817 245.649 175.638 252.912 175.638 258.863C175.638 261.828 176.693 263.897 178.384 264.873L181.449 266.664C179.757 265.689 178.723 263.599 178.703 260.634C178.683 254.684 182.862 247.42 188.056 244.435C190.663 242.922 193.031 242.783 194.723 243.778L191.658 242.007Z" fill="#B5F4FD" stroke="black" stroke-width="0.5" stroke-linejoin="round"/>
<path d="M184.848 258.25C184.858 261.084 186.857 262.231 189.331 260.809C191.804 259.388 193.795 255.928 193.785 253.095C193.776 250.261 191.776 249.115 189.303 250.536C186.839 251.967 184.839 255.417 184.848 258.25Z" fill="white" stroke="black" stroke-width="0.5" stroke-linejoin="round"/>
<path d="M187.454 252.004L191.117 259.401" stroke="black" stroke-width="0.5"/>
<path d="M191.017 249.373C190.202 248.899 189.084 248.966 187.842 249.686C185.378 251.107 183.388 254.566 183.388 257.4C183.388 258.812 183.89 259.798 184.696 260.262L186.155 261.115C185.35 260.651 184.857 259.656 184.848 258.244C184.838 255.41 186.828 251.951 189.302 250.529C190.543 249.809 191.671 249.743 192.477 250.217L191.017 249.373Z" fill="#B5F4FD" stroke="black" stroke-width="0.5" stroke-linejoin="round"/>
<path d="M182.859 112.398C182.867 114.713 184.5 115.65 186.521 114.489C188.542 113.328 190.168 110.502 190.16 108.187C190.152 105.872 188.519 104.935 186.498 106.096C184.485 107.265 182.851 110.084 182.859 112.398Z" fill="white" stroke="black" stroke-width="0.5" stroke-linejoin="round"/>
<path d="M187.894 105.146C187.228 104.759 186.314 104.813 185.3 105.401C183.287 106.563 181.661 109.389 181.661 111.704C181.661 112.857 182.071 113.662 182.729 114.042L183.922 114.739C183.264 114.359 182.861 113.546 182.853 112.393C182.846 110.078 184.472 107.252 186.492 106.09C187.506 105.502 188.428 105.448 189.086 105.835L187.894 105.146Z" fill="#B5F4FD" stroke="black" stroke-width="0.5" stroke-linejoin="round"/>
<path d="M448.593 218.259L423.908 203.781L332.191 258.5L355.824 272.14L448.593 218.259Z" fill="#009BBD" fill-opacity="0.5"/>
<path fill-rule="evenodd" clip-rule="evenodd" d="M458.563 101.432L433.424 36.6443L408.29 72.4047L420.642 79.5372L420.65 180.693L446.583 195.667L446.575 94.5107L458.563 101.432Z" fill="#F4FC83" stroke="black" stroke-width="0.5" stroke-linejoin="round"/>
<path fill-rule="evenodd" clip-rule="evenodd" d="M356.391 249.011L330.459 234.037L420.91 181.039L446.766 196.057L356.391 249.011Z" fill="#F4FC83" stroke="black" stroke-width="0.5" stroke-linejoin="round"/>
<path fill-rule="evenodd" clip-rule="evenodd" d="M356.306 249.171L330.373 234.198L310.991 302.33L336.924 317.303L356.306 249.171Z" fill="#D2DF39" stroke="black" stroke-width="0.5" stroke-linejoin="round"/>
<path fill-rule="evenodd" clip-rule="evenodd" d="M261.149 363.196L235.216 348.222L310.908 302.418L336.84 317.391L261.149 363.196Z" fill="#F4FC83" stroke="black" stroke-width="0.5" stroke-linejoin="round"/>
<path d="M297.558 369.096V373.3C297.558 377.891 294.518 382.418 288.569 385.91C276.54 392.894 256.881 392.894 244.788 385.91C238.645 382.353 235.605 377.762 235.605 373.106V368.902C235.605 373.494 238.645 378.15 244.724 381.707C256.881 388.691 276.476 388.691 288.504 381.707C294.518 378.215 297.558 373.623 297.558 369.096Z" fill="#D2DF39" stroke="black" stroke-width="0.5" stroke-linejoin="round"/>
<path d="M244.788 385.91C244.767 385.898 244.745 385.885 244.724 385.873M244.724 385.873C238.624 382.321 235.605 377.746 235.605 373.106V368.902C235.605 373.494 238.645 378.15 244.724 381.707V385.873Z" stroke="black" stroke-width="0.5" stroke-linejoin="round"/>
<path d="M246.668 382.648V386.879" stroke="black" stroke-width="0.5"/>
<path d="M251.297 384.477V388.707" stroke="black" stroke-width="0.5"/>
<path d="M253.637 385.383V389.613" stroke="black" stroke-width="0.5"/>
<path d="M248.957 383.754V387.795" stroke="black" stroke-width="0.5"/>
<path d="M288.439 356.289C300.597 363.273 300.661 374.655 288.568 381.639C276.54 388.623 256.881 388.623 244.788 381.639C232.63 374.655 232.566 363.338 244.594 356.289C256.687 349.305 276.281 349.305 288.439 356.289Z" fill="#D2DF39" stroke="black" stroke-width="0.5" stroke-linejoin="round"/>
<path d="M297.558 360.174V364.378C297.558 368.969 294.518 373.496 288.569 376.988C276.54 383.972 256.881 383.972 244.788 376.988C238.645 373.431 235.605 368.84 235.605 364.184V359.98C235.605 364.572 238.645 369.228 244.724 372.785C256.881 379.769 276.476 379.769 288.504 372.785C294.518 369.293 297.558 364.701 297.558 360.174Z" fill="#D2DF39" stroke="black" stroke-width="0.5" stroke-linejoin="round"/>
<path d="M288.439 347.367C300.597 354.351 300.661 365.733 288.568 372.717C276.54 379.701 256.881 379.701 244.788 372.717C232.63 365.733 232.566 354.416 244.594 347.367C256.687 340.383 276.281 340.383 288.439 347.367Z" fill="#D2DF39" stroke="black" stroke-width="0.5" stroke-linejoin="round"/>
<path d="M301.593 353.827V358.03C301.593 362.622 298.553 367.148 292.604 370.641C280.576 377.625 260.916 377.625 248.823 370.641C242.68 367.084 239.641 362.492 239.641 357.836V353.633C239.641 358.224 242.68 362.88 248.759 366.437C260.916 373.421 280.511 373.421 292.539 366.437C298.553 362.945 301.593 358.354 301.593 353.827Z" fill="#D2DF39" stroke="black" stroke-width="0.5" stroke-linejoin="round"/>
<path d="M292.474 341.019C304.632 348.004 304.696 359.385 292.604 366.369C280.575 373.353 260.916 373.353 248.823 366.369C236.666 359.385 236.601 348.068 248.629 341.019C260.722 334.035 280.317 334.035 292.474 341.019Z" fill="#F4FC83" stroke="black" stroke-width="0.5" stroke-linejoin="round"/>
<path d="M292.679 346.495V350.698C292.679 355.29 289.639 359.816 283.69 363.309C271.661 370.293 252.002 370.293 239.909 363.309C233.766 359.752 230.727 355.16 230.727 350.504V346.301C230.727 350.892 233.766 355.548 239.845 359.105C252.002 366.089 271.597 366.089 283.625 359.105C289.639 355.613 292.679 351.022 292.679 346.495Z" fill="#D2DF39" stroke="black" stroke-width="0.5" stroke-linejoin="round"/>
<path d="M283.56 333.687C295.718 340.671 295.782 352.053 283.689 359.037C271.661 366.021 252.002 366.021 239.909 359.037C227.752 352.053 227.687 340.736 239.715 333.687C251.808 326.703 271.403 326.703 283.56 333.687Z" fill="#F4FC83" stroke="black" stroke-width="0.5" stroke-linejoin="round"/>
<path d="M277.288 337.323C285.954 342.302 286 350.414 277.38 355.392C268.807 360.371 254.794 360.371 246.175 355.392C237.509 350.414 237.463 342.348 246.036 337.323C254.656 332.345 268.623 332.345 277.288 337.323Z" fill="#F4FC83" stroke="black" stroke-width="0.5" stroke-linejoin="round"/>
<path d="M283.786 347.072C284.105 343.566 281.936 339.994 277.288 337.323C268.623 332.345 254.656 332.345 246.036 337.323C241.477 339.995 239.356 343.527 239.671 346.998C239.946 343.976 242.068 340.999 246.036 338.673C254.656 333.695 268.623 333.695 277.288 338.673C281.341 341.001 283.508 344.014 283.786 347.072Z" fill="#D2DF39" stroke="black" stroke-width="0.5" stroke-linejoin="round"/>
<path d="M262.02 290.547L257.816 290.578C253.225 290.612 248.721 293.684 245.272 299.659C238.376 311.738 238.521 331.397 245.593 343.438C249.195 349.555 253.809 352.561 258.465 352.527L262.668 352.496C258.077 352.53 253.398 349.525 249.797 343.472C242.724 331.366 242.58 311.772 249.476 299.693C252.924 293.653 257.493 290.58 262.02 290.547Z" fill="#D2DF39" stroke="black" stroke-width="0.5" stroke-linejoin="round"/>
<path d="M245.593 343.438C245.606 343.46 245.619 343.481 245.631 343.503M245.631 343.503C249.227 349.577 253.825 352.561 258.465 352.527L262.668 352.496C258.077 352.53 253.398 349.525 249.797 343.472L245.631 343.503Z" stroke="black" stroke-width="0.5" stroke-linejoin="round"/>
<path d="M248.844 341.527L244.613 341.558" stroke="black" stroke-width="0.5"/>
<path d="M246.98 336.918L242.75 336.949" stroke="black" stroke-width="0.5"/>
<path d="M246.062 334.582L241.832 334.613" stroke="black" stroke-width="0.5"/>
<path d="M247.719 339.25L243.678 339.28" stroke="black" stroke-width="0.5"/>
<path d="M274.894 299.573C267.821 287.467 256.439 287.486 249.544 299.63C242.648 311.709 242.792 331.368 249.865 343.409C256.938 355.515 268.255 355.497 275.216 343.417C282.111 331.273 281.967 311.679 274.894 299.573Z" fill="#F4FC83" stroke="black" stroke-width="0.5" stroke-linejoin="round"/>
<path d="M271.303 305.869C266.261 297.24 258.149 297.253 253.234 305.909C248.319 314.519 248.421 328.531 253.463 337.114C258.504 345.743 266.571 345.73 271.532 337.12C276.447 328.464 276.344 314.498 271.303 305.869Z" fill="#F4FC83" stroke="black" stroke-width="0.5" stroke-linejoin="round"/>
<path d="M261.507 299.443C265.011 299.099 268.599 301.241 271.303 305.869C276.344 314.498 276.447 328.464 271.532 337.12C268.894 341.699 265.377 343.846 261.905 343.556C264.924 343.259 267.886 341.115 270.182 337.13C275.097 328.474 274.995 314.508 269.953 305.879C267.596 301.844 264.566 299.699 261.507 299.443Z" fill="#D2DF39" stroke="black" stroke-width="0.5" stroke-linejoin="round"/>
<defs>
<linearGradient id="paint0_linear" x1="124.678" y1="215.746" x2="128.417" y2="266.83" gradientUnits="userSpaceOnUse">
<stop stop-color="white" stop-opacity="0.5"/>
<stop offset="1" stop-color="white" stop-opacity="0"/>
</linearGradient>
<linearGradient id="paint1_linear" x1="113.33" y1="191.436" x2="116.801" y2="258.939" gradientUnits="userSpaceOnUse">
<stop stop-color="white" stop-opacity="0.5"/>
<stop offset="1" stop-color="white" stop-opacity="0"/>
</linearGradient>
</defs>
</svg>
