<svg width="64" height="64" viewBox="0 0 64 64" fill="none" xmlns="http://www.w3.org/2000/svg">
<g clip-path="url(#clip0)">
<path d="M45.1402 23.7723L26.6554 13.0898L8.16016 23.7723L26.6554 34.4442L45.1402 23.7723Z" fill="#B5F4FD" stroke="black" stroke-width="0.5" stroke-linejoin="round"/>
<path fill-rule="evenodd" clip-rule="evenodd" d="M26.6492 13.0781L8.14453 23.766L26.6492 34.4433V13.0781Z" fill="#009BBD" stroke="black" stroke-width="0.5" stroke-linejoin="round"/>
<path d="M37.0785 26.2065C37.2478 23.3948 37.4331 20.317 43.9685 20.317C43.9685 20.317 47.9337 20.3925 50.2184 17.5777C52.6919 14.5739 53.1451 10.2099 53.1451 10.2099L39.2102 2.21875C39.2102 2.21875 37.9263 11.4568 30.6945 11.7213C25.6101 11.9101 25.3099 14.9265 25.0317 17.7221C24.8367 19.6814 24.6525 21.5322 22.8396 22.225C16.6847 24.5647 16.1293 29.9984 16.1367 30.0022L16.1293 29.9984L16.1289 47.4783L28.3453 43.6114C28.3658 43.4688 28.3841 36.6281 28.4029 36.4761C28.6354 34.5928 28.9481 32.0605 34.6408 30.5563C36.8514 29.9763 36.9611 28.1553 37.0785 26.2065Z" fill="white" stroke="black" stroke-width="0.5" stroke-linejoin="round"/>
<mask id="mask0" mask-type="alpha" maskUnits="userSpaceOnUse" x="15" y="-3" width="44" height="61">
<path d="M35.329 24.6091C35.537 21.1311 35.7647 17.324 43.7927 17.324C43.7927 17.324 49.5681 15.8417 49.5681 10.5162C52.6066 6.80071 54.9365 5.00353 54.9365 5.00353L58.1267 8.69966L57.1757 6.87696L56.2247 7.60137L55.2738 5.77866L54.3228 6.50307L53.3718 4.68036L52.421 5.40477L51.47 3.58205L50.5191 4.30647L49.5681 2.48376L48.6171 3.20817L47.6661 1.38546L46.7152 2.10987L45.7642 0.28716L44.8132 1.01157L43.8623 -0.811138L42.9113 -0.0867289L38.9076 -2.06641C38.9076 -2.06641 41.0937 10.8494 36.5483 12.0891C30.3027 12.3226 26.0378 15.5812 25.6961 19.0392C25.4566 21.4628 25.2303 23.7521 23.0034 24.6091C15.4428 27.5032 15.787 33.9826 15.787 34.4622L15.1523 57.0389L24.5761 51.5796C24.6013 51.4031 24.649 37.5 24.672 37.312C24.9577 34.9825 23.2641 31.2508 30.257 29.3902C32.9725 28.6727 35.1849 27.0196 35.329 24.6091Z" fill="#FF7E7E"/>
</mask>
<g mask="url(#mask0)">
<path d="M31.2578 33.2884L17.6719 25.457" stroke="black" stroke-width="0.5" stroke-linejoin="round"/>
<path d="M33.7734 28.1009L20.1875 20.2695" stroke="black" stroke-width="0.5" stroke-linejoin="round"/>
<path d="M33.7734 28.1009L20.1875 20.2695" stroke="black" stroke-width="0.5" stroke-linejoin="round"/>
<path d="M37.5469 22.2806L23.9609 14.4492" stroke="black" stroke-width="0.5" stroke-linejoin="round"/>
<path d="M43.8398 19.1361L30.2539 11.3047" stroke="black" stroke-width="0.5" stroke-linejoin="round"/>
<path d="M50.1328 14.4173L36.5469 6.58594" stroke="black" stroke-width="0.5" stroke-linejoin="round"/>
<path d="M26.6172 38.2565L21.8929 35.5365M17.1686 32.8164L19.5307 34.1764" stroke="black" stroke-width="0.5" stroke-linejoin="round"/>
<path d="M25.9336 41.9891L23.7419 40.7272M17.1667 36.9414L22.646 40.0962" stroke="black" stroke-width="0.5" stroke-linejoin="round"/>
<path d="M24.6211 45.7168L16.9849 41.3203" stroke="black" stroke-width="0.5" stroke-linejoin="round"/>
<path d="M20.9805 47.8457L16.9879 45.5469" stroke="black" stroke-width="0.5" stroke-linejoin="round"/>
</g>
<path d="M31.8717 25.5833L27.0403 38.5172L10.3857 29.7448L15.2378 16.7767L31.8717 25.5833Z" fill="#1EB161" stroke="black" stroke-width="0.5" stroke-linejoin="round"/>
<path fill-rule="evenodd" clip-rule="evenodd" d="M16.9509 19.0948L10.3869 29.7199L27.0414 38.4923L33.9114 27.3749L34.7702 25.9852L34.7677 25.9866L29.5753 23.2376L28.4067 25.1288L16.9509 19.0948Z" fill="#25E896"/>
<path d="M10.3869 29.7199L10.1742 29.5885C10.1378 29.6474 10.1274 29.7188 10.1457 29.7856C10.1639 29.8525 10.2091 29.9088 10.2704 29.941L10.3869 29.7199ZM16.9509 19.0948L17.0674 18.8736C16.9512 18.8123 16.8073 18.8516 16.7382 18.9634L16.9509 19.0948ZM27.0414 38.4923L26.9249 38.7135C27.0412 38.7747 27.185 38.7355 27.2541 38.6237L27.0414 38.4923ZM33.9114 27.3749L33.6987 27.2434L33.6987 27.2434L33.9114 27.3749ZM34.7702 25.9852L34.9828 26.1166C35.0432 26.0189 35.0293 25.8926 34.949 25.8105C34.8687 25.7283 34.7428 25.7114 34.6437 25.7695L34.7702 25.9852ZM34.7677 25.9866L34.6507 26.2076C34.7273 26.2481 34.8194 26.2461 34.8941 26.2023L34.7677 25.9866ZM29.5753 23.2376L29.6923 23.0167C29.576 22.9551 29.4319 22.9943 29.3627 23.1062L29.5753 23.2376ZM28.4067 25.1288L28.2902 25.35C28.4064 25.4113 28.5503 25.3721 28.6193 25.2603L28.4067 25.1288ZM10.5996 29.8512L17.1636 19.2262L16.7382 18.9634L10.1742 29.5885L10.5996 29.8512ZM27.1579 38.2711L10.5034 29.4987L10.2704 29.941L26.9249 38.7135L27.1579 38.2711ZM33.6987 27.2434L26.8287 38.3609L27.2541 38.6237L34.1241 27.5063L33.6987 27.2434ZM34.5575 25.8538L33.6987 27.2434L34.1241 27.5063L34.9828 26.1166L34.5575 25.8538ZM34.8941 26.2023L34.8966 26.2008L34.6437 25.7695L34.6412 25.771L34.8941 26.2023ZM29.4584 23.4586L34.6507 26.2076L34.8846 25.7657L29.6923 23.0167L29.4584 23.4586ZM29.3627 23.1062L28.194 24.9974L28.6193 25.2603L29.788 23.3691L29.3627 23.1062ZM28.5232 24.9077L17.0674 18.8736L16.8344 19.316L28.2902 25.35L28.5232 24.9077Z" fill="black"/>
<path fill-rule="evenodd" clip-rule="evenodd" d="M26.6387 34.443L8.14453 23.7656V45.1308L26.6492 55.8187V34.4535L26.6387 34.443Z" stroke="black" stroke-width="0.5" stroke-linejoin="round"/>
<path fill-rule="evenodd" clip-rule="evenodd" d="M45.1465 23.7656L26.6523 34.443V34.4535V40.3946V55.8187L45.157 45.1308V29.8745V23.7656H45.1465Z" fill="#009BBD"/>
<path fill-rule="evenodd" clip-rule="evenodd" d="M26.6387 34.443L8.14453 23.7656V34.6945V45.1308L26.6492 55.8187V34.4535L26.6387 34.443Z" fill="#B5F4FD" stroke="black" stroke-width="0.5" stroke-linejoin="round"/>
<path fill-rule="evenodd" clip-rule="evenodd" d="M45.1465 23.7656L26.6523 34.443V34.4535V40.3946V55.8187L45.157 45.1308V29.8745V23.7656H45.1465Z" stroke="black" stroke-width="0.5" stroke-linejoin="round"/>
<path d="M45.1743 32.535L45.1937 30.1758L26.7734 40.5039V43.1679L45.1743 32.535Z" fill="#B5F4FD" stroke="black" stroke-width="0.5" stroke-linejoin="round"/>
<path d="M44.5487 32.2773L56.2408 52.1732L39.488 62.2709L26.707 42.051L44.5487 32.2773Z" fill="white" stroke="black" stroke-width="0.5" stroke-linejoin="round"/>
<path d="M42.6927 50.2309L42.7306 49.9838C42.5967 49.9633 42.4708 50.0531 42.4467 50.1864L42.6927 50.2309ZM45.8669 50.7174L45.829 50.9645C45.9655 50.9854 46.093 50.8918 46.114 50.7553L45.8669 50.7174ZM46.9704 43.5386L47.1764 43.397C47.1355 43.3376 47.0711 43.2987 46.9995 43.2903C46.928 43.2819 46.8563 43.3048 46.8028 43.3531L46.9704 43.5386ZM42.4467 50.1864L41.052 57.9003L41.544 57.9893L42.9387 50.2754L42.4467 50.1864ZM42.6549 50.478L45.829 50.9645L45.9048 50.4703L42.7306 49.9838L42.6549 50.478ZM46.114 50.7553L47.2175 43.5766L46.7233 43.5006L45.6198 50.6794L46.114 50.7553ZM46.8028 43.3531L44.0959 45.7973L44.431 46.1684L47.1379 43.7242L46.8028 43.3531ZM46.7643 43.6803L48.6728 46.4561L49.0849 46.1728L47.1764 43.397L46.7643 43.6803Z" fill="black"/>
<path d="M31.332 42.9358L42.3418 36.6445" stroke="black" stroke-width="0.5"/>
<path d="M33.043 45.8904L41.3003 41.1719" stroke="black" stroke-width="0.5"/>
<path d="M18.0488 15.0341L19.8316 13.9186L22.0461 15.6755L21.3652 17.6653L22.0606 18.217L24.399 11.1389L23.7144 10.5957L17.3534 14.4823L18.0488 15.0341ZM20.5075 13.4951L23.3472 11.7177L23.39 11.7516L22.3047 14.9211L20.5075 13.4951Z" fill="black"/>
<path d="M23.9299 43.7634C23.9135 48.0782 20.806 49.825 17.0761 47.6258C13.3463 45.4266 10.3498 40.1547 10.3662 35.8399C10.3825 31.5252 13.49 29.7784 17.2199 31.9775C20.9852 34.1562 23.9817 39.4282 23.9299 43.7634Z" fill="white" stroke="black" stroke-width="0.5" stroke-miterlimit="10"/>
<path fill-rule="evenodd" clip-rule="evenodd" d="M12.0682 31.9007C12.9558 31.9318 13.9446 32.2382 14.9814 32.8495C18.7112 35.0487 21.7077 40.3206 21.6913 44.6354C21.6846 46.4126 21.1534 47.7542 20.2703 48.5638C22.5758 48.6445 24.1991 46.8679 24.2109 43.7526C24.2272 39.4378 21.2308 34.1658 17.5009 31.9667C15.3074 30.6733 13.3291 30.7448 12.0682 31.9007Z" fill="#C5F6DA"/>
<path d="M14.115 39.4018L15.8288 42.4972L20.8525 39.0364" stroke="black" stroke-width="0.5"/>
<path d="M23.9103 43.7595C23.894 48.0743 20.7865 49.8211 17.0566 47.6219C13.3267 45.4227 10.3303 40.1507 10.3466 35.836C10.363 31.5213 13.4705 29.7745 17.2004 31.9736C20.9657 34.1523 23.9622 39.4243 23.9103 43.7595Z" stroke="black" stroke-width="0.5" stroke-miterlimit="10"/>
</g>
<defs>
<clipPath id="clip0">
<rect width="64" height="64" fill="white"/>
</clipPath>
</defs>
</svg>
