<svg width="64" height="64" viewBox="0 0 64 64" fill="none" xmlns="http://www.w3.org/2000/svg">
<g clip-path="url(#clip0)">
<path d="M48.369 27.8668L42.4617 33.8716M9.83594 22.8008L20.8287 36.4682" stroke="black" stroke-width="0.5"/>
<path d="M4.82119 24.4996C1.84738 22.7693 1.85558 19.9705 4.85199 18.2327C7.8484 16.4948 12.6939 16.5021 15.6677 18.2324C18.6415 19.9626 18.6333 22.7614 15.6369 24.4993C12.6363 26.2214 7.795 26.2298 4.82119 24.4996Z" fill="white" stroke="black" stroke-width="0.5" stroke-linejoin="round"/>
<path d="M17.9044 23.7563C17.9079 24.901 17.1592 26.0366 15.6481 26.9048C12.6575 28.6327 7.81201 28.6253 4.83245 26.9051C3.34765 26.0478 2.61621 24.9213 2.61696 23.7924L2.60614 21.3867C2.60539 22.5157 3.35254 23.638 4.83159 24.5052C7.80539 26.2354 12.6509 26.2428 15.6473 24.5049C17.1583 23.6367 17.9127 22.4912 17.9035 21.3565L17.9044 23.7563Z" fill="#C5F6DA" stroke="black" stroke-width="0.5" stroke-linejoin="round"/>
<path d="M43.9442 27.3866C39.7345 24.9373 39.7461 20.9754 43.9878 18.5153C48.2295 16.0551 55.0887 16.0655 59.2984 18.5148C63.5081 20.9642 63.4965 24.9261 59.2548 27.3862C55.0072 29.8241 48.1539 29.8359 43.9442 27.3866Z" fill="white" stroke="black" stroke-width="0.5" stroke-linejoin="round"/>
<path d="M62.4631 25.8341C62.468 27.4545 61.4082 29.062 59.2691 30.291C55.0356 32.737 48.1764 32.7266 43.9585 30.2914C41.8566 29.0779 40.8212 27.4832 40.8223 25.8851L40.807 22.9797C40.8059 24.5778 41.8636 26.1665 43.9573 27.3941C48.167 29.8435 55.0262 29.8538 59.2679 27.3937C61.4069 26.1648 62.4749 24.5431 62.4618 22.9368L62.4631 25.8341Z" fill="#C5F6DA" stroke="black" stroke-width="0.5" stroke-linejoin="round"/>
<path d="M55.0429 40.9979L30.8368 55.0968L6.46094 40.9979L30.667 26.9414L55.0429 40.9979Z" fill="white" stroke="black" stroke-width="0.5" stroke-linejoin="round"/>
<path d="M55.0336 41V45.4165L30.7852 59.5155L30.8276 55.0989L55.0336 41Z" fill="#C5F6DA" stroke="black" stroke-width="0.5" stroke-linejoin="round"/>
<path d="M30.8324 55.0989L30.79 59.5155L6.41406 45.4165L6.45653 41L30.8324 55.0989Z" fill="#F1FFF7" stroke="black" stroke-width="0.5" stroke-linejoin="round"/>
<path d="M41.4558 41.6547C41.4558 43.2453 40.3831 44.836 38.2745 46.0197C34.0944 48.3872 27.3249 48.3502 23.2188 45.9088C21.1842 44.688 20.1484 43.1343 20.1484 41.5437V38.6953C20.1484 40.249 21.1472 41.8396 23.2188 43.0604C27.3619 45.5018 34.0944 45.5388 38.2745 43.1713C40.3831 41.9876 41.4558 40.3969 41.4558 38.8063V41.6547Z" fill="#25E896" stroke="black" stroke-width="0.5" stroke-linejoin="round"/>
<path d="M23.2223 43.0644C19.0792 40.6229 19.1532 36.7017 23.3333 34.3342C27.5134 31.9667 34.283 32.0037 38.3891 34.4452C42.5322 36.8867 42.4582 40.8078 38.2781 43.1753C34.098 45.5428 27.3285 45.5058 23.2223 43.0644Z" fill="#F1FFF7" stroke="black" stroke-width="0.5" stroke-linejoin="round"/>
<path d="M23.2223 43.0644C19.0792 40.6229 19.1532 36.7017 23.3333 34.3342C27.5134 31.9667 34.283 32.0037 38.3891 34.4452C42.5322 36.8867 42.4582 40.8078 38.2781 43.1753C34.098 45.5428 27.3285 45.5058 23.2223 43.0644Z" stroke="black" stroke-width="0.5" stroke-linejoin="round"/>
<path d="M30.8466 7.58594C29.9958 7.58594 29.293 8.28878 29.293 9.1396V39.917C30.1438 40.3978 31.5125 40.3978 32.4003 39.917V9.10261C32.4003 8.28879 31.6974 7.58594 30.8466 7.58594Z" fill="#C5F6DA" stroke="black" stroke-width="0.5" stroke-linejoin="round"/>
<path opacity="0.2" d="M30.8466 7.99609C29.9958 7.99609 29.293 8.69894 29.293 9.54976V15.2835C29.7739 15.3575 30.2918 15.4315 30.8096 15.4315C31.3645 15.4315 31.8824 15.3575 32.4003 15.2835V9.54976C32.4003 8.69894 31.6974 7.99609 30.8466 7.99609Z" fill="black"/>
<path d="M28.2094 22.1163C32.768 23.5524 37.6277 21.0212 39.0638 16.4627C40.5 11.9041 37.9688 7.04442 33.4103 5.60824C28.8517 4.17206 23.992 6.70326 22.5558 11.2618C21.1196 15.8204 23.6508 20.6801 28.2094 22.1163Z" fill="#25E896" stroke="black" stroke-width="0.5" stroke-linejoin="round"/>
<path d="M31.2089 19.3717C26.6538 17.9366 24.1202 13.0724 25.5553 8.51727C25.8143 7.6953 26.1995 6.95074 26.6423 6.262C24.7742 7.29231 23.2471 9.03245 22.5565 11.2244C21.1214 15.7795 23.655 20.6437 28.2101 22.0788C31.7035 23.1794 35.3629 21.9605 37.5328 19.2557C37.8734 19.2501 37.1814 19.2956 37.5328 19.2557C35.8841 19.8281 32.9899 19.9328 31.2089 19.3717Z" fill="#38C076"/>
<path d="M28.2094 22.1163C32.768 23.5524 37.6277 21.0212 39.0638 16.4627C40.5 11.9041 37.9688 7.04442 33.4103 5.60824C28.8517 4.17206 23.992 6.70326 22.5558 11.2618C21.1196 15.8204 23.6508 20.6801 28.2094 22.1163Z" stroke="black" stroke-width="0.5" stroke-linejoin="round"/>
</g>
<defs>
<clipPath id="clip0">
<rect width="64" height="64" fill="white"/>
</clipPath>
</defs>
</svg>
