<svg width="64" height="64" viewBox="0 0 64 64" fill="none" xmlns="http://www.w3.org/2000/svg">
<path d="M54.5768 54.3593L43.7511 60.709L8.35938 40.3067L19.2892 33.957L54.5768 54.3593Z" fill="white" stroke="black" stroke-width="0.5" stroke-miterlimit="10" stroke-linejoin="round"/>
<path d="M54.5796 54.3594V56.3371L43.7539 62.5827V60.7091L54.5796 54.3594Z" fill="#C5F6DA" stroke="black" stroke-width="0.5" stroke-miterlimit="10" stroke-linejoin="round"/>
<path d="M43.7511 60.707V62.5807L8.35938 42.1784V40.3047L43.7511 60.707Z" fill="#C5F6DA" stroke="black" stroke-width="0.5" stroke-miterlimit="10" stroke-linejoin="round"/>
<path d="M60.4179 16.29L45.9134 24.6658L38.163 20.1638L52.6675 11.788L60.4179 16.29Z" fill="#25E896" stroke="black" stroke-width="0.3" stroke-linejoin="round"/>
<path d="M46.7477 23.3233C46.3256 23.0795 45.6351 23.0804 45.2118 23.3262L40.4738 20.5726C40.8932 20.3335 40.9028 19.9396 40.4914 19.693L51.8505 13.1327C52.2766 13.3696 52.9495 13.3677 53.3729 13.1219L58.1108 15.8755C57.6875 16.1213 57.6847 16.5192 58.1069 16.7629L46.7477 23.3233ZM47.1835 17.002C46.2126 17.5672 46.371 18.5665 47.5314 19.2455C48.7026 19.9217 50.4331 20.022 51.404 19.4568C52.3749 18.8916 52.2165 17.8923 51.0561 17.2133C49.8957 16.5342 48.1612 16.4407 47.1835 17.002Z" fill="#25E896" stroke="black" stroke-width="0.3" stroke-linejoin="round"/>
<path d="M25.8788 19.4423L11.3744 27.8181L3.62398 23.3162L18.1284 14.9404L25.8788 19.4423Z" fill="#25E896" stroke="black" stroke-width="0.3" stroke-linejoin="round"/>
<path d="M12.2087 26.4756C11.7865 26.2319 11.0961 26.2327 10.6727 26.4785L5.93475 23.7249C6.35418 23.4859 6.36373 23.0919 5.95232 22.8453L17.3115 16.285C17.7376 16.5219 18.4105 16.52 18.8338 16.2742L23.5718 19.0278C23.1484 19.2737 23.1457 19.6715 23.5678 19.9153L12.2087 26.4756ZM12.6445 20.1543C11.6736 20.7195 11.832 21.7188 12.9924 22.3979C14.1635 23.074 15.894 23.1744 16.8649 22.6092C17.8358 22.044 17.6774 21.0447 16.517 20.3656C15.3566 19.6866 13.6222 19.593 12.6445 20.1543Z" fill="#25E896" stroke="black" stroke-width="0.3" stroke-linejoin="round"/>
<path d="M19.0749 15.7191L19.1588 41.1966C19.1588 41.5703 19.412 41.9441 19.8942 42.2334C20.8828 42.8121 22.4983 42.8121 23.4869 42.2334C23.9933 41.9441 24.2344 41.5583 24.2344 41.1845L24.1505 15.707C24.1505 16.0808 23.8973 16.4666 23.403 16.7559C22.4024 17.3346 20.7989 17.3346 19.8103 16.7559C19.316 16.4666 19.0749 16.0928 19.0749 15.7191Z" fill="white" stroke="black" stroke-width="0.5" stroke-miterlimit="10"/>
<path d="M19.0722 15.7428C19.07 14.9304 20.207 14.2687 21.6119 14.2647C23.0168 14.2608 24.1576 14.9161 24.1599 15.7284C24.1622 16.5407 23.0252 17.2024 21.6202 17.2064C20.2153 17.2104 19.0745 16.5551 19.0722 15.7428Z" fill="#F5FDFF" stroke="black" stroke-width="0.5" stroke-miterlimit="10"/>
<path d="M29.028 21.7152L29.1119 47.1927C29.1119 47.5664 29.3651 47.9402 29.8473 48.2295C30.8359 48.8082 32.4514 48.8082 33.44 48.2295C33.9464 47.9402 34.1875 47.5544 34.1875 47.1806L34.1036 21.7031C34.1036 22.0769 33.8505 22.4627 33.3562 22.752C32.3555 23.3307 30.7521 23.3307 29.7635 22.752C29.2692 22.4627 29.028 22.0889 29.028 21.7152Z" fill="white" stroke="black" stroke-width="0.5" stroke-miterlimit="10"/>
<path d="M29.0254 21.735C29.0231 20.9226 30.1601 20.2609 31.565 20.2569C32.97 20.253 34.1107 20.9082 34.113 21.7206C34.1153 22.5329 32.9783 23.1946 31.5734 23.1986C30.1684 23.2026 29.0277 22.5473 29.0254 21.735Z" fill="#F5FDFF" stroke="black" stroke-width="0.5" stroke-miterlimit="10"/>
<path d="M39.8679 27.9183L39.9517 53.3958C39.9517 53.7695 40.2049 54.1433 40.6872 54.4326C41.6758 55.0113 43.2913 55.0113 44.2799 54.4326C44.7862 54.1433 45.0273 53.7575 45.0273 53.3837L44.9435 27.9062C44.9435 28.28 44.6903 28.6658 44.196 28.9551C43.1954 29.5338 41.5919 29.5338 40.6033 28.9551C40.109 28.6658 39.8679 28.292 39.8679 27.9183Z" fill="white" stroke="black" stroke-width="0.5" stroke-miterlimit="10"/>
<path d="M39.8613 27.942C39.859 27.1297 40.9961 26.4679 42.401 26.464C43.8059 26.46 44.9467 27.1153 44.949 27.9276C44.9513 28.7399 43.8142 29.4017 42.4093 29.4056C41.0044 29.4096 39.8636 28.7543 39.8613 27.942Z" fill="#F5FDFF" stroke="black" stroke-width="0.5" stroke-miterlimit="10"/>
<path d="M47.707 54.0986L33.2025 62.4744L25.4521 57.9724L39.9566 49.5966L47.707 54.0986Z" fill="#25E896" stroke="black" stroke-width="0.3" stroke-linejoin="round"/>
<path d="M34.0368 61.1319C33.6146 60.8881 32.9242 60.889 32.5008 61.1348L27.7629 58.3811C28.1823 58.1421 28.1919 57.7482 27.7804 57.5016L39.1396 50.9413C39.5657 51.1782 40.2386 51.1763 40.6619 50.9305L45.3999 53.6841C44.9765 53.9299 44.9738 54.3278 45.3959 54.5715L34.0368 61.1319ZM34.4726 54.8106C33.5017 55.3758 33.6601 56.3751 34.8205 57.0541C35.9916 57.7303 37.7222 57.8306 38.6931 57.2654C39.664 56.7002 39.5056 55.7009 38.3452 55.0219C37.1848 54.3428 35.4503 54.2493 34.4726 54.8106Z" fill="#25E896" stroke="black" stroke-width="0.3" stroke-linejoin="round"/>
<path d="M7.67578 12.6315L19.729 6.72414L33.9754 1.42188L29.4484 4.11651L7.67578 12.6315Z" fill="white" stroke="black" stroke-width="0.5" stroke-miterlimit="10" stroke-linejoin="round"/>
<path d="M29.45 4.11719L7.78516 12.6322L51.0071 37.6384L29.45 4.11719Z" fill="white" stroke="black" stroke-width="0.5" stroke-miterlimit="10" stroke-linejoin="round"/>
<path d="M33.9801 1.42188L29.4531 4.11651L51.0102 37.6377L55.5372 35.0509L33.9801 1.42188Z" fill="#C5F6DA" stroke="black" stroke-width="0.5" stroke-miterlimit="10" stroke-linejoin="round"/>
<path d="M52.8411 30.8489L48.3141 33.4493L51.0087 37.6394L55.5357 35.0526L52.8411 30.8489Z" fill="#C5F6DA"/>
<path d="M50.2145 26.5273L45.6875 29.1277M51.5323 28.5832L47.0054 31.1835M52.8411 30.8489L48.3141 33.4493L51.0087 37.6394L55.5357 35.0526L52.8411 30.8489Z" stroke="black" stroke-width="0.5" stroke-miterlimit="10" stroke-linejoin="round"/>
<path d="M33.5812 18.6073C33.5693 21.7596 31.2989 23.0358 28.574 21.4291C25.849 19.8224 23.6598 15.9708 23.6718 12.8185C23.6837 9.66621 25.954 8.39001 28.679 9.99669C31.4299 11.5884 33.6191 15.44 33.5812 18.6073Z" fill="#F4FC83" stroke="black" stroke-width="0.5" stroke-miterlimit="10"/>
<path fill-rule="evenodd" clip-rule="evenodd" d="M24.9191 9.94024C25.5675 9.96301 26.2897 10.1869 27.0471 10.6334C29.7721 12.2401 31.9613 16.0917 31.9493 19.244C31.9444 20.5433 31.5558 21.5239 30.9098 22.1152C32.5943 22.1744 33.7804 20.8764 33.789 18.6003C33.801 15.448 31.6118 11.5964 28.8868 9.98967C27.285 9.04524 25.8403 9.09692 24.9191 9.94024Z" fill="#909C00"/>
<path d="M26.4231 15.4179L27.6752 17.6794L31.3455 15.151" stroke="black" stroke-width="0.5"/>
<path d="M33.5812 18.6073C33.5693 21.7596 31.2989 23.0358 28.574 21.4291C25.849 19.8224 23.6598 15.9708 23.6718 12.8185C23.6837 9.66621 25.954 8.39001 28.679 9.99669C31.4299 11.5884 33.6191 15.44 33.5812 18.6073Z" stroke="black" stroke-width="0.5" stroke-miterlimit="10"/>
</svg>
