<svg width="64" height="64" viewBox="0 0 64 64" fill="none" xmlns="http://www.w3.org/2000/svg">
<g clip-path="url(#clip0)">
<path fill-rule="evenodd" clip-rule="evenodd" d="M58.0571 30.6374L56.8331 6.77711L44.7733 15.7426L48.0373 19.4024L41.199 38.7343L48.0513 46.4176L54.8896 27.0858L58.0571 30.6374Z" fill="white" stroke="black" stroke-width="0.5" stroke-linejoin="round"/>
<path fill-rule="evenodd" clip-rule="evenodd" d="M25.4819 38.5869L18.6296 30.9036L41.2038 38.7316L48.0561 46.4149L25.4819 38.5869Z" fill="#C5F6DA"/>
<path fill-rule="evenodd" clip-rule="evenodd" d="M25.4819 38.5869L18.6296 30.9036L41.2038 38.7316L48.0561 46.4149L25.4819 38.5869Z" fill="#C5F6DA"/>
<path fill-rule="evenodd" clip-rule="evenodd" d="M25.4819 38.5869L18.6296 30.9036L41.2038 38.7316L48.0561 46.4149L25.4819 38.5869Z" stroke="black" stroke-width="0.5" stroke-linejoin="round"/>
<path fill-rule="evenodd" clip-rule="evenodd" d="M25.4819 38.5869L18.6296 30.9036L41.2038 38.7316L48.0561 46.4149L25.4819 38.5869Z" stroke="black" stroke-width="0.5" stroke-linejoin="round"/>
<path fill-rule="evenodd" clip-rule="evenodd" d="M25.476 38.5875L18.6238 30.9042L3.79379 53.4293L10.646 61.1126L25.476 38.5875Z" fill="white"/>
<path fill-rule="evenodd" clip-rule="evenodd" d="M25.476 38.5875L18.6238 30.9042L3.79379 53.4293L10.646 61.1126L25.476 38.5875Z" fill="white"/>
<path fill-rule="evenodd" clip-rule="evenodd" d="M25.476 38.5875L18.6238 30.9042L3.79379 53.4293L10.646 61.1126L25.476 38.5875Z" stroke="black" stroke-width="0.5" stroke-linejoin="round"/>
<path fill-rule="evenodd" clip-rule="evenodd" d="M25.476 38.5875L18.6238 30.9042L3.79379 53.4293L10.646 61.1126L25.476 38.5875Z" stroke="black" stroke-width="0.5" stroke-linejoin="round"/>
<path d="M5.53542 28.4764L6.62032 30.3893C7.80537 32.4788 10.357 33.7545 13.9659 33.8081C21.2425 33.8821 30.1894 28.8082 33.8902 22.5086C35.7681 19.3043 35.9663 16.4303 34.7646 14.3114L33.6797 12.3984C34.8647 14.488 34.6832 17.3914 32.8348 20.5789C29.1045 26.8952 20.187 31.9525 12.9104 31.8785C9.27205 31.8415 6.70378 30.5365 5.53542 28.4764Z" fill="#909C00" stroke="black" stroke-width="0.5" stroke-linejoin="round"/>
<path d="M6.37715 20.2934C2.64686 26.6097 5.55502 31.8061 12.8611 31.8633C20.1377 31.9373 29.0845 26.8633 32.7854 20.5637C36.5157 14.2474 33.6242 9.08047 26.3309 8.97708C19.0248 8.91981 10.1074 13.9771 6.37715 20.2934Z" fill="#F4FC83" stroke="black" stroke-width="0.5" stroke-linejoin="round"/>
<path d="M10.3258 20.3355C7.71115 24.7627 9.74955 28.405 14.8706 28.4451C19.971 28.497 26.242 24.9405 28.836 20.5249C31.4507 16.0977 29.424 12.476 24.3119 12.4035C19.1909 12.3634 12.9405 15.9082 10.3258 20.3355Z" fill="#F4FC83" stroke="black" stroke-width="0.5" stroke-linejoin="round"/>
<path d="M9.8921 26.3472C8.85948 24.8589 8.92324 22.7101 10.3257 20.3354C12.9404 15.9081 19.1908 12.3634 24.3119 12.4035C27.0303 12.4421 28.8763 13.4842 29.6158 15.1175C28.726 13.8351 27.0762 13.5063 24.7099 13.4728C19.5889 13.4326 13.3384 16.9774 10.7237 21.4046C9.50105 23.4749 9.24042 24.9083 9.8921 26.3472Z" fill="#909C00" stroke="black" stroke-width="0.5" stroke-linejoin="round"/>
</g>
<defs>
<clipPath id="clip0">
<rect width="64" height="64" fill="white"/>
</clipPath>
</defs>
</svg>
