<svg width="64" height="64" viewBox="0 0 64 64" fill="none" xmlns="http://www.w3.org/2000/svg">
<g clip-path="url(#clip0)">
<path d="M55.2171 59.3821L50.4772 62.1207L13.7031 40.8963L18.4431 38.1445L55.2171 59.3821Z" fill="white" stroke="black" stroke-width="0.5" stroke-linejoin="round"/>
<path d="M55.2165 59.3828V60.7521L50.4766 63.5039V62.1215L55.2165 59.3828Z" fill="white" stroke="black" stroke-width="0.5" stroke-linejoin="round"/>
<path d="M50.4772 62.1229V63.5039L13.7031 42.2663V40.8984L50.4772 62.1229Z" fill="white" stroke="black" stroke-width="0.5" stroke-linejoin="round"/>
<path d="M49.2036 61.1015L51.7403 59.6371M45.0608 58.7099L47.5974 57.2455M40.918 56.3182L43.4546 54.8538M36.7751 53.9266L39.3118 52.4622M32.6323 51.5349L35.1689 50.0705M28.4895 49.1433L31.0261 47.6789M24.3466 46.7516L26.8833 45.2872M20.2038 44.36L22.7404 42.8956M16.061 41.9683L18.5976 40.5039" stroke="black" stroke-width="0.5"/>
<path d="M18.8864 40.1332L9.3504 57.5874C9.15886 57.9437 8.73043 58.172 8.113 58.1832C6.87814 58.2056 5.36799 57.3895 4.70776 56.343C4.37765 55.8198 4.3323 55.3355 4.52385 54.9791L14.0598 37.5249C13.8683 37.8812 13.9136 38.3656 14.2438 38.8888C14.904 39.9353 16.4141 40.7514 17.649 40.729C18.2664 40.7178 18.6949 40.4895 18.8864 40.1332Z" fill="#25E896" stroke="black" stroke-width="0.5" stroke-miterlimit="10"/>
<path fill-rule="evenodd" clip-rule="evenodd" d="M14.0937 38.6237C13.9023 38.2054 13.899 37.8244 14.057 37.5307L13.6185 38.3332C13.7711 38.4375 13.9301 38.5348 14.0937 38.6237ZM16.5942 40.5795L7.06097 58.0292C7.41776 58.1368 7.77702 58.194 8.11558 58.1881C8.73326 58.1774 9.16177 57.9494 9.35326 57.5932L18.8806 40.1543C18.6863 40.5043 18.2602 40.7278 17.6488 40.7384C17.3103 40.7442 16.951 40.6871 16.5942 40.5795Z" fill="#38C076"/>
<path d="M18.9129 40.1692L9.37966 57.6189C9.18817 57.9751 8.75965 58.2031 8.14198 58.2137C6.90662 58.2351 5.39553 57.4176 4.73463 56.3703C4.40418 55.8467 4.35863 55.3622 4.55012 55.006L14.0834 37.5563C13.8919 37.9125 13.9374 38.397 14.2679 38.9206C14.9288 39.9679 16.4399 40.7854 17.6752 40.764C18.2929 40.7534 18.7214 40.5254 18.9129 40.1692Z" stroke="black" stroke-width="0.5" stroke-miterlimit="10"/>
<path d="M18.7384 38.8102C19.399 39.8549 18.9183 40.7432 17.6808 40.7645C16.4433 40.7857 14.9307 39.9701 14.27 38.9254C13.6093 37.8806 14.09 36.9923 15.3275 36.9711C16.5651 36.9498 18.0777 37.7654 18.7384 38.8102Z" fill="#38C076" stroke="black" stroke-width="0.5" stroke-miterlimit="10"/>
<path d="M55.819 28.5167L25.0654 10.8239C23.8852 10.1392 22.9479 10.7002 22.965 12.0727L23.2483 34.7986C23.2654 36.171 24.2303 37.8202 25.4105 38.5049L56.1641 56.1977C57.3443 56.8823 58.2817 56.3213 58.2646 54.9489L57.9812 32.223C57.9641 30.8505 56.999 29.1835 55.819 28.5167Z" fill="#B5F4FD" stroke="black" stroke-width="0.5" stroke-linejoin="round"/>
<path d="M57.951 37.3084L22.9287 17.1256L22.9791 23.3032L58.0016 43.5039L57.951 37.3084Z" fill="#009BBD" stroke="black" stroke-width="0.5"/>
<path d="M51.2832 50.2915C50.336 48.6801 50.3084 46.9272 51.2215 46.3765C52.1346 45.8257 53.6426 46.6856 54.5897 48.297C55.5369 49.9085 55.5645 51.6613 54.6514 52.2121C53.7383 52.7628 52.2303 51.903 51.2832 50.2915Z" fill="#B5F4FD" stroke="black" stroke-width="0.5" stroke-linejoin="round"/>
<path d="M48.4746 48.6548C47.5274 47.0434 47.4998 45.2905 48.4129 44.7398C49.326 44.189 50.834 45.0489 51.7811 46.6603C52.7283 48.2718 52.7559 50.0246 51.8428 50.5754C50.9297 51.1261 49.4217 50.2663 48.4746 48.6548Z" fill="#B5F4FD" stroke="black" stroke-width="0.5" stroke-linejoin="round"/>
<mask id="mask0" mask-type="alpha" maskUnits="userSpaceOnUse" x="13" y="1" width="21" height="35">
<path d="M29.9048 5.87394C25.734 -0.629333 19.4842 -0.432157 15.8964 6.3547C12.3374 13.1565 12.8162 23.9188 16.9432 30.4357C21.114 36.9389 27.3638 36.7418 30.9516 29.9549C34.5394 23.168 34.0755 12.3772 29.9048 5.87394Z" fill="#F0FAFC"/>
</mask>
<g mask="url(#mask0)">
<path d="M61.8837 29.5657L22.6231 7.36683C21.1164 6.50771 19.9362 7.23697 19.9785 8.99039L20.678 38.0242C20.7203 39.7776 21.9684 41.872 23.4752 42.7311L62.7358 64.93C64.2425 65.7891 65.4227 65.0599 65.3804 63.3065L64.6809 34.2727C64.6386 32.5193 63.3899 30.4021 61.8837 29.5657Z" fill="#F5FDFF" stroke="black" stroke-width="0.5" stroke-linejoin="round"/>
<path d="M65.2742 40.9459L20.3057 15.6085L20.461 23.4637L65.4299 48.8238L65.2742 40.9459Z" stroke="black" stroke-width="0.5"/>
</g>
<path d="M20.7866 32.9712L17.4642 39.048C17.3939 39.1788 17.2484 39.2406 17.0492 39.2454C16.6175 39.2649 16.0954 38.9824 15.8745 38.6097C15.7691 38.4402 15.7523 38.2624 15.8226 38.1317L19.1451 32.0548C19.0748 32.1855 19.1033 32.3415 19.197 32.5329C19.4179 32.9055 19.94 33.188 20.3717 33.1685C20.5591 33.1855 20.7164 33.1019 20.7866 32.9712Z" fill="white" stroke="black" stroke-width="0.5" stroke-miterlimit="10"/>
<path d="M20.719 32.5068C20.9394 32.8785 20.7862 33.1609 20.3538 33.1802C19.9214 33.1995 19.3993 32.9176 19.1789 32.5459C18.9586 32.1742 19.1118 31.8918 19.5441 31.8725C19.9765 31.8532 20.4987 32.1351 20.719 32.5068Z" fill="black" stroke="black" stroke-width="0.5" stroke-miterlimit="10"/>
<path opacity="0.5" d="M30.0932 6.01983C26.054 -0.519828 19.8455 -0.399515 16.177 6.32823C12.5367 13.0713 12.8435 23.8152 16.8391 30.3679C20.8783 36.9076 27.0868 36.7872 30.7554 30.0595C34.4239 23.3318 34.1325 12.5595 30.0932 6.01983Z" fill="#F0FAFC"/>
<path d="M24.0542 35.2927C21.4898 35.3674 18.8935 33.741 16.8403 30.4322C12.8059 23.8169 12.4758 12.9859 16.1757 6.20535C17.9963 2.83574 20.4698 1.10114 22.9906 1.03938L25.5258 0.896485C23.005 0.958243 20.5315 2.69285 18.7109 6.06246C15.0109 12.843 15.341 23.674 19.3755 30.2893C21.4134 33.6264 24.315 35.2256 26.8793 35.1509C25.6113 35.1959 25.3222 35.2476 24.0542 35.2927Z" fill="#C5F6DA" stroke="black" stroke-width="0.5" stroke-miterlimit="10"/>
<path d="M25.858 0.923667L22.9345 1.08951C25.4647 0.993503 28.0417 2.59633 30.0978 5.88403C34.1389 12.4577 34.5621 23.2728 30.9713 30.0759C29.2082 33.4501 26.7885 35.203 24.3062 35.2919L27.2006 35.1549C29.6746 35.0288 32.1003 33.2757 33.8949 29.9101C37.4857 23.107 37.0775 12.2634 33.0215 5.71816C30.9654 2.43047 28.3883 0.827659 25.858 0.923667Z" fill="white" stroke="black" stroke-width="0.5" stroke-miterlimit="10"/>
</g>
<defs>
<clipPath id="clip0">
<rect width="64" height="64" fill="white"/>
</clipPath>
</defs>
</svg>
