<svg width="64" height="64" viewBox="0 0 64 64" fill="none" xmlns="http://www.w3.org/2000/svg">
<g clip-path="url(#clip0)">
<path d="M48.951 16.1423L49.0443 58.3058C49.0443 58.7193 49.3245 59.1329 49.858 59.453C50.9518 60.0933 52.7393 60.0933 53.8331 59.453C54.3934 59.1329 54.6602 58.706 54.6602 58.2925L54.5668 16.129C54.5668 16.5425 54.2867 16.9693 53.7397 17.2895C52.6326 17.9298 50.8585 17.9298 49.7646 17.2895C49.2177 16.9693 48.951 16.5558 48.951 16.1423Z" fill="white" stroke="black" stroke-width="0.5" stroke-miterlimit="10"/>
<path fill-rule="evenodd" clip-rule="evenodd" d="M54.6523 58.4122L54.6469 55.1425L54.5668 36.1484C54.5668 36.562 54.2866 36.9888 53.7397 37.309C52.6326 37.9492 50.8584 37.9492 49.7646 37.309C49.3524 37.0676 49.0993 36.7733 48.9997 36.4659L49.031 55.157L49.0443 58.3031C49.0443 58.7167 49.3244 59.1302 49.858 59.4503C50.9518 60.0906 52.7393 60.0906 53.8331 59.4503C54.3382 59.1617 54.6048 58.7863 54.6523 58.4122Z" fill="#B5F4FD"/>
<path d="M54.6523 58.4122L54.9023 58.4118L54.9024 58.4278L54.9003 58.4438L54.6523 58.4122ZM54.6469 55.1425L54.8969 55.1414L54.8969 55.1421L54.6469 55.1425ZM54.5668 36.1484H54.3168L54.8168 36.1474L54.5668 36.1484ZM53.7397 37.309L53.866 37.5247L53.8649 37.5254L53.7397 37.309ZM49.7646 37.309L49.8909 37.0932L49.7646 37.309ZM48.9997 36.4659L48.7497 36.4663L48.747 34.8755L49.2375 36.3888L48.9997 36.4659ZM49.031 55.157L48.781 55.1581L48.781 55.1574L49.031 55.157ZM49.0443 58.3031L49.2943 58.3021V58.3031H49.0443ZM49.858 59.4503L49.7317 59.6661L49.7294 59.6647L49.858 59.4503ZM53.8331 59.4503L53.7068 59.2345L53.7091 59.2333L53.8331 59.4503ZM54.4023 58.4126L54.3969 55.1429L54.8969 55.1421L54.9023 58.4118L54.4023 58.4126ZM54.3969 55.1435L54.3168 36.1495L54.8168 36.1474L54.8969 55.1414L54.3969 55.1435ZM54.8168 36.1484C54.8168 36.6821 54.458 37.1782 53.866 37.5247L53.6134 37.0932C54.1153 36.7994 54.3168 36.4419 54.3168 36.1484H54.8168ZM53.8649 37.5254C53.2647 37.8725 52.4987 38.0392 51.7472 38.0392C50.9958 38.0392 50.2325 37.8725 49.6383 37.5247L49.8909 37.0932C50.3906 37.3857 51.0612 37.5392 51.7472 37.5392C52.433 37.5392 53.1076 37.3857 53.6146 37.0925L53.8649 37.5254ZM49.6383 37.5247C49.1905 37.2626 48.8858 36.9253 48.7618 36.5429L49.2375 36.3888C49.3128 36.6212 49.5142 36.8727 49.8909 37.0932L49.6383 37.5247ZM49.2497 36.4654L49.281 55.1566L48.781 55.1574L48.7497 36.4663L49.2497 36.4654ZM49.281 55.156L49.2943 58.3021L48.7943 58.3042L48.781 55.1581L49.281 55.156ZM49.2943 58.3031C49.2943 58.5952 49.4941 58.9405 49.9866 59.2359L49.7294 59.6647C49.1547 59.3199 48.7943 58.8381 48.7943 58.3031H49.2943ZM49.9843 59.2346C50.4838 59.5269 51.1577 59.6805 51.8455 59.6805C52.5334 59.6805 53.2073 59.5269 53.7068 59.2346L53.9594 59.6661C53.365 60.014 52.5983 60.1805 51.8455 60.1805C51.0928 60.1805 50.3261 60.014 49.7317 59.6661L49.9843 59.2346ZM53.7091 59.2333C54.1687 58.9706 54.3695 58.6542 54.4043 58.3807L54.9003 58.4438C54.84 58.9185 54.5077 59.3528 53.9571 59.6674L53.7091 59.2333Z" fill="black"/>
<path d="M48.9444 16.1659C48.9418 15.2671 50.1999 14.5349 51.7543 14.5305C53.3088 14.5261 54.571 15.2512 54.5735 16.15C54.5761 17.0487 53.318 17.7809 51.7635 17.7853C50.2091 17.7897 48.9469 17.0647 48.9444 16.1659Z" fill="white" stroke="black" stroke-width="0.5" stroke-miterlimit="10"/>
<path d="M38.4666 22.5601L38.56 52.0435C38.56 52.457 38.8401 52.8705 39.3736 53.1906C40.4675 53.8309 42.2549 53.8309 43.3487 53.1906C43.909 52.8705 44.1758 52.4436 44.1758 52.0301L44.0824 22.5468C44.0824 22.9603 43.8023 23.3871 43.2554 23.7073C42.1482 24.3476 40.3741 24.3476 39.2803 23.7073C38.7334 23.3871 38.4666 22.9736 38.4666 22.5601Z" fill="white" stroke="black" stroke-width="0.5" stroke-miterlimit="10"/>
<path fill-rule="evenodd" clip-rule="evenodd" d="M38.4979 29.5795L38.5591 52.0422C38.5591 52.4557 38.8392 52.8693 39.3728 53.1894C40.4666 53.8297 42.2541 53.8297 43.3479 53.1894C43.7993 52.9314 44.0602 52.6042 44.1445 52.2705L44.082 29.3203C44.082 29.7338 43.8018 30.1607 43.2549 30.4808C42.1478 31.1211 40.3737 31.1211 39.2798 30.4808C38.8416 30.2243 38.5833 29.9079 38.4979 29.5795Z" fill="#B5F4FD"/>
<path d="M38.4979 29.5795L38.2479 29.5802L38.2425 27.6043L38.7398 29.5166L38.4979 29.5795ZM38.5591 52.0422L38.8091 52.0415V52.0422H38.5591ZM39.3728 53.1894L39.2465 53.4052L39.2442 53.4038L39.3728 53.1894ZM43.3479 53.1894L43.2216 52.9736L43.2239 52.9723L43.3479 53.1894ZM44.1445 52.2705L44.3945 52.2698L44.3946 52.3013L44.3869 52.3318L44.1445 52.2705ZM44.082 29.3203H43.832L44.332 29.3196L44.082 29.3203ZM43.2549 30.4808L43.3812 30.6966L43.3801 30.6972L43.2549 30.4808ZM39.2798 30.4808L39.4061 30.2651L39.2798 30.4808ZM38.7479 29.5788L38.8091 52.0415L38.3091 52.0429L38.2479 29.5802L38.7479 29.5788ZM38.8091 52.0422C38.8091 52.3343 39.009 52.6795 39.5014 52.975L39.2442 53.4038C38.6695 53.059 38.3091 52.5772 38.3091 52.0422H38.8091ZM39.4991 52.9736C39.9986 53.266 40.6725 53.4196 41.3603 53.4196C42.0482 53.4196 42.7221 53.266 43.2216 52.9736L43.4742 53.4052C42.8798 53.7531 42.1131 53.9196 41.3603 53.9196C40.6076 53.9196 39.8409 53.7531 39.2465 53.4052L39.4991 52.9736ZM43.2239 52.9723C43.6344 52.7377 43.839 52.4593 43.9022 52.2093L44.3869 52.3318C44.2814 52.7491 43.9642 53.1252 43.4719 53.4065L43.2239 52.9723ZM43.8945 52.2712L43.832 29.321L44.332 29.3196L44.3945 52.2698L43.8945 52.2712ZM44.332 29.3203C44.332 29.8539 43.9732 30.3501 43.3812 30.6966L43.1286 30.2651C43.6305 29.9713 43.832 29.6137 43.832 29.3203H44.332ZM43.3801 30.6972C42.7799 31.0443 42.0139 31.211 41.2624 31.211C40.511 31.211 39.7477 31.0444 39.1535 30.6966L39.4061 30.2651C39.9058 30.5576 40.5765 30.711 41.2624 30.711C41.9482 30.711 42.6228 30.5576 43.1298 30.2644L43.3801 30.6972ZM39.1535 30.6966C38.6778 30.4181 38.363 30.0543 38.2559 29.6424L38.7398 29.5166C38.8035 29.7615 39.0055 30.0306 39.4061 30.2651L39.1535 30.6966Z" fill="black"/>
<path d="M38.46 22.5526C38.4574 21.6538 39.7155 20.9216 41.27 20.9172C42.8244 20.9128 44.0866 21.6379 44.0891 22.5367C44.0917 23.4355 42.8336 24.1676 41.2792 24.172C39.7247 24.1764 38.4625 23.4514 38.46 22.5526Z" fill="white" stroke="black" stroke-width="0.5" stroke-miterlimit="10"/>
<path d="M27.9861 27.2321L28.0795 45.6393C28.0795 46.0528 28.3596 46.4663 28.8932 46.7865C29.987 47.4268 31.7745 47.4268 32.8683 46.7865C33.4285 46.4663 33.6953 46.0395 33.6953 45.626L33.6019 27.2188C33.6019 27.6323 33.3218 28.0592 32.7749 28.3793C31.6677 29.0196 29.8936 29.0196 28.7998 28.3793C28.2529 28.0592 27.9861 27.6457 27.9861 27.2321Z" fill="#B5F4FD" stroke="black" stroke-width="0.5" stroke-miterlimit="10"/>
<path fill-rule="evenodd" clip-rule="evenodd" d="M28.0306 26.9851L28.0814 45.6397C28.0814 46.0532 28.3615 46.4667 28.8951 46.7868C29.9889 47.4271 31.7764 47.4271 32.8702 46.7868C33.3041 46.5389 33.562 46.2269 33.6562 45.9067L33.6039 26.6875C33.6039 27.101 33.3237 27.5279 32.7768 27.848C31.6697 28.4883 29.8955 28.4883 28.8017 27.848C28.3806 27.6015 28.1256 27.2997 28.0306 26.9851Z" fill="#B5F4FD"/>
<path d="M28.0306 26.9851L27.7806 26.9858C27.7802 26.8617 27.8709 26.7562 27.9937 26.7378C28.1164 26.7195 28.234 26.794 28.2699 26.9128L28.0306 26.9851ZM28.0814 45.6397L28.3314 45.639V45.6397H28.0814ZM28.8951 46.7868L28.7688 47.0026L28.7665 47.0012L28.8951 46.7868ZM32.8702 46.7868L32.7439 46.5711L32.7462 46.5698L32.8702 46.7868ZM33.6562 45.9067L33.9062 45.906C33.9063 45.9301 33.9029 45.9541 33.8961 45.9772L33.6562 45.9067ZM33.6039 26.6875H33.3539C33.3539 26.5496 33.4656 26.4377 33.6035 26.4375C33.7415 26.4373 33.8535 26.5489 33.8539 26.6868L33.6039 26.6875ZM32.7768 27.848L32.9031 28.0638L32.902 28.0644L32.7768 27.848ZM28.8017 27.848L28.6754 28.0638L28.8017 27.848ZM28.2806 26.9844L28.3314 45.639L27.8314 45.6403L27.7806 26.9858L28.2806 26.9844ZM28.3314 45.6397C28.3314 45.9317 28.5313 46.277 29.0237 46.5725L28.7665 47.0012C28.1918 46.6564 27.8314 46.1746 27.8314 45.6397H28.3314ZM29.0214 46.5711C29.5209 46.8635 30.1948 47.0171 30.8827 47.0171C31.5705 47.0171 32.2444 46.8635 32.7439 46.5711L32.9965 47.0026C32.4021 47.3505 31.6354 47.5171 30.8827 47.5171C30.1299 47.5171 29.3632 47.3505 28.7688 47.0026L29.0214 46.5711ZM32.7462 46.5698C33.1407 46.3443 33.3452 46.0781 33.4164 45.8361L33.8961 45.9772C33.7788 46.3757 33.4676 46.7334 32.9942 47.0039L32.7462 46.5698ZM33.4063 45.9073L33.3539 26.6882L33.8539 26.6868L33.9062 45.906L33.4063 45.9073ZM33.8539 26.6875C33.8539 27.2211 33.4951 27.7172 32.9031 28.0638L32.6505 27.6323C33.1524 27.3385 33.3539 26.9809 33.3539 26.6875H33.8539ZM32.902 28.0644C32.3018 28.4115 31.5358 28.5782 30.7843 28.5782C30.0329 28.5782 29.2696 28.4116 28.6754 28.0638L28.928 27.6323C29.4277 27.9247 30.0983 28.0782 30.7843 28.0782C31.4701 28.0782 32.1447 27.9248 32.6517 27.6316L32.902 28.0644ZM28.6754 28.0638C28.2181 27.7961 27.9098 27.4498 27.7912 27.0574L28.2699 26.9128C28.3414 27.1495 28.5432 27.407 28.928 27.6323L28.6754 28.0638Z" fill="black"/>
<path d="M27.9795 27.1229C27.977 26.2241 29.235 25.492 30.7895 25.4876C32.3439 25.4832 33.6061 26.2082 33.6087 27.107C33.6112 28.0058 32.3531 28.7379 30.7987 28.7423C29.2442 28.7467 27.9821 28.0217 27.9795 27.1229Z" fill="#B5F4FD" stroke="black" stroke-width="0.5" stroke-miterlimit="10"/>
<path d="M20.4611 43.9352L9.41623 61.9818C9.19409 62.3504 8.72625 62.5709 8.06824 62.5511C6.75222 62.5115 5.18587 61.5675 4.53628 60.4222C4.21148 59.8496 4.18792 59.333 4.41006 58.9644L15.4549 40.9178C15.2327 41.2864 15.2563 41.803 15.5811 42.3756C16.2307 43.5208 17.797 44.4649 19.1131 44.5044C19.7711 44.5242 20.2389 44.3037 20.4611 43.9352Z" fill="#F4FC83" stroke="black" stroke-width="0.5" stroke-miterlimit="10"/>
<path fill-rule="evenodd" clip-rule="evenodd" d="M15.437 42.0778C15.2556 41.6249 15.2719 41.221 15.4549 40.9175L14.9475 41.7464C15.1041 41.8645 15.2679 41.9754 15.437 42.0778ZM17.9978 44.282L6.95296 62.3286C7.32751 62.461 7.70731 62.5399 8.06828 62.5507C8.72629 62.5705 9.19414 62.35 9.41628 61.9815L20.4542 43.9461C20.2294 44.3079 19.7644 44.5237 19.1131 44.5041C18.7521 44.4933 18.3723 44.4144 17.9978 44.282Z" fill="#C2CC41"/>
<path d="M20.4611 43.9352L9.4163 61.9818C9.19416 62.3504 8.72632 62.5708 8.0683 62.5511C6.75228 62.5115 5.18592 61.5674 4.53631 60.4222C4.21151 59.8496 4.18795 59.333 4.41009 58.9644L15.4549 40.9178C15.2327 41.2864 15.2563 41.803 15.5811 42.3756C16.2307 43.5208 17.7971 44.4649 19.1131 44.5045C19.7711 44.5242 20.239 44.3038 20.4611 43.9352Z" stroke="black" stroke-width="0.5" stroke-miterlimit="10"/>
<path d="M20.3356 42.4799C20.9852 43.6252 20.4298 44.5465 19.1138 44.507C17.7978 44.4675 16.2314 43.5234 15.5818 42.3782C14.9322 41.2329 15.4876 40.3116 16.8036 40.3511C18.1196 40.3906 19.686 41.3347 20.3356 42.4799Z" fill="#F4FC83" stroke="black" stroke-width="0.5" stroke-miterlimit="10"/>
<path d="M22.8267 36.4771L18.9778 42.7624C18.8963 42.8977 18.7382 42.956 18.526 42.9511C18.0656 42.9501 17.5247 42.624 17.3088 42.2172C17.2053 42.0319 17.1967 41.8423 17.2782 41.707L21.1271 35.4217C21.0456 35.557 21.0678 35.7241 21.1577 35.9319C21.3736 36.3387 21.9146 36.6648 22.3749 36.6658C22.5735 36.6933 22.7452 36.6124 22.8267 36.4771Z" fill="white" stroke="black" stroke-width="0.5" stroke-miterlimit="10"/>
<path d="M22.7815 35.9881C22.9973 36.3949 22.8207 36.688 22.3603 36.687C21.8999 36.6861 21.3589 36.3599 21.1431 35.9532C20.9272 35.5464 21.1038 35.2533 21.5642 35.2543C22.0246 35.2552 22.5656 35.5814 22.7815 35.9881Z" fill="black" stroke="black" stroke-width="0.5" stroke-miterlimit="10"/>
<mask id="mask0" mask-type="alpha" maskUnits="userSpaceOnUse" x="6" y="0" width="40" height="43">
<path d="M33.7811 8.79713C29.8107 1.64248 23.1992 1.45877 18.9595 8.42649C14.7492 15.4119 14.5381 26.8485 18.4615 34.0148C22.4319 41.1695 29.0433 41.3532 33.283 34.3855C37.5227 27.4177 37.7515 15.9518 33.7811 8.79713Z" fill="white"/>
</mask>
<g mask="url(#mask0)">
<path d="M26.4768 22.4072L26.6194 50.5294C26.6194 51.1612 27.0474 51.7929 27.8626 52.282C29.5337 53.2603 32.2646 53.2603 33.9357 52.282C34.7916 51.7929 35.1992 51.1408 35.1992 50.509L35.0566 22.3868C35.0566 23.0186 34.6286 23.6707 33.793 24.1598C32.1015 25.138 29.3911 25.138 27.7199 24.1598C26.8844 23.6707 26.4768 23.0389 26.4768 22.4072Z" fill="white" stroke="black" stroke-width="0.5" stroke-miterlimit="10" stroke-linejoin="round"/>
<path d="M26.467 22.6591C26.4631 21.286 28.3852 20.1674 30.7601 20.1607C33.1349 20.1539 35.0633 21.2616 35.0672 22.6348C35.0711 24.0079 33.149 25.1265 30.7741 25.1333C28.3993 25.14 26.4709 24.0323 26.467 22.6591Z" fill="white" stroke="black" stroke-width="0.5" stroke-miterlimit="10" stroke-linejoin="round"/>
</g>
<path opacity="0.5" d="M33.7811 8.80104C29.8107 1.64639 23.1992 1.46267 18.9595 8.4304C14.7492 15.4158 14.5381 26.8524 18.4615 34.0187C22.4319 41.1734 29.0433 41.3571 33.283 34.3894C37.5227 27.4216 37.7515 15.9557 33.7811 8.80104Z" fill="#F0FAFC"/>
<path d="M25.8908 39.6121C23.158 39.5655 20.4759 37.7087 18.4555 34.0902C14.4912 26.859 14.6788 15.3283 18.9539 8.3018C21.059 4.80907 23.7777 3.08663 26.4634 3.14493L30.9476 3.20684C28.2618 3.14854 25.5432 4.87099 23.438 8.36371C19.163 15.3902 18.9753 26.921 22.9397 34.1521C24.9423 37.8 27.6422 39.6274 30.3749 39.674C29.0232 39.6595 27.2425 39.6266 25.8908 39.6121Z" fill="#C5F6DA" stroke="black" stroke-width="0.5" stroke-miterlimit="10"/>
<path d="M26.4642 3.14557L30.9481 3.20761C33.6807 3.25432 36.3628 5.11123 38.3831 8.73005L33.8992 8.66801C31.8789 5.04919 29.1968 3.19228 26.4642 3.14557Z" fill="#F1FFF7" stroke="black" stroke-width="0.5" stroke-miterlimit="10"/>
<path d="M30.3577 39.7046L25.8913 39.6133C28.577 39.6716 31.2957 37.9492 33.4008 34.4564C37.6756 27.4299 37.8632 15.8989 33.8989 8.66763L38.383 8.72959C42.365 15.9315 42.1597 27.4918 37.8848 34.5183C35.7504 37.9934 33.0318 39.7159 30.3577 39.7046Z" fill="#F1FFF7" stroke="black" stroke-width="0.5" stroke-miterlimit="10"/>
</g>
<defs>
<clipPath id="clip0">
<rect width="64" height="64" fill="white"/>
</clipPath>
</defs>
</svg>
