<svg width="64" height="64" viewBox="0 0 64 64" fill="none" xmlns="http://www.w3.org/2000/svg">
<path d="M26.0372 21.9836L18.3994 26.3713C17.2619 27.0213 15.6368 26.8588 14.0117 25.8838L21.6495 21.4961C23.4371 22.4711 25.0622 22.6336 26.0372 21.9836Z" fill="#C5F6DA" stroke="black" stroke-width="0.5" stroke-miterlimit="10" stroke-linejoin="round"/>
<path d="M10.5458 11.8927L17.6348 7.82031C16.579 8.42363 15.9757 9.78109 15.9757 11.591C15.9757 15.2109 18.5398 19.585 21.7072 21.5458L14.6182 25.6182C11.4508 23.6574 8.88672 19.2833 8.88672 15.6634C8.88672 13.8535 9.49004 12.496 10.5458 11.8927Z" fill="#C5F6DA" stroke="black" stroke-width="0.5" stroke-miterlimit="10" stroke-linejoin="round"/>
<path d="M10.0156 5.31649L10.069 5.28584C10.0511 5.29594 10.0333 5.30616 10.0156 5.31649Z" fill="#C5F6DA"/>
<path d="M21.2951 3.18913C18.5366 1.67162 15.8102 1.71349 14.0563 2.7366L10.069 5.28584C11.8758 4.26377 14.5495 4.35336 17.3873 5.84689C23.0557 9.2109 27.5108 17.1314 27.5108 23.5669C27.5108 26.8851 26.3042 29.1476 24.4942 30.2034L28.5349 27.6235C30.3448 26.5677 31.5515 24.3052 31.5515 20.987C31.5515 14.3505 27.0266 6.50738 21.2951 3.18913Z" fill="#C5F6DA"/>
<path d="M10.069 5.28584L10.0156 5.31649C10.0333 5.30616 10.0511 5.29594 10.069 5.28584ZM10.069 5.28584L14.0563 2.7366C15.8102 1.71349 18.5366 1.67162 21.2951 3.18913C27.0266 6.50738 31.5515 14.3505 31.5515 20.987M10.069 5.28584C11.8758 4.26377 14.5495 4.35336 17.3873 5.84689C23.0557 9.2109 27.5108 17.1314 27.5108 23.5669M27.5108 23.5669C27.5108 26.8851 26.3042 29.1476 24.4942 30.2034L28.5349 27.6235C30.3448 26.5677 31.5515 24.3052 31.5515 20.987M27.5108 23.5669L31.5515 20.987" stroke="black" stroke-width="0.5" stroke-miterlimit="10" stroke-linejoin="round"/>
<path d="M17.2564 5.92014C22.9879 9.23839 27.5128 17.0815 27.5128 23.718C27.5128 30.2037 22.8371 32.9186 17.2564 29.6004C11.5249 26.2821 7 18.439 7 11.8025C7 5.31683 11.6757 2.75273 17.2564 5.92014ZM17.2564 24.3213C20.4238 26.1313 22.9879 24.623 22.9879 21.0031C22.9879 17.3832 20.4238 12.8583 17.2564 11.0483C14.089 9.38922 11.5249 10.8975 11.5249 14.5174C11.5249 18.1373 14.089 22.5114 17.2564 24.3213Z" fill="white" stroke="black" stroke-width="0.5" stroke-miterlimit="10" stroke-linejoin="round"/>
<path d="M38.2016 4.51953L42.6673 9.14584L20.5868 59.0613L16.1211 54.435L38.2016 4.51953Z" fill="white" stroke="black" stroke-width="0.5" stroke-miterlimit="10" stroke-linejoin="round"/>
<path d="M38.1992 4.51954L43.4092 1.59766L47.875 5.98048L42.6649 9.14585L38.1992 4.51954Z" fill="white" stroke="black" stroke-width="0.5" stroke-miterlimit="10" stroke-linejoin="round"/>
<path d="M42.6665 9.14584L47.8765 5.98047L25.7959 55.896L20.5859 59.0613L42.6665 9.14584Z" fill="#C5F6DA" stroke="black" stroke-width="0.5" stroke-miterlimit="10" stroke-linejoin="round"/>
<path d="M35.4499 42.3486L42.496 38.3008C41.4466 38.9005 40.8469 40.0998 40.8469 42.0487C40.8469 45.6468 43.3955 49.9944 46.5438 51.7934L39.4977 55.8412C36.3494 54.0422 33.8008 49.6946 33.8008 46.0965C33.8008 44.2975 34.5504 42.9482 35.4499 42.3486Z" fill="#F4FC83" stroke="black" stroke-width="0.5" stroke-miterlimit="10" stroke-linejoin="round"/>
<path d="M50.59 52.2427L43.5439 56.2905C42.4945 56.8902 40.9953 56.7403 39.4961 55.8408L46.5423 51.793C48.0414 52.6925 49.5406 52.8424 50.59 52.2427Z" fill="#F4FC83" stroke="black" stroke-width="0.5" stroke-miterlimit="10" stroke-linejoin="round"/>
<path d="M38.5069 33.1912L35 35.5857C36.9489 34.5362 39.6266 34.612 42.3252 36.2611C47.9607 39.6038 52.3904 47.478 52.3904 53.8757C52.3904 57.024 51.191 59.2728 49.392 60.3222L52.8989 57.9277C54.6979 56.8783 55.8972 54.6295 55.8972 51.4812C55.8972 44.8848 51.3997 37.0891 45.7028 33.7909C42.9072 32.2123 40.2783 32.1579 38.5069 33.1912Z" fill="#909C00"/>
<path d="M52.3904 53.8757C52.3904 47.478 47.9607 39.6038 42.3252 36.2611C39.6266 34.612 36.9489 34.5362 35 35.5857L38.5069 33.1912C40.2783 32.1579 42.9072 32.2123 45.7028 33.7909C51.3997 37.0891 55.8972 44.8848 55.8972 51.4812M52.3904 53.8757C52.3904 57.024 51.191 59.2728 49.392 60.3222L52.8989 57.9277C54.6979 56.8783 55.8972 54.6295 55.8972 51.4812M52.3904 53.8757L55.8972 51.4812" stroke="black" stroke-width="0.5" stroke-miterlimit="10" stroke-linejoin="round"/>
<path d="M42.1944 36.1857C47.8913 39.4839 52.3889 47.2796 52.3889 53.876C52.3889 60.3225 47.7414 62.8711 42.1944 59.7229C36.6475 56.4247 32 48.6289 32 42.1824C32 35.586 36.6475 33.0374 42.1944 36.1857Z" fill="#F4FC83" stroke="black" stroke-width="0.5" stroke-miterlimit="10" stroke-linejoin="round"/>
<path fill-rule="evenodd" clip-rule="evenodd" d="M47.8115 57.4268C46.6164 57.5925 45.2145 57.2789 43.7285 56.4265C39.4744 53.8699 35.9102 47.8272 35.9102 42.8303C35.9102 40.2516 36.8167 38.471 38.261 37.6523C36.0228 37.9604 34.5039 39.9612 34.5039 43.299C34.5039 48.2959 38.0681 54.3387 42.3222 56.8952C44.4417 58.1111 46.39 58.2308 47.8115 57.4268Z" fill="#909C00"/>
<path d="M47.8115 57.4268L47.9346 57.6444C48.0391 57.5853 48.0868 57.4603 48.0483 57.3466C48.0099 57.233 47.896 57.1626 47.7772 57.1791L47.8115 57.4268ZM43.7285 56.4265L43.5997 56.6408L43.6041 56.6433L43.7285 56.4265ZM38.261 37.6523L38.3843 37.8698C38.4886 37.8107 38.5363 37.6858 38.4979 37.5722C38.4594 37.4586 38.3457 37.3883 38.227 37.4047L38.261 37.6523ZM42.3222 56.8952L42.1934 57.1095L42.1978 57.1121L42.3222 56.8952ZM47.7772 57.1791C46.6511 57.3353 45.305 57.0426 43.8529 56.2096L43.6041 56.6433C45.124 57.5152 46.5816 57.8498 47.8459 57.6744L47.7772 57.1791ZM43.8573 56.2122C41.7745 54.9605 39.8473 52.8456 38.4403 50.4181C37.0333 47.9905 36.1602 45.2736 36.1602 42.8303H35.6602C35.6602 45.3838 36.5692 48.1868 38.0077 50.6689C39.4464 53.1511 41.4283 55.3358 43.5997 56.6407L43.8573 56.2122ZM36.1602 42.8303C36.1602 40.3044 37.046 38.6284 38.3843 37.8698L38.1378 37.4349C36.5873 38.3136 35.6602 40.1989 35.6602 42.8303H36.1602ZM34.7539 43.299C34.7539 41.6659 35.1257 40.3849 35.7489 39.4815C36.3691 38.5825 37.2465 38.0443 38.2951 37.9L38.227 37.4047C37.0374 37.5684 36.0362 38.1846 35.3374 39.1975C34.6416 40.206 34.2539 41.5943 34.2539 43.299H34.7539ZM42.451 56.6809C40.3683 55.4293 38.441 53.3143 37.0341 50.8869C35.627 48.4592 34.7539 45.7424 34.7539 43.299H34.2539C34.2539 45.8526 35.1629 48.6556 36.6015 51.1376C38.0402 53.6199 40.0221 55.8046 42.1935 57.1095L42.451 56.6809ZM47.6884 57.2092C46.3698 57.955 44.5197 57.8675 42.4466 56.6784L42.1978 57.1121C44.3638 58.3546 46.4102 58.5065 47.9346 57.6444L47.6884 57.2092Z" fill="black"/>
<path d="M42.3222 38.6535C46.6913 41.21 50.1405 47.2528 50.1405 52.3659C50.1405 57.3628 46.5763 59.3383 42.3222 56.8979C38.0681 54.3414 34.5039 48.2986 34.5039 43.3017C34.5039 38.1886 38.0681 36.2131 42.3222 38.6535Z" stroke="black" stroke-width="0.5" stroke-miterlimit="10" stroke-linejoin="round"/>
<path d="M52.3495 43.2105C52.3822 43.0887 52.3191 42.9618 52.2024 42.9142C52.0857 42.8667 51.9519 42.9134 51.8901 43.0232L50.1131 46.1843L46.6104 45.2455C46.4887 45.2129 46.3617 45.2759 46.3142 45.3926C46.2666 45.5093 46.3133 45.6431 46.4232 45.7049L49.5843 47.4819L48.6454 50.9846C48.6128 51.1063 48.6759 51.2333 48.7926 51.2808C48.9092 51.3284 49.0431 51.2817 49.1048 51.1718L50.8818 48.0107L54.3846 48.9496C54.5063 48.9822 54.6332 48.9191 54.6808 48.8024C54.7284 48.6858 54.6816 48.5519 54.5718 48.4902L51.4107 46.7132L52.3495 43.2105Z" fill="white" stroke="black" stroke-width="0.5" stroke-linejoin="round"/>
</svg>
