<svg width="64" height="64" viewBox="0 0 64 64" fill="none" xmlns="http://www.w3.org/2000/svg">
<g clip-path="url(#clip0)">
<path d="M50.8784 41.2891L50.8407 50.406C50.8784 57.0177 41.6673 62.3673 30.2711 62.3673C24.5636 62.3673 19.4024 61.0299 15.6539 58.8637C11.9054 56.6975 9.56962 53.7024 9.55078 50.406L9.58846 41.2891C9.60729 44.5855 11.943 47.5805 15.6915 49.7467C19.44 51.9129 24.6013 53.2503 30.3088 53.2503C41.705 53.2503 50.9161 47.8819 50.8784 41.2891Z" fill="white" stroke="black" stroke-width="0.5" stroke-miterlimit="10"/>
<path d="M44.7918 23.7341C48.5403 25.9003 50.876 28.8953 50.876 32.1917C50.9137 38.8034 41.7026 44.153 30.3064 44.153C24.5989 44.153 19.4376 42.8156 15.6891 40.6494C11.9406 38.4832 9.60489 35.4882 9.58605 32.1917C9.54838 25.5801 18.7595 20.2305 30.1557 20.2305C35.882 20.2305 41.0433 21.5679 44.7918 23.7341Z" fill="white" stroke="black" stroke-width="0.5" stroke-miterlimit="10"/>
<path d="M50.8784 32.1719L50.8407 41.2888C50.8784 47.9005 41.6673 53.2501 30.2711 53.2501C24.5636 53.2501 19.4024 51.9127 15.6539 49.7465C11.9054 47.5803 9.56962 44.5852 9.55078 41.2888L9.58846 32.1719C9.60729 35.4683 11.943 38.4633 15.6915 40.6295C19.44 42.7957 24.6013 44.1332 30.3088 44.1332C41.705 44.1332 50.9161 38.7835 50.8784 32.1719Z" fill="white" stroke="black" stroke-width="0.5" stroke-miterlimit="10"/>
<path d="M44.7925 14.6169C48.541 16.7831 50.8767 19.7781 50.8767 23.0746C50.9144 29.6862 41.7032 35.0358 30.3071 35.0358C24.5996 35.0358 19.4383 33.6984 15.6898 31.5322C11.9413 29.366 9.62442 26.371 9.60558 23.0746C9.56791 16.4629 18.779 11.1133 30.1752 11.1133C35.8827 11.1133 41.044 12.4507 44.7925 14.6169Z" fill="#C5F6DA" stroke="black" stroke-width="0.5" stroke-miterlimit="10"/>
<path d="M13.9135 11.9717L32.7401 1.10815L32.7965 28.7031L13.9699 39.5666L13.9135 11.9717Z" fill="#F1FFF7" stroke="black" stroke-width="0.5" stroke-linejoin="round"/>
<path d="M30.515 9.67511C30.4992 7.29181 28.7886 6.33148 26.7254 7.54175C24.6503 8.77249 22.9928 11.6907 23.0086 14.074C23.0243 16.4573 24.735 17.4176 26.7982 16.2073C28.8819 15.0088 30.5394 12.0907 30.515 9.67511Z" fill="#F4FC83" stroke="black" stroke-width="0.5" stroke-miterlimit="10"/>
<path d="M25.3831 10.6631C25.3795 9.48788 24.5492 9.03577 23.5296 9.62032C22.51 10.2049 21.7035 11.6491 21.7189 12.8039C21.7224 13.9792 22.5527 14.4313 23.5723 13.8467C24.5919 13.2622 25.3866 11.8384 25.3831 10.6631Z" fill="#F4FC83" stroke="black" stroke-width="0.5" stroke-linejoin="round"/>
<path d="M43.6095 6.8451C43.5102 6.79547 43.3862 6.79547 43.2124 6.89473L35.9912 11.0637C35.6935 11.2374 35.4453 11.6592 35.4453 12.0066V13.2474L36.3387 13.7685V12.5278C36.3387 12.1804 36.5868 11.7585 36.8846 11.5848L44.1306 7.41585C44.2795 7.31659 44.4284 7.31659 44.5276 7.36622L43.6095 6.8451Z" fill="#C2CC41" stroke="black" stroke-width="0.5" stroke-linejoin="round"/>
<path d="M44.1282 7.41321C44.426 7.2395 44.6741 7.3884 44.6741 7.71099V8.95175L44.7237 27.1661V27.7864L44.1778 28.109L36.9566 32.278L21.3231 41.2859L21.2734 22.476L36.361 13.7659V12.5251C36.361 12.1777 36.6092 11.7559 36.907 11.5822L44.1282 7.41321Z" fill="#F4FC83"/>
<path d="M21.3506 41.2894L20.4324 40.7683L20.3828 21.9336L21.2762 22.4795L21.3506 41.2894Z" fill="#C2CC41" stroke="black" stroke-width="0.5" stroke-linejoin="round"/>
<path d="M21.2762 22.4773L20.3828 21.9314L35.4704 13.2461L36.3638 13.7672L21.2762 22.4773Z" fill="#C2CC41" stroke="black" stroke-width="0.5" stroke-linejoin="round"/>
<path fill-rule="evenodd" clip-rule="evenodd" d="M44.4223 27.9093V25.9894L29.0541 34.6455C26.4036 36.1384 23.1228 34.2436 23.0913 31.2018L22.9945 21.8789L21.3242 22.332L21.3491 41.2906L44.4223 27.9093Z" fill="#909C00" fill-opacity="0.5"/>
<path d="M44.1282 7.41712C44.426 7.24341 44.6741 7.3923 44.6741 7.7149V8.95566L44.7237 27.17V27.7903L44.1778 28.1129L36.9566 32.2819L21.3231 41.2898L21.2734 22.4799L36.361 13.7698V12.529C36.361 12.1816 36.6092 11.7598 36.907 11.5861L44.1282 7.41712Z" stroke="black" stroke-width="0.5" stroke-linejoin="round"/>
<path d="M50.8784 23.0742L50.8407 32.1912C50.8784 38.8028 41.6673 44.1524 30.2711 44.1524C24.5636 44.1524 19.4024 42.815 15.6539 40.6488C11.9054 38.4826 9.56962 35.4876 9.55078 32.1912L9.58846 23.0742C9.60729 26.3706 11.943 29.3657 15.6915 31.5319C19.44 33.6981 24.6013 35.0355 30.3088 35.0355C41.705 35.0355 50.9161 29.667 50.8784 23.0742Z" fill="white" stroke="black" stroke-width="0.5" stroke-miterlimit="10"/>
<path d="M46.0664 30.7891L46.0664 58.1314" stroke="black" stroke-width="0.5" stroke-miterlimit="10"/>
<path d="M44.7923 14.6172C48.5408 16.7834 50.8766 19.7784 50.8766 23.0748C50.9143 29.6865 41.7031 35.0361 30.307 35.0361C24.5995 35.0361 19.4382 33.6987 15.6897 31.5325C11.9412 29.3663 9.62431 26.3713 9.60547 23.0748" stroke="black" stroke-width="0.5" stroke-miterlimit="10"/>
</g>
<defs>
<clipPath id="clip0">
<rect width="64" height="64" fill="white"/>
</clipPath>
</defs>
</svg>
