<svg width="64" height="64" viewBox="0 0 64 64" fill="none" xmlns="http://www.w3.org/2000/svg">
<g clip-path="url(#clip0)">
<path d="M49.2731 59.1019C53.6019 56.5984 55.781 53.3055 55.7621 50.0289L55.6188 45.4177C55.6378 48.6944 53.4587 51.9873 49.1298 54.4908C40.5132 59.4866 26.5637 59.4581 18.0064 54.4828C13.7333 52.0157 11.6094 48.7745 11.6014 45.539L11.7447 50.1501C11.7526 53.3856 13.8765 56.6268 18.1497 59.0939C26.707 64.0692 40.6454 64.0566 49.2731 59.1019Z" fill="#C2F6D9" stroke="black" stroke-width="0.5" stroke-linejoin="round"/>
<path d="M11.5791 46.0516C11.5993 53.0971 21.4761 58.7802 33.6395 58.7452C45.8029 58.7102 55.6468 52.9704 55.6266 45.9249C55.6063 38.8794 45.7295 33.1963 33.5661 33.2313C21.4027 33.2663 11.5588 39.0062 11.5791 46.0516Z" fill="white" stroke="black" stroke-width="0.5" stroke-linejoin="round"/>
<path d="M16.3122 46.0363C16.3281 51.5674 24.082 56.029 33.6309 56.0015C43.1799 55.9741 50.908 51.4679 50.8921 45.9368C50.8762 40.4057 43.1223 35.9442 33.5733 35.9716C24.0243 35.9991 16.2962 40.5052 16.3122 46.0363Z" fill="white" stroke="black" stroke-width="0.5" stroke-linejoin="round"/>
<path d="M16.5586 47.7135C16.3984 47.1688 16.3142 46.6088 16.3125 46.0375C16.2966 40.5064 24.0247 36.0003 33.5737 35.9728C43.1227 35.9453 50.8765 40.4069 50.8925 45.938C50.8941 46.5209 50.8098 47.0925 50.6464 47.6486C49.2555 42.9197 42.1363 39.3348 33.5737 39.3595C25.0311 39.384 17.9458 42.993 16.5586 47.7135Z" fill="#F1FFF7" stroke="black" stroke-width="0.5" stroke-linejoin="round"/>
<path d="M60.0525 27.7359C60.0313 34.1483 55.5063 36.7435 49.9088 33.5268C44.3112 30.3101 39.8073 22.4824 39.8285 16.07C39.8497 9.65755 44.3747 7.06237 49.9722 10.2791C55.5483 13.5172 60.0737 21.3235 60.0525 27.7359Z" fill="#25E896" stroke="black" stroke-width="0.5" stroke-linejoin="round"/>
<path d="M52.2461 34.4766L52.2415 39.2308" stroke="black" stroke-width="0.5"/>
<path d="M45.2545 8.01711C47.0988 6.94476 49.6294 7.09483 52.4389 8.72468C58.0149 11.9415 62.5187 19.7693 62.5189 26.1817C62.5189 29.3772 61.3823 31.6076 59.5595 32.6585L57.092 34.2143C58.9148 33.1634 60.03 30.9116 60.0514 27.7161C60.0727 21.3036 55.5689 13.4759 49.9714 10.259C47.1619 8.62918 44.6081 8.51707 42.7852 9.58942L45.2545 8.01711Z" fill="#38C076" stroke="black" stroke-width="0.5" stroke-linejoin="round"/>
<path d="M49.8596 32.7755C55.0455 35.7699 59.2494 33.3428 59.2491 27.3544C59.2489 21.366 55.0447 14.0841 49.8587 11.0898C44.6728 8.09536 40.4689 10.5224 40.4692 16.5108C40.4694 22.4992 44.6736 29.7811 49.8596 32.7755Z" fill="#25E896"/>
<path d="M43.0784 18.0175C43.0785 20.3463 44.7135 23.1782 46.7302 24.3427L47.2519 24.6439L47.2518 23.0777L46.7302 22.7765C45.4644 22.0456 44.4348 20.2623 44.4347 18.8007C44.4347 17.3393 45.4642 16.7447 46.73 17.4755L47.9834 18.1993L47.9837 26.3917C47.9837 26.8071 48.1267 27.2879 48.3811 27.7285C48.6354 28.1691 48.9804 28.5333 49.3401 28.741L49.3397 17.4162L46.7299 15.9093C44.7131 14.7449 43.0783 15.689 43.0784 18.0175ZM52.992 19.5258L52.4703 19.2246L52.4704 20.7908L52.992 21.092C54.2574 21.8226 55.2874 23.6064 55.2875 25.0678C55.2875 26.5292 54.2576 27.1235 52.9922 26.3929L51.7381 25.6688L51.7378 17.4764C51.7378 17.0611 51.5949 16.5802 51.3405 16.1396C51.0861 15.699 50.7412 15.3348 50.3814 15.1271L50.3819 26.4519L52.9923 27.9591C55.0088 29.1235 56.6439 28.1797 56.6438 25.8509C56.6437 23.5221 55.0085 20.6901 52.992 19.5258Z" fill="black"/>
<path d="M18.5508 24.4258L18.5508 36.7599" stroke="black" stroke-width="0.5"/>
<path d="M6.37073 17.0398L6.41782 31.4265L30.1523 17.7226L30.1053 3.33594L6.37073 17.0398Z" fill="#B5F4FD" stroke="black" stroke-width="0.5" stroke-linejoin="round"/>
<path fill-rule="evenodd" clip-rule="evenodd" d="M18.3538 14.3974C19.0497 14.5041 19.5066 15.0319 19.6829 15.894C19.7699 16.3894 19.4548 17.0485 18.8694 17.4007C18.8694 17.4007 14.8451 19.7251 14.599 19.8672C14.5999 19.8894 14.6019 19.9129 14.6047 19.9368C14.6259 20.0611 14.6564 20.1761 14.696 20.2811C14.9225 20.835 15.5592 21.4265 16.7492 20.7547C17.1128 20.5424 17.4548 20.2391 17.7549 19.8807C17.9907 19.5924 18.1876 19.2826 18.3462 18.9886C18.3989 18.8856 18.4467 18.7854 18.4896 18.6901C18.6891 18.2799 18.9427 18.1877 19.0937 18.2341C19.2728 18.2891 19.303 18.6036 19.14 18.9311C19.1373 18.9365 19.1345 18.9416 19.1317 18.9466C19.1297 18.9503 19.1277 18.9539 19.1258 18.9576C18.891 19.4332 18.6485 19.8573 18.3583 20.2402C18.0787 20.6085 17.7753 20.9306 17.4617 21.1998C17.0967 21.5196 16.7443 21.7473 16.3823 21.9058C15.1621 22.4378 14.1388 21.9881 13.8362 20.7882C13.7758 20.5467 13.7468 20.2827 13.7468 20.0045C13.7468 18.8951 14.2095 17.5511 15.0109 16.43C15.9935 15.0559 17.3367 14.239 18.3538 14.3974ZM14.6355 18.8687C14.635 18.8787 14.6346 18.8887 14.6346 18.8981L18.8451 16.4669C18.6198 15.4929 17.7617 15.1663 16.7367 15.7581C15.7239 16.3429 14.8736 17.6362 14.636 18.8576C14.6358 18.8613 14.6357 18.865 14.6355 18.8687Z" fill="black"/>
<path d="M24.9608 13.5058C24.9608 13.9791 25.2942 14.1717 25.7046 13.9348C26.1141 13.6983 26.4476 13.1207 26.4476 12.6473C26.4476 12.1738 26.1142 11.9813 25.7047 12.2178C25.2942 12.4548 24.9609 13.0323 24.9608 13.5058Z" fill="black"/>
<path fill-rule="evenodd" clip-rule="evenodd" d="M25.7032 16.5414C24.049 17.4966 22.7032 16.7198 22.7033 14.81C22.7034 12.8999 24.0492 10.5686 25.7034 9.61343C27.3576 8.65832 28.704 9.4351 28.7039 11.3452C28.7039 13.255 27.3573 15.5863 25.7032 16.5414ZM25.7034 10.5915C24.5161 11.2771 23.5503 12.9501 23.5502 14.321C23.5502 15.6915 24.5159 16.2488 25.7032 15.5632C26.8899 14.878 27.8559 13.2053 27.856 11.8348C27.856 10.464 26.8901 9.90632 25.7034 10.5915Z" fill="black"/>
<path d="M11.3859 21.345L13.6694 17.3834C13.7451 17.2506 13.7873 17.1083 13.7873 16.9832C13.7873 16.7225 13.6038 16.6167 13.378 16.7471C13.268 16.8106 13.1649 16.9199 13.0872 17.0557C13.0869 17.0563 10.8057 21.006 10.8057 21.006L8.51432 19.6921C8.43689 19.6487 8.33429 19.6593 8.2255 19.7221C7.99999 19.8524 7.8164 20.17 7.81639 20.4304C7.81638 20.5575 7.86031 20.6513 7.93914 20.6956L10.2221 22.0133L7.94013 25.9708C7.85992 26.1083 7.81617 26.253 7.81616 26.3806C7.81615 26.6413 7.99973 26.7468 8.22524 26.6166C8.33421 26.5536 8.43691 26.4455 8.51407 26.3118L10.8021 22.3523L13.0813 23.665C13.1622 23.7149 13.2665 23.7061 13.3778 23.6418C13.6033 23.5116 13.7868 23.1938 13.7869 22.9332C13.7869 22.8074 13.7447 22.7136 13.6679 22.6688L11.3859 21.345Z" fill="black"/>
<path d="M22.4907 11.528L22.3648 11.6002C21.987 11.8184 21.6225 12.1665 21.3181 12.6131C21.278 12.4243 21.114 12.3595 20.9186 12.4724C20.6936 12.6022 20.5134 12.9144 20.5129 13.1749L20.514 19.0087C20.5146 19.2681 20.6981 19.3733 20.9231 19.2434C21.1481 19.1134 21.3316 18.7964 21.3322 18.5357L21.3325 14.9481C21.3326 13.7524 21.4273 13.2148 22.3143 12.5747C22.3945 12.5168 22.4816 12.468 22.4856 12.4658C22.7284 12.316 22.901 12.0237 22.901 11.7635C22.901 11.503 22.7169 11.3974 22.4907 11.528Z" fill="black"/>
<path d="M6.37088 17.0384L3.71016 15.4844L3.75725 29.8711L6.41797 31.4251L6.37088 17.0384Z" fill="#57C8D8" stroke="black" stroke-width="0.5" stroke-linejoin="round"/>
<path d="M30.1055 3.3353L27.4683 1.78125L3.71023 15.4851L6.37094 17.0392L30.1055 3.3353Z" fill="#B5F4FD" stroke="black" stroke-width="0.5" stroke-linejoin="round"/>
<path fill-rule="evenodd" clip-rule="evenodd" d="M41.6951 50.422C41.7879 50.4887 41.7875 50.5804 41.687 50.6407L39.1744 52.0802C39.0739 52.1404 38.906 52.1354 38.8075 52.0785L37.6547 51.413C37.0046 51.6288 36.3166 51.7965 35.612 51.902L35.6007 52.8545C35.5976 52.9053 35.565 52.939 35.5226 52.9671C35.4744 53.0049 35.4122 53.0216 35.3361 53.017L31.7785 53.0125C31.6303 53.0189 31.5178 52.9408 31.5125 52.8589L31.5181 51.9162C30.8158 51.8129 30.1222 51.649 29.4669 51.4414L28.3054 52.1108C28.2049 52.171 28.037 52.166 27.9385 52.1092L25.4317 50.6487C25.3388 50.582 25.3393 50.4903 25.4397 50.43L26.6111 49.7663C26.236 49.3921 25.964 48.9986 25.7795 48.59L24.1383 48.5883C23.9901 48.5947 23.8776 48.5166 23.8723 48.4347L23.8787 46.3758C23.8817 46.325 23.9143 46.2913 23.9568 46.2633C24.0049 46.2254 24.0671 46.2087 24.1433 46.2133L25.7845 46.215C25.9768 45.8136 26.2509 45.407 26.635 45.0376L25.4822 44.372C25.3894 44.3053 25.3898 44.2136 25.4902 44.1533L28.0143 42.6941C28.1147 42.6339 28.2826 42.6389 28.3812 42.6958L29.534 43.3613C30.1841 43.1455 30.8721 42.9778 31.5767 42.8723L31.588 41.9198C31.591 41.869 31.6237 41.8353 31.6661 41.8072C31.7143 41.7694 31.7764 41.7527 31.8526 41.7573L35.4102 41.7618C35.5584 41.7554 35.6709 41.8335 35.6762 41.9154L35.6706 42.8581C36.3729 42.9614 37.0509 43.1295 37.7005 43.3469L38.8621 42.6775C38.9625 42.6173 39.1304 42.6223 39.2289 42.6792L41.7358 44.1396C41.8286 44.2063 41.8282 44.2981 41.7277 44.3583L40.5662 45.0277C40.9413 45.4019 41.2133 45.7954 41.3978 46.204L43.0389 46.2057C43.1871 46.1993 43.2997 46.2774 43.305 46.3593L43.2986 48.4182C43.2956 48.469 43.263 48.5027 43.2205 48.5307C43.1724 48.5686 43.1102 48.5853 43.034 48.5807L41.3928 48.579C41.2005 48.9804 40.9264 49.387 40.5423 49.7564L41.6951 50.422ZM30.2926 45.148C32.1588 44.0706 35.1844 44.0705 37.0507 45.1478C38.9169 46.225 38.9169 47.9718 37.0508 49.0492C35.1847 50.1266 32.159 50.1267 30.2928 49.0494C28.4266 47.9722 28.4265 46.2254 30.2926 45.148Z" fill="#C2F6D9"/>
<path d="M41.687 50.6407L41.8156 50.8551L41.8113 50.8576L41.687 50.6407ZM41.6951 50.422L41.8201 50.2055C41.8273 50.2096 41.8343 50.2141 41.841 50.219L41.6951 50.422ZM39.1744 52.0802L39.0458 51.8657L39.0501 51.8632L39.1744 52.0802ZM38.8075 52.0785L38.6825 52.295L38.8075 52.0785ZM37.6547 51.413L37.5759 51.1757C37.6437 51.1532 37.7179 51.1608 37.7797 51.1965L37.6547 51.413ZM35.612 51.902L35.362 51.899C35.3634 51.7764 35.4536 51.6729 35.5749 51.6548L35.612 51.902ZM35.6007 52.8545L35.8509 52.8575L35.8502 52.8695L35.6007 52.8545ZM35.5226 52.9671L35.368 52.7706C35.3734 52.7663 35.379 52.7622 35.3848 52.7584L35.5226 52.9671ZM35.3361 53.017L35.3364 52.767C35.3413 52.767 35.3462 52.7672 35.351 52.7675L35.3361 53.017ZM31.7785 53.0125L31.7677 52.7625L31.7788 52.7625L31.7785 53.0125ZM31.5125 52.8589L31.263 52.875C31.2626 52.8691 31.2624 52.8633 31.2625 52.8574L31.5125 52.8589ZM31.5181 51.9162L31.5545 51.6689C31.6777 51.687 31.7688 51.7932 31.7681 51.9177L31.5181 51.9162ZM29.4669 51.4414L29.3421 51.2248C29.4029 51.1898 29.4756 51.1819 29.5424 51.2031L29.4669 51.4414ZM28.3054 52.1108L28.1768 51.8963L28.1806 51.8942L28.3054 52.1108ZM27.9385 52.1092L27.8135 52.3257L27.8126 52.3252L27.9385 52.1092ZM25.4317 50.6487L25.3058 50.8647C25.2989 50.8607 25.2922 50.8564 25.2858 50.8517L25.4317 50.6487ZM25.4397 50.43L25.3111 50.2155L25.3165 50.2125L25.4397 50.43ZM26.6111 49.7663L26.7877 49.5894C26.843 49.6445 26.8693 49.7224 26.8589 49.7998C26.8484 49.8773 26.8023 49.9453 26.7344 49.9839L26.6111 49.7663ZM25.7795 48.59L25.7798 48.34C25.878 48.3401 25.967 48.3976 26.0074 48.4871L25.7795 48.59ZM24.1383 48.5883L24.1276 48.3383L24.1386 48.3383L24.1383 48.5883ZM23.8723 48.4347L23.6228 48.4508C23.6225 48.4452 23.6223 48.4396 23.6223 48.4339L23.8723 48.4347ZM23.8787 46.3758L23.6287 46.3751C23.6287 46.3703 23.6288 46.3656 23.6291 46.3608L23.8787 46.3758ZM23.9568 46.2633L24.1114 46.4597C24.1059 46.464 24.1003 46.4681 24.0945 46.4719L23.9568 46.2633ZM24.1433 46.2133L24.143 46.4633C24.1381 46.4633 24.1332 46.4631 24.1283 46.4629L24.1433 46.2133ZM25.7845 46.215L26.0099 46.323C25.9683 46.4098 25.8805 46.4651 25.7842 46.465L25.7845 46.215ZM26.635 45.0376L26.76 44.8211C26.8281 44.8604 26.8737 44.9294 26.8832 45.0074C26.8927 45.0854 26.8649 45.1633 26.8083 45.2178L26.635 45.0376ZM25.4822 44.372L25.3572 44.5885C25.35 44.5844 25.343 44.5799 25.3363 44.575L25.4822 44.372ZM25.4902 44.1533L25.3617 43.9389L25.3651 43.9369L25.4902 44.1533ZM28.0143 42.6941L28.1428 42.9086L28.1394 42.9106L28.0143 42.6941ZM28.3812 42.6958L28.5062 42.4793L28.3812 42.6958ZM29.534 43.3613L29.6127 43.5986C29.545 43.6211 29.4708 43.6135 29.409 43.5778L29.534 43.3613ZM31.5767 42.8723L31.8267 42.8752C31.8252 42.9979 31.735 43.1014 31.6137 43.1195L31.5767 42.8723ZM31.588 41.9198L31.3377 41.9168L31.3384 41.9048L31.588 41.9198ZM31.6661 41.8072L31.8207 42.0037C31.8153 42.008 31.8096 42.0121 31.8039 42.0159L31.6661 41.8072ZM31.8526 41.7573L31.8523 42.0073C31.8474 42.0073 31.8425 42.0071 31.8376 42.0068L31.8526 41.7573ZM35.4102 41.7618L35.421 42.0118L35.4098 42.0118L35.4102 41.7618ZM35.6762 41.9154L35.9257 41.8993C35.926 41.9052 35.9262 41.911 35.9262 41.9169L35.6762 41.9154ZM35.6706 42.8581L35.6342 43.1054C35.5109 43.0873 35.4198 42.9811 35.4206 42.8566L35.6706 42.8581ZM37.7005 43.3469L37.8253 43.5635C37.7633 43.5992 37.689 43.6067 37.6212 43.584L37.7005 43.3469ZM38.8621 42.6775L38.9906 42.892L38.9869 42.8941L38.8621 42.6775ZM39.2289 42.6792L39.354 42.4626L39.3548 42.4631L39.2289 42.6792ZM41.7358 44.1396L41.8616 43.9236C41.8685 43.9276 41.8752 43.9319 41.8817 43.9366L41.7358 44.1396ZM41.7277 44.3583L41.8563 44.5727L41.8525 44.5749L41.7277 44.3583ZM40.5662 45.0277L40.3896 45.2046C40.3345 45.1497 40.3082 45.0722 40.3183 44.9951C40.3284 44.9179 40.3739 44.8499 40.4413 44.8111L40.5662 45.0277ZM41.3978 46.204L41.3975 46.454C41.2993 46.4539 41.2103 46.3964 41.1699 46.3069L41.3978 46.204ZM43.0389 46.2057L43.0497 46.4557L43.0387 46.4557L43.0389 46.2057ZM43.305 46.3593L43.5545 46.3432C43.5548 46.3488 43.555 46.3544 43.555 46.3601L43.305 46.3593ZM43.2986 48.4182L43.5486 48.4189C43.5486 48.4237 43.5485 48.4284 43.5482 48.4332L43.2986 48.4182ZM43.2205 48.5307L43.0659 48.3343C43.0714 48.33 43.077 48.3259 43.0828 48.3221L43.2205 48.5307ZM43.034 48.5807L43.0343 48.3307C43.0392 48.3307 43.0441 48.3309 43.049 48.3311L43.034 48.5807ZM41.3928 48.579L41.1674 48.471C41.209 48.3842 41.2968 48.3289 41.3931 48.329L41.3928 48.579ZM40.5423 49.7564L40.4173 49.9729C40.3492 49.9336 40.3036 49.8646 40.2941 49.7866C40.2846 49.7086 40.3123 49.6307 40.369 49.5762L40.5423 49.7564ZM30.2926 45.148L30.1676 44.9315L30.1676 44.9315L30.2926 45.148ZM37.0508 49.0492L37.1758 49.2657L37.1758 49.2657L37.0508 49.0492ZM30.2928 49.0494L30.1678 49.2659L30.2928 49.0494ZM41.5585 50.4262C41.5646 50.4226 41.5157 50.4512 41.5136 50.527C41.5117 50.6001 41.556 50.6299 41.5492 50.625L41.841 50.219C41.927 50.2808 42.0176 50.3898 42.0135 50.5405C42.0093 50.6939 41.91 50.7985 41.8156 50.8551L41.5585 50.4262ZM39.0501 51.8632L41.5628 50.4237L41.8113 50.8576L39.2987 52.2971L39.0501 51.8632ZM38.9325 51.862C38.9323 51.8619 38.9337 51.8627 38.9371 51.864C38.9404 51.8653 38.945 51.8668 38.9509 51.8682C38.963 51.8711 38.9777 51.8731 38.9933 51.8733C39.009 51.8735 39.0228 51.8719 39.0333 51.8695C39.0442 51.867 39.0477 51.8646 39.0458 51.8657L39.3029 52.2946C39.2016 52.3553 39.085 52.3745 38.9871 52.3732C38.8888 52.372 38.7776 52.3499 38.6825 52.295L38.9325 51.862ZM37.7797 51.1965L38.9325 51.862L38.6825 52.295L37.5297 51.6295L37.7797 51.1965ZM35.5749 51.6548C36.2649 51.5514 36.939 51.3872 37.5759 51.1757L37.7335 51.6502C37.0702 51.8704 36.3683 52.0415 35.649 52.1493L35.5749 51.6548ZM35.3507 52.8515L35.362 51.899L35.8619 51.905L35.8507 52.8575L35.3507 52.8515ZM35.3848 52.7584C35.394 52.7524 35.3871 52.7552 35.3771 52.7684C35.3715 52.7758 35.3651 52.7862 35.3599 52.7995C35.3547 52.813 35.3519 52.8267 35.3511 52.8395L35.8502 52.8695C35.84 53.0392 35.7251 53.1329 35.6603 53.1757L35.3848 52.7584ZM35.351 52.7675C35.3672 52.7684 35.3743 52.7667 35.3751 52.7665C35.3755 52.7664 35.3746 52.7666 35.373 52.7674C35.3714 52.7682 35.3696 52.7693 35.368 52.7706L35.6772 53.1635C35.5699 53.2479 35.4428 53.2739 35.3211 53.2666L35.351 52.7675ZM31.7788 52.7625L35.3364 52.767L35.3357 53.267L31.7782 53.2625L31.7788 52.7625ZM31.762 52.8428C31.7597 52.8079 31.7467 52.7837 31.7377 52.7714C31.7332 52.7651 31.7291 52.7611 31.7266 52.7588C31.724 52.7566 31.7225 52.7556 31.7224 52.7555C31.7224 52.7555 31.7262 52.7578 31.7346 52.7599C31.7427 52.7618 31.7539 52.7633 31.7677 52.7627L31.7893 53.2622C31.6701 53.2674 31.5549 53.2393 31.4614 53.182C31.3742 53.1286 31.2728 53.0263 31.263 52.875L31.762 52.8428ZM31.7681 51.9177L31.7625 52.8604L31.2625 52.8574L31.2681 51.9148L31.7681 51.9177ZM29.5424 51.2031C30.1857 51.4068 30.8662 51.5676 31.5545 51.6689L31.4817 52.1636C30.7654 52.0582 30.0588 51.8911 29.3915 51.6798L29.5424 51.2031ZM28.1806 51.8942L29.3421 51.2248L29.5918 51.658L28.4302 52.3274L28.1806 51.8942ZM28.0635 51.8927C28.0633 51.8925 28.0647 51.8934 28.0681 51.8947C28.0714 51.8959 28.076 51.8974 28.0819 51.8989C28.094 51.9018 28.1087 51.9037 28.1243 51.9039C28.14 51.9041 28.1538 51.9025 28.1643 51.9001C28.1752 51.8977 28.1787 51.8952 28.1768 51.8964L28.4339 52.3252C28.3326 52.3859 28.216 52.4051 28.1181 52.4039C28.0198 52.4027 27.9086 52.3806 27.8135 52.3257L28.0635 51.8927ZM25.5575 50.4327L28.0643 51.8931L27.8126 52.3252L25.3058 50.8647L25.5575 50.4327ZM25.5683 50.6444C25.5622 50.6481 25.6111 50.6195 25.6131 50.5437C25.6151 50.4706 25.5708 50.4408 25.5776 50.4457L25.2858 50.8517C25.1997 50.7899 25.1092 50.6809 25.1133 50.5301C25.1175 50.3768 25.2168 50.2722 25.3112 50.2156L25.5683 50.6444ZM26.7344 49.9839L25.563 50.6475L25.3165 50.2125L26.4879 49.5488L26.7344 49.9839ZM26.0074 48.4871C26.1784 48.8659 26.4322 49.2347 26.7877 49.5894L26.4346 49.9433C26.0398 49.5495 25.7496 49.1313 25.5517 48.6928L26.0074 48.4871ZM24.1386 48.3383L25.7798 48.34L25.7793 48.84L24.1381 48.8383L24.1386 48.3383ZM24.1218 48.4186C24.1196 48.3837 24.1065 48.3596 24.0975 48.3472C24.093 48.3409 24.089 48.3369 24.0864 48.3347C24.0839 48.3324 24.0823 48.3314 24.0822 48.3314C24.0822 48.3314 24.0861 48.3336 24.0944 48.3357C24.1025 48.3377 24.1137 48.3391 24.1276 48.3385L24.1491 48.8381C24.03 48.8432 23.9148 48.8151 23.8212 48.7578C23.734 48.7045 23.6326 48.6022 23.6228 48.4508L24.1218 48.4186ZM24.1287 46.3766L24.1223 48.4355L23.6223 48.4339L23.6287 46.3751L24.1287 46.3766ZM24.0945 46.4719C24.0853 46.478 24.0923 46.4751 24.1023 46.4619C24.1079 46.4545 24.1143 46.4441 24.1194 46.4308C24.1246 46.4173 24.1274 46.4036 24.1282 46.3908L23.6291 46.3608C23.6393 46.1911 23.7543 46.0974 23.819 46.0546L24.0945 46.4719ZM24.1283 46.4629C24.1122 46.4619 24.105 46.4636 24.1042 46.4638C24.1039 46.4639 24.1047 46.4637 24.1063 46.4629C24.108 46.4621 24.1098 46.461 24.1114 46.4597L23.8022 46.0668C23.9095 45.9824 24.0366 45.9564 24.1583 45.9638L24.1283 46.4629ZM25.7842 46.465L24.143 46.4633L24.1435 45.9633L25.7847 45.965L25.7842 46.465ZM26.8083 45.2178C26.4478 45.5645 26.1905 45.946 26.0099 46.323L25.559 46.1069C25.763 45.6813 26.0541 45.2495 26.4617 44.8574L26.8083 45.2178ZM25.6072 44.1555L26.76 44.8211L26.51 45.2541L25.3572 44.5885L25.6072 44.1555ZM25.6188 44.3678C25.6127 44.3714 25.6616 44.3428 25.6636 44.267C25.6656 44.1939 25.6213 44.1642 25.6281 44.169L25.3363 44.575C25.2503 44.5132 25.1597 44.4042 25.1638 44.2535C25.168 44.1001 25.2673 43.9955 25.3617 43.9389L25.6188 44.3678ZM28.1394 42.9106L25.6154 44.3698L25.3651 43.9369L27.8892 42.4777L28.1394 42.9106ZM28.2562 42.9123C28.2564 42.9124 28.2549 42.9116 28.2516 42.9103C28.2482 42.909 28.2436 42.9075 28.2377 42.9061C28.2257 42.9031 28.211 42.9012 28.1954 42.901C28.1797 42.9008 28.1659 42.9024 28.1554 42.9048C28.1444 42.9073 28.1409 42.9097 28.1428 42.9086L27.8857 42.4797C27.987 42.419 28.1036 42.3998 28.2015 42.4011C28.2999 42.4023 28.4111 42.4244 28.5062 42.4793L28.2562 42.9123ZM29.409 43.5778L28.2562 42.9123L28.5062 42.4793L29.659 43.1448L29.409 43.5778ZM31.6137 43.1195C30.9237 43.2229 30.2497 43.3871 29.6127 43.5986L29.4552 43.1241C30.1184 42.9039 30.8204 42.7328 31.5397 42.625L31.6137 43.1195ZM31.838 41.9228L31.8267 42.8752L31.3267 42.8693L31.338 41.9168L31.838 41.9228ZM31.8039 42.0159C31.7947 42.0219 31.8016 42.0191 31.8116 42.0059C31.8172 41.9985 31.8236 41.9881 31.8287 41.9748C31.8339 41.9613 31.8368 41.9476 31.8375 41.9348L31.3384 41.9048C31.3486 41.7351 31.4636 41.6414 31.5284 41.5986L31.8039 42.0159ZM31.8376 42.0068C31.8215 42.0059 31.8144 42.0076 31.8136 42.0078C31.8132 42.0079 31.814 42.0077 31.8157 42.0069C31.8173 42.0061 31.8191 42.005 31.8207 42.0037L31.5115 41.6108C31.6188 41.5264 31.7459 41.5004 31.8676 41.5077L31.8376 42.0068ZM35.4098 42.0118L31.8523 42.0073L31.8529 41.5073L35.4105 41.5118L35.4098 42.0118ZM35.4267 41.9315C35.429 41.9664 35.442 41.9905 35.451 42.0029C35.4555 42.0092 35.4595 42.0132 35.4621 42.0155C35.4646 42.0177 35.4662 42.0187 35.4663 42.0188C35.4663 42.0188 35.4624 42.0165 35.4541 42.0144C35.446 42.0125 35.4348 42.011 35.4209 42.0116L35.3994 41.5121C35.5185 41.5069 35.6338 41.535 35.7273 41.5923C35.8145 41.6456 35.9159 41.748 35.9257 41.8993L35.4267 41.9315ZM35.4206 42.8566L35.4262 41.9139L35.9262 41.9169L35.9206 42.8595L35.4206 42.8566ZM37.6212 43.584C36.9844 43.3709 36.3208 43.2064 35.6342 43.1054L35.707 42.6107C36.425 42.7164 37.1174 42.8881 37.7798 43.1098L37.6212 43.584ZM38.9869 42.8941L37.8253 43.5635L37.5757 43.1303L38.7372 42.4609L38.9869 42.8941ZM39.1039 42.8957C39.1041 42.8958 39.1027 42.8949 39.0993 42.8936C39.096 42.8924 39.0914 42.8909 39.0855 42.8894C39.0734 42.8865 39.0588 42.8846 39.0431 42.8844C39.0275 42.8842 39.0137 42.8858 39.0031 42.8882C38.9922 42.8907 38.9887 42.8931 38.9906 42.8919L38.7335 42.4631C38.8348 42.4024 38.9514 42.3832 39.0493 42.3844C39.1477 42.3857 39.2589 42.4078 39.3539 42.4627L39.1039 42.8957ZM41.6099 44.3556L39.1031 42.8952L39.3548 42.4631L41.8616 43.9236L41.6099 44.3556ZM41.5992 44.1439C41.6053 44.1402 41.5564 44.1688 41.5543 44.2446C41.5523 44.3177 41.5966 44.3475 41.5898 44.3426L41.8817 43.9366C41.9677 43.9984 42.0582 44.1075 42.0541 44.2582C42.05 44.4115 41.9506 44.5161 41.8563 44.5727L41.5992 44.1439ZM40.4413 44.8111L41.6029 44.1417L41.8525 44.5749L40.691 45.2443L40.4413 44.8111ZM41.1699 46.3069C40.9989 45.9281 40.7451 45.5593 40.3896 45.2046L40.7427 44.8507C41.1375 45.2445 41.4277 45.6627 41.6256 46.1012L41.1699 46.3069ZM43.0387 46.4557L41.3975 46.454L41.398 45.954L43.0392 45.9557L43.0387 46.4557ZM43.0555 46.3754C43.0577 46.4103 43.0708 46.4344 43.0797 46.4468C43.0843 46.4531 43.0883 46.4571 43.0909 46.4593C43.0934 46.4616 43.095 46.4626 43.095 46.4626C43.0951 46.4626 43.0912 46.4604 43.0829 46.4583C43.0748 46.4563 43.0636 46.4549 43.0497 46.4555L43.0282 45.9559C43.1473 45.9508 43.2625 45.9789 43.3561 46.0362C43.4432 46.0895 43.5447 46.1919 43.5545 46.3432L43.0555 46.3754ZM43.0486 48.4174L43.055 46.3585L43.555 46.3601L43.5486 48.4189L43.0486 48.4174ZM43.0828 48.3221C43.0919 48.316 43.085 48.3189 43.075 48.3321C43.0694 48.3395 43.063 48.3499 43.0579 48.3632C43.0527 48.3767 43.0498 48.3904 43.0491 48.4032L43.5482 48.4332C43.538 48.6029 43.423 48.6966 43.3583 48.7394L43.0828 48.3221ZM43.049 48.3311C43.0651 48.3321 43.0723 48.3304 43.0731 48.3302C43.0734 48.3301 43.0726 48.3303 43.071 48.3311C43.0693 48.3319 43.0675 48.333 43.0659 48.3343L43.3751 48.7272C43.2678 48.8116 43.1407 48.8376 43.019 48.8302L43.049 48.3311ZM41.3931 48.329L43.0343 48.3307L43.0338 48.8307L41.3926 48.829L41.3931 48.329ZM40.369 49.5762C40.7295 49.2295 40.9867 48.848 41.1674 48.471L41.6183 48.6871C41.4143 49.1127 41.1232 49.5445 40.7156 49.9366L40.369 49.5762ZM41.5701 50.6385L40.4173 49.9729L40.6673 49.5399L41.8201 50.2055L41.5701 50.6385ZM36.9257 45.3643C36.0395 44.8527 34.8623 44.5898 33.6716 44.5899C32.4809 44.5899 31.3038 44.8529 30.4176 45.3645L30.1676 44.9315C31.1477 44.3657 32.4164 44.0899 33.6716 44.0899C34.9268 44.0898 36.1956 44.3655 37.1756 44.9313L36.9257 45.3643ZM36.9258 48.8327C37.8133 48.3202 38.2004 47.6836 38.2004 47.0984C38.2003 46.5132 37.8132 45.8766 36.9257 45.3643L37.1756 44.9313C38.1543 45.4962 38.7003 46.2716 38.7004 47.0984C38.7004 47.9252 38.1544 48.7007 37.1758 49.2657L36.9258 48.8327ZM30.4178 48.8329C31.3039 49.3444 32.4811 49.6074 33.6718 49.6073C34.8625 49.6073 36.0397 49.3443 36.9258 48.8327L37.1758 49.2657C36.1958 49.8315 34.9271 50.1073 33.6718 50.1073C32.4166 50.1074 31.1479 49.8317 30.1678 49.2659L30.4178 48.8329ZM30.4176 45.3645C29.5301 45.8769 29.1431 46.5136 29.1431 47.0988C29.1431 47.684 29.5302 48.3206 30.4178 48.8329L30.1678 49.2659C29.1892 48.701 28.6431 47.9256 28.6431 47.0988C28.6431 46.272 29.189 45.4965 30.1676 44.9315L30.4176 45.3645Z" fill="black"/>
</g>
<defs>
<clipPath id="clip0">
<rect width="64" height="64" fill="white"/>
</clipPath>
</defs>
</svg>
